M48
;DRILL file {KiCad 4.0.7} date 01/21/18 19:25:53
;FORMAT={2:4/ absolute / inch / suppress leading zeros}
FMAT,2
INCH,TZ
T1C0.013
T2C0.024
T3C0.031
T4C0.032
T5C0.035
T6C0.039
T7C0.040
T8C0.091
T9C0.120
%
G90
G05
M72
T1
X50059Y-30532
X50059Y-31044
X50059Y-31556
X50059Y-32068
X50570Y-30532
X50570Y-31044
X50570Y-31556
X50570Y-32068
X51082Y-30532
X51082Y-31044
X51082Y-31556
X51082Y-32068
X51594Y-30532
X51594Y-31044
X51594Y-31556
X51594Y-32068
X52106Y-30532
X52106Y-31044
X52106Y-31556
X52106Y-32068
X52618Y-30532
X52618Y-31044
X52618Y-31556
X52618Y-32068
X53130Y-30532
X53130Y-31044
X53130Y-31556
X53130Y-32068
X53641Y-30532
X53641Y-31044
X53641Y-31556
X53641Y-32068
T2
X15500Y-29425
X18320Y-32580
X18500Y-29600
X18650Y-31450
X20725Y-27475
X22500Y-29400
X22500Y-31000
X22533Y-25600
X22850Y-27900
X23900Y-23420
X24010Y-25870
X24280Y-24400
X24950Y-23325
X24950Y-24300
X24951Y-22774
X26525Y-27800
X26850Y-34050
X26950Y-22300
X27200Y-25375
X27600Y-34050
X27850Y-24700
X27850Y-31850
X28250Y-28050
X28675Y-34300
X29873Y-28050
X30490Y-28940
X32600Y-30570
X32900Y-34800
X34300Y-35100
X34600Y-30570
X35100Y-34000
X36600Y-30560
X40570Y-26500
X40570Y-27000
X40570Y-27500
X44950Y-28000
X44950Y-35000
X45950Y-28000
X45950Y-35000
X46300Y-32450
X46950Y-28000
X46950Y-35000
X47950Y-35000
X48050Y-28000
X48300Y-30800
X48300Y-31700
X48950Y-28000
X48950Y-35000
X49450Y-32750
X49950Y-28000
X49950Y-35000
X50950Y-28000
X50950Y-35000
X52950Y-28000
X52950Y-35000
X53950Y-28000
X53950Y-35000
X54950Y-28000
X54950Y-35000
X55350Y-32650
X55950Y-28000
X55950Y-35000
X56950Y-28000
X56950Y-35000
X57950Y-28000
X57950Y-35000
X58950Y-28000
X58950Y-35000
T3
X16450Y-22600
X16450Y-26600
X18750Y-20139
X18750Y-22060
X24250Y-34250
X24500Y-29579
X24500Y-31500
X25037Y-34250
X34500Y-21770
X34500Y-24770
X35500Y-21770
X35500Y-24770
X36500Y-21770
X36500Y-24770
X42950Y-29000
X42950Y-30000
X42950Y-31000
X42950Y-32000
T4
X14813Y-32550
X14813Y-33550
X15600Y-32550
X15600Y-33550
T5
X33500Y-26670
X33500Y-27670
X35500Y-26670
X35500Y-27670
X37500Y-26670
X37500Y-27670
T6
X13600Y-39300
X13600Y-40300
X13650Y-24100
X13650Y-25100
X15050Y-24100
X15050Y-25100
X15460Y-39300
X15460Y-40300
X17550Y-22200
X17550Y-26900
X19100Y-39800
X19100Y-41300
X21600Y-34550
X28970Y-21880
X28970Y-22880
X28970Y-23880
X29970Y-21880
X29970Y-22880
X29970Y-23880
X36950Y-35100
X47350Y-30300
X56050Y-30300
T7
X45397Y-40100
X45450Y-22900
X45948Y-41100
X46068Y-21900
X46499Y-40100
X46548Y-22900
X47047Y-41100
X47068Y-21900
X47598Y-40100
X47600Y-22900
X48129Y-41100
X48170Y-21900
X48649Y-40100
X48702Y-22900
X49188Y-41100
X49249Y-21900
X49747Y-40100
X49800Y-22900
X50306Y-41100
X50332Y-21900
X50850Y-40100
X50899Y-22900
X51389Y-41100
X51430Y-21900
X51948Y-40100
X51950Y-22900
X52468Y-41100
X52509Y-21900
X52999Y-40100
X53048Y-22900
X53566Y-41100
X53592Y-21900
X54098Y-40100
X54151Y-22900
X54649Y-41100
X54710Y-21900
X55196Y-40100
X55249Y-22900
X55728Y-41100
X55769Y-21900
X56299Y-40100
X56300Y-22900
X56830Y-41100
X56852Y-21900
X57350Y-40100
X57399Y-22900
X57830Y-41100
X57950Y-21900
X58448Y-40100
X58501Y-22900
T8
X13750Y-30688
X13750Y-35412
T9
X42696Y-41100
X42702Y-21900
X61196Y-41100
X61202Y-21900
T0
M30
