%TF.GenerationSoftware,KiCad,Pcbnew,4.0.7*%
%TF.CreationDate,2018-01-21T19:25:00+01:00*%
%TF.ProjectId,blinCAN,626C696E43414E2E6B696361645F7063,0.1*%
%TF.FileFunction,Legend,Bot*%
%FSLAX46Y46*%
G04 Gerber Fmt 4.6, Leading zero omitted, Abs format (unit mm)*
G04 Created by KiCad (PCBNEW 4.0.7) date 01/21/18 19:25:00*
%MOMM*%
%LPD*%
G01*
G04 APERTURE LIST*
%ADD10C,0.050000*%
%ADD11C,0.300000*%
%ADD12C,0.200000*%
%ADD13C,0.120000*%
%ADD14C,0.150000*%
%ADD15C,0.010000*%
%ADD16C,3.600000*%
%ADD17R,1.600000X1.150000*%
%ADD18R,3.900000X2.700000*%
%ADD19R,1.150000X1.600000*%
%ADD20R,1.600000X1.300000*%
%ADD21C,1.900000*%
%ADD22R,2.200000X2.200000*%
%ADD23C,2.200000*%
%ADD24R,1.300000X1.600000*%
%ADD25R,1.900000X3.600000*%
%ADD26R,3.600000X1.900000*%
%ADD27R,3.900000X3.100000*%
%ADD28R,2.000000X2.000000*%
%ADD29C,2.000000*%
%ADD30R,1.900000X1.700000*%
%ADD31R,2.000000X0.950000*%
%ADD32R,0.950000X2.000000*%
%ADD33O,2.000000X2.000000*%
%ADD34R,2.100000X2.100000*%
%ADD35O,2.100000X2.100000*%
%ADD36C,1.920000*%
%ADD37C,3.100000*%
%ADD38C,4.210000*%
%ADD39R,1.920000X1.920000*%
%ADD40R,2.400000X4.200000*%
%ADD41R,2.400000X1.900000*%
%ADD42O,1.900000X1.300000*%
%ADD43R,1.900000X1.300000*%
%ADD44R,2.400000X1.000000*%
%ADD45R,2.150000X0.850000*%
%ADD46C,2.540000*%
G04 APERTURE END LIST*
D10*
D11*
X101169000Y-104580571D02*
X101169000Y-105794857D01*
X101240429Y-105937714D01*
X101311857Y-106009143D01*
X101454714Y-106080571D01*
X101669000Y-106080571D01*
X101811857Y-106009143D01*
X101169000Y-105509143D02*
X101311857Y-105580571D01*
X101597571Y-105580571D01*
X101740429Y-105509143D01*
X101811857Y-105437714D01*
X101883286Y-105294857D01*
X101883286Y-104866286D01*
X101811857Y-104723429D01*
X101740429Y-104652000D01*
X101597571Y-104580571D01*
X101311857Y-104580571D01*
X101169000Y-104652000D01*
X100454714Y-105580571D02*
X100454714Y-104580571D01*
X100454714Y-104080571D02*
X100526143Y-104152000D01*
X100454714Y-104223429D01*
X100383286Y-104152000D01*
X100454714Y-104080571D01*
X100454714Y-104223429D01*
X99954714Y-104580571D02*
X99383285Y-104580571D01*
X99740428Y-104080571D02*
X99740428Y-105366286D01*
X99669000Y-105509143D01*
X99526142Y-105580571D01*
X99383285Y-105580571D01*
X98883285Y-105580571D02*
X98883285Y-104080571D01*
X98240428Y-105580571D02*
X98240428Y-104794857D01*
X98311857Y-104652000D01*
X98454714Y-104580571D01*
X98668999Y-104580571D01*
X98811857Y-104652000D01*
X98883285Y-104723429D01*
X96883285Y-104580571D02*
X96883285Y-105580571D01*
X97526142Y-104580571D02*
X97526142Y-105366286D01*
X97454714Y-105509143D01*
X97311856Y-105580571D01*
X97097571Y-105580571D01*
X96954714Y-105509143D01*
X96883285Y-105437714D01*
X96168999Y-105580571D02*
X96168999Y-104080571D01*
X96168999Y-104652000D02*
X96026142Y-104580571D01*
X95740428Y-104580571D01*
X95597571Y-104652000D01*
X95526142Y-104723429D01*
X95454713Y-104866286D01*
X95454713Y-105294857D01*
X95526142Y-105437714D01*
X95597571Y-105509143D01*
X95740428Y-105580571D01*
X96026142Y-105580571D01*
X96168999Y-105509143D01*
X94811856Y-105437714D02*
X94740428Y-105509143D01*
X94811856Y-105580571D01*
X94883285Y-105509143D01*
X94811856Y-105437714D01*
X94811856Y-105580571D01*
X93454713Y-105509143D02*
X93597570Y-105580571D01*
X93883284Y-105580571D01*
X94026142Y-105509143D01*
X94097570Y-105437714D01*
X94168999Y-105294857D01*
X94168999Y-104866286D01*
X94097570Y-104723429D01*
X94026142Y-104652000D01*
X93883284Y-104580571D01*
X93597570Y-104580571D01*
X93454713Y-104652000D01*
X92597570Y-105580571D02*
X92740428Y-105509143D01*
X92811856Y-105437714D01*
X92883285Y-105294857D01*
X92883285Y-104866286D01*
X92811856Y-104723429D01*
X92740428Y-104652000D01*
X92597570Y-104580571D01*
X92383285Y-104580571D01*
X92240428Y-104652000D01*
X92168999Y-104723429D01*
X92097570Y-104866286D01*
X92097570Y-105294857D01*
X92168999Y-105437714D01*
X92240428Y-105509143D01*
X92383285Y-105580571D01*
X92597570Y-105580571D01*
X91454713Y-105580571D02*
X91454713Y-104580571D01*
X91454713Y-104723429D02*
X91383285Y-104652000D01*
X91240427Y-104580571D01*
X91026142Y-104580571D01*
X90883285Y-104652000D01*
X90811856Y-104794857D01*
X90811856Y-105580571D01*
X90811856Y-104794857D02*
X90740427Y-104652000D01*
X90597570Y-104580571D01*
X90383285Y-104580571D01*
X90240427Y-104652000D01*
X90168999Y-104794857D01*
X90168999Y-105580571D01*
X88383285Y-104009143D02*
X89668999Y-105937714D01*
X87883284Y-105580571D02*
X87883284Y-104580571D01*
X87883284Y-104723429D02*
X87811856Y-104652000D01*
X87668998Y-104580571D01*
X87454713Y-104580571D01*
X87311856Y-104652000D01*
X87240427Y-104794857D01*
X87240427Y-105580571D01*
X87240427Y-104794857D02*
X87168998Y-104652000D01*
X87026141Y-104580571D01*
X86811856Y-104580571D01*
X86668998Y-104652000D01*
X86597570Y-104794857D01*
X86597570Y-105580571D01*
X85311856Y-105509143D02*
X85454713Y-105580571D01*
X85740427Y-105580571D01*
X85883284Y-105509143D01*
X85954713Y-105366286D01*
X85954713Y-104794857D01*
X85883284Y-104652000D01*
X85740427Y-104580571D01*
X85454713Y-104580571D01*
X85311856Y-104652000D01*
X85240427Y-104794857D01*
X85240427Y-104937714D01*
X85954713Y-105080571D01*
X84811856Y-104580571D02*
X84240427Y-104580571D01*
X84597570Y-104080571D02*
X84597570Y-105366286D01*
X84526142Y-105509143D01*
X84383284Y-105580571D01*
X84240427Y-105580571D01*
X83097570Y-105580571D02*
X83097570Y-104794857D01*
X83168999Y-104652000D01*
X83311856Y-104580571D01*
X83597570Y-104580571D01*
X83740427Y-104652000D01*
X83097570Y-105509143D02*
X83240427Y-105580571D01*
X83597570Y-105580571D01*
X83740427Y-105509143D01*
X83811856Y-105366286D01*
X83811856Y-105223429D01*
X83740427Y-105080571D01*
X83597570Y-105009143D01*
X83240427Y-105009143D01*
X83097570Y-104937714D01*
X82168998Y-105580571D02*
X82311856Y-105509143D01*
X82383284Y-105366286D01*
X82383284Y-104080571D01*
X81597570Y-105580571D02*
X81597570Y-104080571D01*
X80954713Y-105580571D02*
X80954713Y-104794857D01*
X81026142Y-104652000D01*
X81168999Y-104580571D01*
X81383284Y-104580571D01*
X81526142Y-104652000D01*
X81597570Y-104723429D01*
X79668999Y-105509143D02*
X79811856Y-105580571D01*
X80097570Y-105580571D01*
X80240427Y-105509143D01*
X80311856Y-105366286D01*
X80311856Y-104794857D01*
X80240427Y-104652000D01*
X80097570Y-104580571D01*
X79811856Y-104580571D01*
X79668999Y-104652000D01*
X79597570Y-104794857D01*
X79597570Y-104937714D01*
X80311856Y-105080571D01*
X78311856Y-105580571D02*
X78311856Y-104794857D01*
X78383285Y-104652000D01*
X78526142Y-104580571D01*
X78811856Y-104580571D01*
X78954713Y-104652000D01*
X78311856Y-105509143D02*
X78454713Y-105580571D01*
X78811856Y-105580571D01*
X78954713Y-105509143D01*
X79026142Y-105366286D01*
X79026142Y-105223429D01*
X78954713Y-105080571D01*
X78811856Y-105009143D01*
X78454713Y-105009143D01*
X78311856Y-104937714D01*
X76954713Y-105580571D02*
X76954713Y-104080571D01*
X76954713Y-105509143D02*
X77097570Y-105580571D01*
X77383284Y-105580571D01*
X77526142Y-105509143D01*
X77597570Y-105437714D01*
X77668999Y-105294857D01*
X77668999Y-104866286D01*
X77597570Y-104723429D01*
X77526142Y-104652000D01*
X77383284Y-104580571D01*
X77097570Y-104580571D01*
X76954713Y-104652000D01*
X76383284Y-104080571D02*
X75383284Y-104080571D01*
X76026141Y-105580571D01*
X74954713Y-104080571D02*
X73954713Y-104080571D01*
X74597570Y-105580571D01*
X73526142Y-104080571D02*
X72526142Y-104080571D01*
X73168999Y-105580571D01*
X70883286Y-104009143D02*
X72169000Y-105937714D01*
X70383285Y-105580571D02*
X70383285Y-104080571D01*
X70383285Y-104652000D02*
X70240428Y-104580571D01*
X69954714Y-104580571D01*
X69811857Y-104652000D01*
X69740428Y-104723429D01*
X69668999Y-104866286D01*
X69668999Y-105294857D01*
X69740428Y-105437714D01*
X69811857Y-105509143D01*
X69954714Y-105580571D01*
X70240428Y-105580571D01*
X70383285Y-105509143D01*
X68811856Y-105580571D02*
X68954714Y-105509143D01*
X69026142Y-105366286D01*
X69026142Y-104080571D01*
X68240428Y-105580571D02*
X68240428Y-104580571D01*
X68240428Y-104080571D02*
X68311857Y-104152000D01*
X68240428Y-104223429D01*
X68169000Y-104152000D01*
X68240428Y-104080571D01*
X68240428Y-104223429D01*
X67526142Y-104580571D02*
X67526142Y-105580571D01*
X67526142Y-104723429D02*
X67454714Y-104652000D01*
X67311856Y-104580571D01*
X67097571Y-104580571D01*
X66954714Y-104652000D01*
X66883285Y-104794857D01*
X66883285Y-105580571D01*
X65311856Y-105437714D02*
X65383285Y-105509143D01*
X65597571Y-105580571D01*
X65740428Y-105580571D01*
X65954713Y-105509143D01*
X66097571Y-105366286D01*
X66168999Y-105223429D01*
X66240428Y-104937714D01*
X66240428Y-104723429D01*
X66168999Y-104437714D01*
X66097571Y-104294857D01*
X65954713Y-104152000D01*
X65740428Y-104080571D01*
X65597571Y-104080571D01*
X65383285Y-104152000D01*
X65311856Y-104223429D01*
X64740428Y-105152000D02*
X64026142Y-105152000D01*
X64883285Y-105580571D02*
X64383285Y-104080571D01*
X63883285Y-105580571D01*
X63383285Y-105580571D02*
X63383285Y-104080571D01*
X62526142Y-105580571D01*
X62526142Y-104080571D01*
D12*
X49657000Y-74676000D02*
G75*
G03X49657000Y-74676000I-127000J0D01*
G01*
X67564000Y-84201000D02*
G75*
G03X67564000Y-84201000I-127000J0D01*
G01*
X55932605Y-64262000D02*
G75*
G03X55932605Y-64262000I-179605J0D01*
G01*
D13*
X51339000Y-71847000D02*
X52039000Y-71847000D01*
X52039000Y-70647000D02*
X51339000Y-70647000D01*
X43914000Y-67682000D02*
X43914000Y-63382000D01*
X43914000Y-63382000D02*
X51214000Y-63382000D01*
X43914000Y-67682000D02*
X51214000Y-67682000D01*
X62900000Y-82581000D02*
X62900000Y-83281000D01*
X64100000Y-83281000D02*
X64100000Y-82581000D01*
X64485000Y-77759000D02*
X63785000Y-77759000D01*
X63785000Y-78959000D02*
X64485000Y-78959000D01*
X78902000Y-79914000D02*
X78902000Y-80614000D01*
X80102000Y-80614000D02*
X80102000Y-79914000D01*
X64485000Y-76235000D02*
X63785000Y-76235000D01*
X63785000Y-77435000D02*
X64485000Y-77435000D01*
X52039000Y-51978000D02*
X51339000Y-51978000D01*
X51339000Y-53178000D02*
X52039000Y-53178000D01*
X52039000Y-54010000D02*
X51339000Y-54010000D01*
X51339000Y-55210000D02*
X52039000Y-55210000D01*
X66964000Y-64547000D02*
X66964000Y-65247000D01*
X68164000Y-65247000D02*
X68164000Y-64547000D01*
X39021500Y-87157000D02*
X38321500Y-87157000D01*
X38321500Y-88357000D02*
X39021500Y-88357000D01*
X39589000Y-79852000D02*
X39589000Y-79152000D01*
X38389000Y-79152000D02*
X38389000Y-79852000D01*
X43914000Y-61332000D02*
X43914000Y-57032000D01*
X43914000Y-57032000D02*
X51214000Y-57032000D01*
X43914000Y-61332000D02*
X51214000Y-61332000D01*
X54602000Y-73996000D02*
X53602000Y-73996000D01*
X53602000Y-75356000D02*
X54602000Y-75356000D01*
X54602000Y-78060000D02*
X53602000Y-78060000D01*
X53602000Y-79420000D02*
X54602000Y-79420000D01*
X42029000Y-71202000D02*
X41029000Y-71202000D01*
X41029000Y-72562000D02*
X42029000Y-72562000D01*
X46109000Y-72498500D02*
X47109000Y-72498500D01*
X47109000Y-71138500D02*
X46109000Y-71138500D01*
X89490000Y-78240000D02*
X89490000Y-79240000D01*
X90850000Y-79240000D02*
X90850000Y-78240000D01*
X94570000Y-78240000D02*
X94570000Y-79240000D01*
X95930000Y-79240000D02*
X95930000Y-78240000D01*
X84410000Y-78240000D02*
X84410000Y-79240000D01*
X85770000Y-79240000D02*
X85770000Y-78240000D01*
X94570000Y-73566400D02*
X94570000Y-74566400D01*
X95930000Y-74566400D02*
X95930000Y-73566400D01*
X89490000Y-73566400D02*
X89490000Y-74566400D01*
X90850000Y-74566400D02*
X90850000Y-73566400D01*
X84410000Y-73566400D02*
X84410000Y-74566400D01*
X85770000Y-74566400D02*
X85770000Y-73566400D01*
X99867000Y-70350000D02*
X99867000Y-69350000D01*
X98507000Y-69350000D02*
X98507000Y-70350000D01*
X44289000Y-97192000D02*
X44289000Y-102692000D01*
X46389000Y-97192000D02*
X46389000Y-102692000D01*
X44289000Y-97192000D02*
X46389000Y-97192000D01*
X58129000Y-105122000D02*
X52629000Y-105122000D01*
X58129000Y-107222000D02*
X52629000Y-107222000D01*
X58129000Y-105122000D02*
X58129000Y-107222000D01*
X58899000Y-96877000D02*
X50199000Y-96877000D01*
X50199000Y-96877000D02*
X50199000Y-93877000D01*
X50199000Y-93877000D02*
X58899000Y-93877000D01*
X43209000Y-88797000D02*
X51909000Y-88797000D01*
X51909000Y-88797000D02*
X51909000Y-91797000D01*
X51909000Y-91797000D02*
X43209000Y-91797000D01*
X42319000Y-93227000D02*
X42319000Y-97527000D01*
X42319000Y-97527000D02*
X35019000Y-97527000D01*
X42319000Y-93227000D02*
X35019000Y-93227000D01*
X46009000Y-95622000D02*
X47209000Y-95622000D01*
X47209000Y-93862000D02*
X46009000Y-93862000D01*
X47279000Y-88002000D02*
X48479000Y-88002000D01*
X48479000Y-86242000D02*
X47279000Y-86242000D01*
D14*
X68011200Y-83641000D02*
X68011200Y-83416000D01*
X75261200Y-83641000D02*
X75261200Y-83316000D01*
X75261200Y-76391000D02*
X75261200Y-76716000D01*
X68011200Y-76391000D02*
X68011200Y-76716000D01*
X68011200Y-83641000D02*
X68336200Y-83641000D01*
X68011200Y-76391000D02*
X68336200Y-76391000D01*
X75261200Y-76391000D02*
X74936200Y-76391000D01*
X75261200Y-83641000D02*
X74936200Y-83641000D01*
X68011200Y-83416000D02*
X66586200Y-83416000D01*
D13*
X56139000Y-97682000D02*
X56139000Y-98942000D01*
X56139000Y-104502000D02*
X56139000Y-103242000D01*
X52379000Y-97682000D02*
X56139000Y-97682000D01*
X50129000Y-104502000D02*
X56139000Y-104502000D01*
D14*
X56704000Y-63862000D02*
X56704000Y-63612000D01*
X64454000Y-63862000D02*
X64454000Y-63517000D01*
X64454000Y-51962000D02*
X64454000Y-52307000D01*
X56704000Y-51962000D02*
X56704000Y-52307000D01*
X56704000Y-63862000D02*
X64454000Y-63862000D01*
X56704000Y-51962000D02*
X64454000Y-51962000D01*
X56704000Y-63612000D02*
X54879000Y-63612000D01*
X48842200Y-74437400D02*
X48842200Y-75012400D01*
X43092200Y-74437400D02*
X43092200Y-75087400D01*
X43092200Y-85087400D02*
X43092200Y-84437400D01*
X48842200Y-85087400D02*
X48842200Y-84437400D01*
X48842200Y-74437400D02*
X43092200Y-74437400D01*
X48842200Y-85087400D02*
X43092200Y-85087400D01*
X48842200Y-75012400D02*
X50442200Y-75012400D01*
D15*
G36*
X90318754Y-100302945D02*
X90266189Y-100303480D01*
X90112165Y-100307196D01*
X89983171Y-100318235D01*
X89874809Y-100337782D01*
X89782684Y-100367019D01*
X89702399Y-100407133D01*
X89629558Y-100459305D01*
X89603541Y-100481969D01*
X89560383Y-100534998D01*
X89521467Y-100606957D01*
X89491473Y-100686720D01*
X89475081Y-100763161D01*
X89473378Y-100791408D01*
X89484051Y-100869710D01*
X89512653Y-100955241D01*
X89554057Y-101036199D01*
X89603141Y-101100782D01*
X89611113Y-101108574D01*
X89678646Y-101163344D01*
X89752598Y-101206099D01*
X89837234Y-101237959D01*
X89936817Y-101260044D01*
X90055612Y-101273474D01*
X90197880Y-101279370D01*
X90263046Y-101279870D01*
X90345901Y-101279471D01*
X90404169Y-101277802D01*
X90443316Y-101274158D01*
X90468809Y-101267829D01*
X90486114Y-101258110D01*
X90495390Y-101249810D01*
X90504152Y-101239728D01*
X90511025Y-101226721D01*
X90516238Y-101207305D01*
X90520019Y-101177996D01*
X90522597Y-101135309D01*
X90524200Y-101075761D01*
X90525057Y-100995866D01*
X90525397Y-100892141D01*
X90525449Y-100791408D01*
X90525780Y-100657055D01*
X90525708Y-100549728D01*
X90524430Y-100498331D01*
X90330065Y-100498331D01*
X90330065Y-101084485D01*
X90206071Y-101084371D01*
X90131461Y-101082232D01*
X90053318Y-101076719D01*
X89988120Y-101069008D01*
X89986136Y-101068691D01*
X89880763Y-101043214D01*
X89799032Y-101003536D01*
X89736862Y-100947074D01*
X89697360Y-100885942D01*
X89673020Y-100818129D01*
X89674907Y-100754455D01*
X89703155Y-100686201D01*
X89758408Y-100615592D01*
X89834973Y-100563271D01*
X89934495Y-100528299D01*
X90001007Y-100515922D01*
X90076507Y-100507230D01*
X90156525Y-100500940D01*
X90224584Y-100498324D01*
X90228615Y-100498312D01*
X90330065Y-100498331D01*
X90524430Y-100498331D01*
X90523636Y-100466417D01*
X90517961Y-100404115D01*
X90507087Y-100359811D01*
X90489414Y-100330496D01*
X90463343Y-100313161D01*
X90427275Y-100304797D01*
X90379612Y-100302395D01*
X90318754Y-100302945D01*
X90318754Y-100302945D01*
G37*
X90318754Y-100302945D02*
X90266189Y-100303480D01*
X90112165Y-100307196D01*
X89983171Y-100318235D01*
X89874809Y-100337782D01*
X89782684Y-100367019D01*
X89702399Y-100407133D01*
X89629558Y-100459305D01*
X89603541Y-100481969D01*
X89560383Y-100534998D01*
X89521467Y-100606957D01*
X89491473Y-100686720D01*
X89475081Y-100763161D01*
X89473378Y-100791408D01*
X89484051Y-100869710D01*
X89512653Y-100955241D01*
X89554057Y-101036199D01*
X89603141Y-101100782D01*
X89611113Y-101108574D01*
X89678646Y-101163344D01*
X89752598Y-101206099D01*
X89837234Y-101237959D01*
X89936817Y-101260044D01*
X90055612Y-101273474D01*
X90197880Y-101279370D01*
X90263046Y-101279870D01*
X90345901Y-101279471D01*
X90404169Y-101277802D01*
X90443316Y-101274158D01*
X90468809Y-101267829D01*
X90486114Y-101258110D01*
X90495390Y-101249810D01*
X90504152Y-101239728D01*
X90511025Y-101226721D01*
X90516238Y-101207305D01*
X90520019Y-101177996D01*
X90522597Y-101135309D01*
X90524200Y-101075761D01*
X90525057Y-100995866D01*
X90525397Y-100892141D01*
X90525449Y-100791408D01*
X90525780Y-100657055D01*
X90525708Y-100549728D01*
X90524430Y-100498331D01*
X90330065Y-100498331D01*
X90330065Y-101084485D01*
X90206071Y-101084371D01*
X90131461Y-101082232D01*
X90053318Y-101076719D01*
X89988120Y-101069008D01*
X89986136Y-101068691D01*
X89880763Y-101043214D01*
X89799032Y-101003536D01*
X89736862Y-100947074D01*
X89697360Y-100885942D01*
X89673020Y-100818129D01*
X89674907Y-100754455D01*
X89703155Y-100686201D01*
X89758408Y-100615592D01*
X89834973Y-100563271D01*
X89934495Y-100528299D01*
X90001007Y-100515922D01*
X90076507Y-100507230D01*
X90156525Y-100500940D01*
X90224584Y-100498324D01*
X90228615Y-100498312D01*
X90330065Y-100498331D01*
X90524430Y-100498331D01*
X90523636Y-100466417D01*
X90517961Y-100404115D01*
X90507087Y-100359811D01*
X90489414Y-100330496D01*
X90463343Y-100313161D01*
X90427275Y-100304797D01*
X90379612Y-100302395D01*
X90318754Y-100302945D01*
G36*
X88443430Y-100303052D02*
X88351022Y-100303548D01*
X88281273Y-100304701D01*
X88230483Y-100306780D01*
X88194951Y-100310051D01*
X88170978Y-100314783D01*
X88154864Y-100321243D01*
X88142909Y-100329699D01*
X88138579Y-100333591D01*
X88112251Y-100374940D01*
X88107511Y-100422452D01*
X88124830Y-100464631D01*
X88132839Y-100473156D01*
X88145792Y-100481421D01*
X88166648Y-100487797D01*
X88199276Y-100492595D01*
X88247542Y-100496124D01*
X88315314Y-100498694D01*
X88406460Y-100500617D01*
X88489791Y-100501787D01*
X88819592Y-100505846D01*
X88828606Y-100678686D01*
X88604742Y-100678686D01*
X88507554Y-100679525D01*
X88436403Y-100683032D01*
X88387291Y-100690695D01*
X88356217Y-100704003D01*
X88339184Y-100724441D01*
X88332192Y-100753499D01*
X88331130Y-100780467D01*
X88334430Y-100813557D01*
X88346883Y-100837940D01*
X88372320Y-100854889D01*
X88414571Y-100865679D01*
X88477466Y-100871584D01*
X88564835Y-100873877D01*
X88612521Y-100874071D01*
X88827106Y-100874071D01*
X88827106Y-101084485D01*
X88496455Y-101084485D01*
X88388070Y-101084636D01*
X88305697Y-101085314D01*
X88245289Y-101086856D01*
X88202799Y-101089599D01*
X88174181Y-101093881D01*
X88155388Y-101100039D01*
X88142374Y-101108409D01*
X88135745Y-101114544D01*
X88113007Y-101150349D01*
X88105686Y-101182177D01*
X88116139Y-101221054D01*
X88135745Y-101249810D01*
X88146205Y-101258863D01*
X88159708Y-101265893D01*
X88179886Y-101271154D01*
X88210371Y-101274901D01*
X88254795Y-101277390D01*
X88316791Y-101278875D01*
X88399991Y-101279611D01*
X88508027Y-101279854D01*
X88564089Y-101279870D01*
X88684144Y-101279763D01*
X88777774Y-101279275D01*
X88848609Y-101278149D01*
X88900281Y-101276131D01*
X88936423Y-101272966D01*
X88960668Y-101268399D01*
X88976647Y-101262176D01*
X88987993Y-101254040D01*
X88992432Y-101249810D01*
X89001217Y-101239696D01*
X89008104Y-101226648D01*
X89013321Y-101207170D01*
X89017099Y-101177764D01*
X89019670Y-101134934D01*
X89021264Y-101075184D01*
X89022111Y-100995017D01*
X89022442Y-100890937D01*
X89022491Y-100794028D01*
X89022446Y-100669923D01*
X89022134Y-100572366D01*
X89021288Y-100497846D01*
X89019642Y-100442851D01*
X89016929Y-100403870D01*
X89012883Y-100377393D01*
X89007237Y-100359906D01*
X88999726Y-100347900D01*
X88990082Y-100337863D01*
X88987706Y-100335626D01*
X88976175Y-100325719D01*
X88962778Y-100318048D01*
X88943796Y-100312326D01*
X88915515Y-100308268D01*
X88874218Y-100305588D01*
X88816188Y-100304002D01*
X88737709Y-100303224D01*
X88635066Y-100302968D01*
X88562196Y-100302946D01*
X88443430Y-100303052D01*
X88443430Y-100303052D01*
G37*
X88443430Y-100303052D02*
X88351022Y-100303548D01*
X88281273Y-100304701D01*
X88230483Y-100306780D01*
X88194951Y-100310051D01*
X88170978Y-100314783D01*
X88154864Y-100321243D01*
X88142909Y-100329699D01*
X88138579Y-100333591D01*
X88112251Y-100374940D01*
X88107511Y-100422452D01*
X88124830Y-100464631D01*
X88132839Y-100473156D01*
X88145792Y-100481421D01*
X88166648Y-100487797D01*
X88199276Y-100492595D01*
X88247542Y-100496124D01*
X88315314Y-100498694D01*
X88406460Y-100500617D01*
X88489791Y-100501787D01*
X88819592Y-100505846D01*
X88828606Y-100678686D01*
X88604742Y-100678686D01*
X88507554Y-100679525D01*
X88436403Y-100683032D01*
X88387291Y-100690695D01*
X88356217Y-100704003D01*
X88339184Y-100724441D01*
X88332192Y-100753499D01*
X88331130Y-100780467D01*
X88334430Y-100813557D01*
X88346883Y-100837940D01*
X88372320Y-100854889D01*
X88414571Y-100865679D01*
X88477466Y-100871584D01*
X88564835Y-100873877D01*
X88612521Y-100874071D01*
X88827106Y-100874071D01*
X88827106Y-101084485D01*
X88496455Y-101084485D01*
X88388070Y-101084636D01*
X88305697Y-101085314D01*
X88245289Y-101086856D01*
X88202799Y-101089599D01*
X88174181Y-101093881D01*
X88155388Y-101100039D01*
X88142374Y-101108409D01*
X88135745Y-101114544D01*
X88113007Y-101150349D01*
X88105686Y-101182177D01*
X88116139Y-101221054D01*
X88135745Y-101249810D01*
X88146205Y-101258863D01*
X88159708Y-101265893D01*
X88179886Y-101271154D01*
X88210371Y-101274901D01*
X88254795Y-101277390D01*
X88316791Y-101278875D01*
X88399991Y-101279611D01*
X88508027Y-101279854D01*
X88564089Y-101279870D01*
X88684144Y-101279763D01*
X88777774Y-101279275D01*
X88848609Y-101278149D01*
X88900281Y-101276131D01*
X88936423Y-101272966D01*
X88960668Y-101268399D01*
X88976647Y-101262176D01*
X88987993Y-101254040D01*
X88992432Y-101249810D01*
X89001217Y-101239696D01*
X89008104Y-101226648D01*
X89013321Y-101207170D01*
X89017099Y-101177764D01*
X89019670Y-101134934D01*
X89021264Y-101075184D01*
X89022111Y-100995017D01*
X89022442Y-100890937D01*
X89022491Y-100794028D01*
X89022446Y-100669923D01*
X89022134Y-100572366D01*
X89021288Y-100497846D01*
X89019642Y-100442851D01*
X89016929Y-100403870D01*
X89012883Y-100377393D01*
X89007237Y-100359906D01*
X88999726Y-100347900D01*
X88990082Y-100337863D01*
X88987706Y-100335626D01*
X88976175Y-100325719D01*
X88962778Y-100318048D01*
X88943796Y-100312326D01*
X88915515Y-100308268D01*
X88874218Y-100305588D01*
X88816188Y-100304002D01*
X88737709Y-100303224D01*
X88635066Y-100302968D01*
X88562196Y-100302946D01*
X88443430Y-100303052D01*
G36*
X87083988Y-100304657D02*
X86984383Y-100311620D01*
X86891744Y-100322495D01*
X86811458Y-100336874D01*
X86748908Y-100354346D01*
X86709481Y-100374502D01*
X86703429Y-100380435D01*
X86682384Y-100426475D01*
X86688766Y-100473740D01*
X86721407Y-100514178D01*
X86722964Y-100515337D01*
X86742163Y-100527797D01*
X86762205Y-100534349D01*
X86790160Y-100535144D01*
X86833099Y-100530336D01*
X86898091Y-100520075D01*
X86903319Y-100519211D01*
X87000161Y-100507314D01*
X87104644Y-100501445D01*
X87209435Y-100501388D01*
X87307202Y-100506927D01*
X87390612Y-100517845D01*
X87452333Y-100533925D01*
X87456388Y-100535541D01*
X87501164Y-100560629D01*
X87516896Y-100586018D01*
X87504580Y-100610987D01*
X87465215Y-100634816D01*
X87399798Y-100656782D01*
X87309326Y-100676166D01*
X87249000Y-100685498D01*
X87123600Y-100703449D01*
X87023865Y-100719859D01*
X86945546Y-100736148D01*
X86884393Y-100753738D01*
X86836159Y-100774049D01*
X86796595Y-100798503D01*
X86761452Y-100828520D01*
X86733211Y-100857996D01*
X86699708Y-100899067D01*
X86683219Y-100934382D01*
X86678063Y-100977893D01*
X86677876Y-100993828D01*
X86681748Y-101046705D01*
X86697227Y-101086043D01*
X86724015Y-101120960D01*
X86778459Y-101174334D01*
X86839170Y-101215038D01*
X86910658Y-101244400D01*
X86997436Y-101263747D01*
X87104014Y-101274406D01*
X87234903Y-101277705D01*
X87256515Y-101277649D01*
X87343798Y-101275840D01*
X87430359Y-101271729D01*
X87506762Y-101265906D01*
X87563570Y-101258961D01*
X87568164Y-101258164D01*
X87624645Y-101244784D01*
X87672552Y-101227882D01*
X87699673Y-101212431D01*
X87724911Y-101171666D01*
X87726669Y-101124198D01*
X87704912Y-101081895D01*
X87700044Y-101077112D01*
X87679922Y-101062899D01*
X87654758Y-101056776D01*
X87615813Y-101057818D01*
X87568535Y-101063234D01*
X87515705Y-101068073D01*
X87441648Y-101072155D01*
X87355191Y-101075118D01*
X87265163Y-101076597D01*
X87241485Y-101076694D01*
X87151122Y-101076330D01*
X87084989Y-101074576D01*
X87037267Y-101070823D01*
X87002138Y-101064463D01*
X86973782Y-101054887D01*
X86956741Y-101046911D01*
X86919296Y-101024765D01*
X86895421Y-101004708D01*
X86891932Y-100999023D01*
X86899293Y-100975545D01*
X86934287Y-100952817D01*
X86994488Y-100931870D01*
X87077471Y-100913736D01*
X87101920Y-100909697D01*
X87229622Y-100889639D01*
X87331540Y-100872874D01*
X87411606Y-100858183D01*
X87473754Y-100844348D01*
X87521918Y-100830151D01*
X87560032Y-100814373D01*
X87592030Y-100795796D01*
X87621844Y-100773202D01*
X87653410Y-100745373D01*
X87664032Y-100735616D01*
X87701273Y-100699202D01*
X87720987Y-100670352D01*
X87728699Y-100637338D01*
X87729947Y-100595735D01*
X87716215Y-100514151D01*
X87675178Y-100444834D01*
X87607070Y-100388008D01*
X87512127Y-100343897D01*
X87444384Y-100324112D01*
X87370759Y-100311333D01*
X87282561Y-100304104D01*
X87185176Y-100302015D01*
X87083988Y-100304657D01*
X87083988Y-100304657D01*
G37*
X87083988Y-100304657D02*
X86984383Y-100311620D01*
X86891744Y-100322495D01*
X86811458Y-100336874D01*
X86748908Y-100354346D01*
X86709481Y-100374502D01*
X86703429Y-100380435D01*
X86682384Y-100426475D01*
X86688766Y-100473740D01*
X86721407Y-100514178D01*
X86722964Y-100515337D01*
X86742163Y-100527797D01*
X86762205Y-100534349D01*
X86790160Y-100535144D01*
X86833099Y-100530336D01*
X86898091Y-100520075D01*
X86903319Y-100519211D01*
X87000161Y-100507314D01*
X87104644Y-100501445D01*
X87209435Y-100501388D01*
X87307202Y-100506927D01*
X87390612Y-100517845D01*
X87452333Y-100533925D01*
X87456388Y-100535541D01*
X87501164Y-100560629D01*
X87516896Y-100586018D01*
X87504580Y-100610987D01*
X87465215Y-100634816D01*
X87399798Y-100656782D01*
X87309326Y-100676166D01*
X87249000Y-100685498D01*
X87123600Y-100703449D01*
X87023865Y-100719859D01*
X86945546Y-100736148D01*
X86884393Y-100753738D01*
X86836159Y-100774049D01*
X86796595Y-100798503D01*
X86761452Y-100828520D01*
X86733211Y-100857996D01*
X86699708Y-100899067D01*
X86683219Y-100934382D01*
X86678063Y-100977893D01*
X86677876Y-100993828D01*
X86681748Y-101046705D01*
X86697227Y-101086043D01*
X86724015Y-101120960D01*
X86778459Y-101174334D01*
X86839170Y-101215038D01*
X86910658Y-101244400D01*
X86997436Y-101263747D01*
X87104014Y-101274406D01*
X87234903Y-101277705D01*
X87256515Y-101277649D01*
X87343798Y-101275840D01*
X87430359Y-101271729D01*
X87506762Y-101265906D01*
X87563570Y-101258961D01*
X87568164Y-101258164D01*
X87624645Y-101244784D01*
X87672552Y-101227882D01*
X87699673Y-101212431D01*
X87724911Y-101171666D01*
X87726669Y-101124198D01*
X87704912Y-101081895D01*
X87700044Y-101077112D01*
X87679922Y-101062899D01*
X87654758Y-101056776D01*
X87615813Y-101057818D01*
X87568535Y-101063234D01*
X87515705Y-101068073D01*
X87441648Y-101072155D01*
X87355191Y-101075118D01*
X87265163Y-101076597D01*
X87241485Y-101076694D01*
X87151122Y-101076330D01*
X87084989Y-101074576D01*
X87037267Y-101070823D01*
X87002138Y-101064463D01*
X86973782Y-101054887D01*
X86956741Y-101046911D01*
X86919296Y-101024765D01*
X86895421Y-101004708D01*
X86891932Y-100999023D01*
X86899293Y-100975545D01*
X86934287Y-100952817D01*
X86994488Y-100931870D01*
X87077471Y-100913736D01*
X87101920Y-100909697D01*
X87229622Y-100889639D01*
X87331540Y-100872874D01*
X87411606Y-100858183D01*
X87473754Y-100844348D01*
X87521918Y-100830151D01*
X87560032Y-100814373D01*
X87592030Y-100795796D01*
X87621844Y-100773202D01*
X87653410Y-100745373D01*
X87664032Y-100735616D01*
X87701273Y-100699202D01*
X87720987Y-100670352D01*
X87728699Y-100637338D01*
X87729947Y-100595735D01*
X87716215Y-100514151D01*
X87675178Y-100444834D01*
X87607070Y-100388008D01*
X87512127Y-100343897D01*
X87444384Y-100324112D01*
X87370759Y-100311333D01*
X87282561Y-100304104D01*
X87185176Y-100302015D01*
X87083988Y-100304657D01*
G36*
X86061663Y-100333006D02*
X86052901Y-100343088D01*
X86046028Y-100356095D01*
X86040815Y-100375511D01*
X86037034Y-100404820D01*
X86034456Y-100447507D01*
X86032853Y-100507055D01*
X86031995Y-100586950D01*
X86031656Y-100690676D01*
X86031603Y-100791408D01*
X86031696Y-100916352D01*
X86032127Y-101014721D01*
X86033123Y-101090001D01*
X86034915Y-101145674D01*
X86037729Y-101185226D01*
X86041796Y-101212141D01*
X86047342Y-101229903D01*
X86054597Y-101241997D01*
X86061663Y-101249810D01*
X86105602Y-101276012D01*
X86152420Y-101273661D01*
X86194309Y-101245084D01*
X86203934Y-101233927D01*
X86211455Y-101220983D01*
X86217134Y-101202672D01*
X86221227Y-101175418D01*
X86223995Y-101135640D01*
X86225696Y-101079762D01*
X86226589Y-101004204D01*
X86226933Y-100905388D01*
X86226988Y-100793514D01*
X86226988Y-100376728D01*
X86190097Y-100339837D01*
X86144625Y-100308800D01*
X86100516Y-100307681D01*
X86061663Y-100333006D01*
X86061663Y-100333006D01*
G37*
X86061663Y-100333006D02*
X86052901Y-100343088D01*
X86046028Y-100356095D01*
X86040815Y-100375511D01*
X86037034Y-100404820D01*
X86034456Y-100447507D01*
X86032853Y-100507055D01*
X86031995Y-100586950D01*
X86031656Y-100690676D01*
X86031603Y-100791408D01*
X86031696Y-100916352D01*
X86032127Y-101014721D01*
X86033123Y-101090001D01*
X86034915Y-101145674D01*
X86037729Y-101185226D01*
X86041796Y-101212141D01*
X86047342Y-101229903D01*
X86054597Y-101241997D01*
X86061663Y-101249810D01*
X86105602Y-101276012D01*
X86152420Y-101273661D01*
X86194309Y-101245084D01*
X86203934Y-101233927D01*
X86211455Y-101220983D01*
X86217134Y-101202672D01*
X86221227Y-101175418D01*
X86223995Y-101135640D01*
X86225696Y-101079762D01*
X86226589Y-101004204D01*
X86226933Y-100905388D01*
X86226988Y-100793514D01*
X86226988Y-100376728D01*
X86190097Y-100339837D01*
X86144625Y-100308800D01*
X86100516Y-100307681D01*
X86061663Y-100333006D01*
G36*
X84765262Y-100310312D02*
X84674041Y-100325618D01*
X84603982Y-100349411D01*
X84558404Y-100380740D01*
X84545984Y-100398614D01*
X84533354Y-100440185D01*
X84541853Y-100477792D01*
X84568685Y-100513455D01*
X84610376Y-100530139D01*
X84670870Y-100528784D01*
X84717659Y-100519745D01*
X84821628Y-100502523D01*
X84927880Y-100500887D01*
X85046809Y-100514865D01*
X85079660Y-100520788D01*
X85190245Y-100551967D01*
X85276759Y-100598346D01*
X85338253Y-100659135D01*
X85373778Y-100733544D01*
X85381125Y-100772014D01*
X85376316Y-100850063D01*
X85345266Y-100919117D01*
X85290806Y-100977829D01*
X85215764Y-101024853D01*
X85122970Y-101058843D01*
X85015252Y-101078454D01*
X84895441Y-101082341D01*
X84766365Y-101069156D01*
X84759077Y-101067912D01*
X84707738Y-101058350D01*
X84679272Y-101049114D01*
X84666934Y-101035409D01*
X84663978Y-101012442D01*
X84663911Y-101000279D01*
X84663911Y-100949219D01*
X84755077Y-100949219D01*
X84835582Y-100943704D01*
X84890521Y-100926130D01*
X84922486Y-100894953D01*
X84934072Y-100848630D01*
X84934213Y-100842584D01*
X84927435Y-100802989D01*
X84904191Y-100774717D01*
X84860930Y-100756007D01*
X84794101Y-100745100D01*
X84729370Y-100741090D01*
X84635287Y-100738789D01*
X84567044Y-100742300D01*
X84520501Y-100755255D01*
X84491518Y-100781286D01*
X84475955Y-100824027D01*
X84469671Y-100887110D01*
X84468526Y-100969964D01*
X84470402Y-101062446D01*
X84476046Y-101125354D01*
X84485482Y-101158939D01*
X84487313Y-101161569D01*
X84539125Y-101203534D01*
X84615090Y-101236768D01*
X84710392Y-101260559D01*
X84820216Y-101274199D01*
X84939746Y-101276978D01*
X85064166Y-101268185D01*
X85137343Y-101257385D01*
X85252120Y-101224898D01*
X85358796Y-101171786D01*
X85448111Y-101102855D01*
X85461686Y-101089078D01*
X85505792Y-101031158D01*
X85545589Y-100959376D01*
X85576427Y-100884119D01*
X85593657Y-100815777D01*
X85595734Y-100789529D01*
X85586893Y-100734777D01*
X85563395Y-100666655D01*
X85529749Y-100594950D01*
X85490464Y-100529449D01*
X85455755Y-100485698D01*
X85374603Y-100420619D01*
X85269698Y-100368821D01*
X85144800Y-100331474D01*
X85003667Y-100309753D01*
X84874325Y-100304445D01*
X84765262Y-100310312D01*
X84765262Y-100310312D01*
G37*
X84765262Y-100310312D02*
X84674041Y-100325618D01*
X84603982Y-100349411D01*
X84558404Y-100380740D01*
X84545984Y-100398614D01*
X84533354Y-100440185D01*
X84541853Y-100477792D01*
X84568685Y-100513455D01*
X84610376Y-100530139D01*
X84670870Y-100528784D01*
X84717659Y-100519745D01*
X84821628Y-100502523D01*
X84927880Y-100500887D01*
X85046809Y-100514865D01*
X85079660Y-100520788D01*
X85190245Y-100551967D01*
X85276759Y-100598346D01*
X85338253Y-100659135D01*
X85373778Y-100733544D01*
X85381125Y-100772014D01*
X85376316Y-100850063D01*
X85345266Y-100919117D01*
X85290806Y-100977829D01*
X85215764Y-101024853D01*
X85122970Y-101058843D01*
X85015252Y-101078454D01*
X84895441Y-101082341D01*
X84766365Y-101069156D01*
X84759077Y-101067912D01*
X84707738Y-101058350D01*
X84679272Y-101049114D01*
X84666934Y-101035409D01*
X84663978Y-101012442D01*
X84663911Y-101000279D01*
X84663911Y-100949219D01*
X84755077Y-100949219D01*
X84835582Y-100943704D01*
X84890521Y-100926130D01*
X84922486Y-100894953D01*
X84934072Y-100848630D01*
X84934213Y-100842584D01*
X84927435Y-100802989D01*
X84904191Y-100774717D01*
X84860930Y-100756007D01*
X84794101Y-100745100D01*
X84729370Y-100741090D01*
X84635287Y-100738789D01*
X84567044Y-100742300D01*
X84520501Y-100755255D01*
X84491518Y-100781286D01*
X84475955Y-100824027D01*
X84469671Y-100887110D01*
X84468526Y-100969964D01*
X84470402Y-101062446D01*
X84476046Y-101125354D01*
X84485482Y-101158939D01*
X84487313Y-101161569D01*
X84539125Y-101203534D01*
X84615090Y-101236768D01*
X84710392Y-101260559D01*
X84820216Y-101274199D01*
X84939746Y-101276978D01*
X85064166Y-101268185D01*
X85137343Y-101257385D01*
X85252120Y-101224898D01*
X85358796Y-101171786D01*
X85448111Y-101102855D01*
X85461686Y-101089078D01*
X85505792Y-101031158D01*
X85545589Y-100959376D01*
X85576427Y-100884119D01*
X85593657Y-100815777D01*
X85595734Y-100789529D01*
X85586893Y-100734777D01*
X85563395Y-100666655D01*
X85529749Y-100594950D01*
X85490464Y-100529449D01*
X85455755Y-100485698D01*
X85374603Y-100420619D01*
X85269698Y-100368821D01*
X85144800Y-100331474D01*
X85003667Y-100309753D01*
X84874325Y-100304445D01*
X84765262Y-100310312D01*
G36*
X83899920Y-100308780D02*
X83868545Y-100327185D01*
X83827522Y-100357285D01*
X83774724Y-100400496D01*
X83708025Y-100458238D01*
X83625299Y-100531928D01*
X83524420Y-100622984D01*
X83408941Y-100727674D01*
X83168467Y-100945743D01*
X83160952Y-100653044D01*
X83158239Y-100552290D01*
X83155622Y-100477258D01*
X83152520Y-100423620D01*
X83148356Y-100387046D01*
X83142551Y-100363207D01*
X83134524Y-100347774D01*
X83123697Y-100336418D01*
X83117956Y-100331646D01*
X83071983Y-100306413D01*
X83028237Y-100310102D01*
X82993535Y-100331659D01*
X82958053Y-100360371D01*
X82953640Y-100779686D01*
X82952419Y-100903007D01*
X82951797Y-100999884D01*
X82951990Y-101073930D01*
X82953214Y-101128757D01*
X82955684Y-101167979D01*
X82959614Y-101195209D01*
X82965220Y-101214059D01*
X82972718Y-101228141D01*
X82981033Y-101239435D01*
X82999022Y-101260382D01*
X83016921Y-101274267D01*
X83037212Y-101279596D01*
X83062378Y-101274876D01*
X83094900Y-101258613D01*
X83137263Y-101229313D01*
X83191948Y-101185482D01*
X83261437Y-101125627D01*
X83348215Y-101048254D01*
X83446515Y-100959350D01*
X83799710Y-100638971D01*
X83807225Y-100930713D01*
X83809943Y-101031283D01*
X83812567Y-101106140D01*
X83815679Y-101159620D01*
X83819862Y-101196062D01*
X83825697Y-101219804D01*
X83833766Y-101235182D01*
X83844651Y-101246536D01*
X83850221Y-101251162D01*
X83899456Y-101276578D01*
X83945977Y-101272745D01*
X83986489Y-101240269D01*
X83995756Y-101227203D01*
X84002979Y-101211945D01*
X84008412Y-101190832D01*
X84012308Y-101160205D01*
X84014921Y-101116402D01*
X84016507Y-101055763D01*
X84017318Y-100974627D01*
X84017608Y-100869333D01*
X84017639Y-100791408D01*
X84017541Y-100669524D01*
X84017079Y-100574039D01*
X84015997Y-100501291D01*
X84014043Y-100447619D01*
X84010962Y-100409363D01*
X84006500Y-100382863D01*
X84000403Y-100364456D01*
X83992417Y-100350484D01*
X83986489Y-100342547D01*
X83971462Y-100323748D01*
X83957418Y-100309553D01*
X83942230Y-100301382D01*
X83923773Y-100300652D01*
X83899920Y-100308780D01*
X83899920Y-100308780D01*
G37*
X83899920Y-100308780D02*
X83868545Y-100327185D01*
X83827522Y-100357285D01*
X83774724Y-100400496D01*
X83708025Y-100458238D01*
X83625299Y-100531928D01*
X83524420Y-100622984D01*
X83408941Y-100727674D01*
X83168467Y-100945743D01*
X83160952Y-100653044D01*
X83158239Y-100552290D01*
X83155622Y-100477258D01*
X83152520Y-100423620D01*
X83148356Y-100387046D01*
X83142551Y-100363207D01*
X83134524Y-100347774D01*
X83123697Y-100336418D01*
X83117956Y-100331646D01*
X83071983Y-100306413D01*
X83028237Y-100310102D01*
X82993535Y-100331659D01*
X82958053Y-100360371D01*
X82953640Y-100779686D01*
X82952419Y-100903007D01*
X82951797Y-100999884D01*
X82951990Y-101073930D01*
X82953214Y-101128757D01*
X82955684Y-101167979D01*
X82959614Y-101195209D01*
X82965220Y-101214059D01*
X82972718Y-101228141D01*
X82981033Y-101239435D01*
X82999022Y-101260382D01*
X83016921Y-101274267D01*
X83037212Y-101279596D01*
X83062378Y-101274876D01*
X83094900Y-101258613D01*
X83137263Y-101229313D01*
X83191948Y-101185482D01*
X83261437Y-101125627D01*
X83348215Y-101048254D01*
X83446515Y-100959350D01*
X83799710Y-100638971D01*
X83807225Y-100930713D01*
X83809943Y-101031283D01*
X83812567Y-101106140D01*
X83815679Y-101159620D01*
X83819862Y-101196062D01*
X83825697Y-101219804D01*
X83833766Y-101235182D01*
X83844651Y-101246536D01*
X83850221Y-101251162D01*
X83899456Y-101276578D01*
X83945977Y-101272745D01*
X83986489Y-101240269D01*
X83995756Y-101227203D01*
X84002979Y-101211945D01*
X84008412Y-101190832D01*
X84012308Y-101160205D01*
X84014921Y-101116402D01*
X84016507Y-101055763D01*
X84017318Y-100974627D01*
X84017608Y-100869333D01*
X84017639Y-100791408D01*
X84017541Y-100669524D01*
X84017079Y-100574039D01*
X84015997Y-100501291D01*
X84014043Y-100447619D01*
X84010962Y-100409363D01*
X84006500Y-100382863D01*
X84000403Y-100364456D01*
X83992417Y-100350484D01*
X83986489Y-100342547D01*
X83971462Y-100323748D01*
X83957418Y-100309553D01*
X83942230Y-100301382D01*
X83923773Y-100300652D01*
X83899920Y-100308780D01*
G36*
X81862330Y-100303203D02*
X81760669Y-100304420D01*
X81682764Y-100307266D01*
X81625465Y-100312410D01*
X81585619Y-100320520D01*
X81560078Y-100332267D01*
X81545689Y-100348318D01*
X81539301Y-100369344D01*
X81537765Y-100396012D01*
X81537757Y-100399162D01*
X81539091Y-100429326D01*
X81545395Y-100452639D01*
X81560124Y-100470042D01*
X81586731Y-100482476D01*
X81628672Y-100490881D01*
X81689400Y-100496201D01*
X81772370Y-100499375D01*
X81881035Y-100501345D01*
X81914341Y-100501781D01*
X82236633Y-100505846D01*
X82241140Y-100592266D01*
X82245648Y-100678686D01*
X82021783Y-100678686D01*
X81934325Y-100679009D01*
X81871877Y-100680373D01*
X81829392Y-100683375D01*
X81801823Y-100688609D01*
X81784124Y-100696671D01*
X81771249Y-100708156D01*
X81771166Y-100708247D01*
X81747816Y-100753007D01*
X81748660Y-100801383D01*
X81773167Y-100842622D01*
X81778017Y-100846861D01*
X81795231Y-100857785D01*
X81818820Y-100865385D01*
X81854039Y-100870233D01*
X81906146Y-100872902D01*
X81980396Y-100873964D01*
X82027884Y-100874071D01*
X82244148Y-100874071D01*
X82244148Y-101084485D01*
X81915826Y-101084485D01*
X81807428Y-101084675D01*
X81725111Y-101085450D01*
X81664897Y-101087120D01*
X81622811Y-101089994D01*
X81594875Y-101094383D01*
X81577112Y-101100595D01*
X81565546Y-101108940D01*
X81562631Y-101111970D01*
X81541110Y-101153970D01*
X81539536Y-101201750D01*
X81557191Y-101243178D01*
X81571161Y-101256473D01*
X81585692Y-101263792D01*
X81608208Y-101269455D01*
X81642270Y-101273659D01*
X81691439Y-101276604D01*
X81759278Y-101278487D01*
X81849348Y-101279506D01*
X81965209Y-101279861D01*
X81991403Y-101279870D01*
X82109207Y-101279792D01*
X82200650Y-101279367D01*
X82269432Y-101278302D01*
X82319250Y-101276305D01*
X82353806Y-101273086D01*
X82376796Y-101268352D01*
X82391920Y-101261813D01*
X82402877Y-101253177D01*
X82408888Y-101246976D01*
X82417936Y-101235993D01*
X82425004Y-101222388D01*
X82430337Y-101202592D01*
X82434178Y-101173038D01*
X82436771Y-101130157D01*
X82438359Y-101070381D01*
X82439185Y-100990143D01*
X82439494Y-100885875D01*
X82439532Y-100798116D01*
X82439438Y-100675144D01*
X82438989Y-100578605D01*
X82437938Y-100504875D01*
X82436036Y-100450326D01*
X82433037Y-100411335D01*
X82428691Y-100384275D01*
X82422752Y-100365520D01*
X82414971Y-100351446D01*
X82408382Y-100342547D01*
X82377232Y-100302946D01*
X81990898Y-100302946D01*
X81862330Y-100303203D01*
X81862330Y-100303203D01*
G37*
X81862330Y-100303203D02*
X81760669Y-100304420D01*
X81682764Y-100307266D01*
X81625465Y-100312410D01*
X81585619Y-100320520D01*
X81560078Y-100332267D01*
X81545689Y-100348318D01*
X81539301Y-100369344D01*
X81537765Y-100396012D01*
X81537757Y-100399162D01*
X81539091Y-100429326D01*
X81545395Y-100452639D01*
X81560124Y-100470042D01*
X81586731Y-100482476D01*
X81628672Y-100490881D01*
X81689400Y-100496201D01*
X81772370Y-100499375D01*
X81881035Y-100501345D01*
X81914341Y-100501781D01*
X82236633Y-100505846D01*
X82241140Y-100592266D01*
X82245648Y-100678686D01*
X82021783Y-100678686D01*
X81934325Y-100679009D01*
X81871877Y-100680373D01*
X81829392Y-100683375D01*
X81801823Y-100688609D01*
X81784124Y-100696671D01*
X81771249Y-100708156D01*
X81771166Y-100708247D01*
X81747816Y-100753007D01*
X81748660Y-100801383D01*
X81773167Y-100842622D01*
X81778017Y-100846861D01*
X81795231Y-100857785D01*
X81818820Y-100865385D01*
X81854039Y-100870233D01*
X81906146Y-100872902D01*
X81980396Y-100873964D01*
X82027884Y-100874071D01*
X82244148Y-100874071D01*
X82244148Y-101084485D01*
X81915826Y-101084485D01*
X81807428Y-101084675D01*
X81725111Y-101085450D01*
X81664897Y-101087120D01*
X81622811Y-101089994D01*
X81594875Y-101094383D01*
X81577112Y-101100595D01*
X81565546Y-101108940D01*
X81562631Y-101111970D01*
X81541110Y-101153970D01*
X81539536Y-101201750D01*
X81557191Y-101243178D01*
X81571161Y-101256473D01*
X81585692Y-101263792D01*
X81608208Y-101269455D01*
X81642270Y-101273659D01*
X81691439Y-101276604D01*
X81759278Y-101278487D01*
X81849348Y-101279506D01*
X81965209Y-101279861D01*
X81991403Y-101279870D01*
X82109207Y-101279792D01*
X82200650Y-101279367D01*
X82269432Y-101278302D01*
X82319250Y-101276305D01*
X82353806Y-101273086D01*
X82376796Y-101268352D01*
X82391920Y-101261813D01*
X82402877Y-101253177D01*
X82408888Y-101246976D01*
X82417936Y-101235993D01*
X82425004Y-101222388D01*
X82430337Y-101202592D01*
X82434178Y-101173038D01*
X82436771Y-101130157D01*
X82438359Y-101070381D01*
X82439185Y-100990143D01*
X82439494Y-100885875D01*
X82439532Y-100798116D01*
X82439438Y-100675144D01*
X82438989Y-100578605D01*
X82437938Y-100504875D01*
X82436036Y-100450326D01*
X82433037Y-100411335D01*
X82428691Y-100384275D01*
X82422752Y-100365520D01*
X82414971Y-100351446D01*
X82408382Y-100342547D01*
X82377232Y-100302946D01*
X81990898Y-100302946D01*
X81862330Y-100303203D01*
G36*
X80813263Y-100303223D02*
X80641545Y-100309029D01*
X80495491Y-100326637D01*
X80372693Y-100357099D01*
X80270743Y-100401471D01*
X80187232Y-100460807D01*
X80119753Y-100536160D01*
X80065897Y-100628586D01*
X80064838Y-100630840D01*
X80032697Y-100713560D01*
X80021245Y-100786820D01*
X80030526Y-100860548D01*
X80060585Y-100944671D01*
X80066285Y-100957473D01*
X80105161Y-101032398D01*
X80148851Y-101090293D01*
X80205240Y-101139508D01*
X80282208Y-101188393D01*
X80286680Y-101190945D01*
X80353683Y-101223131D01*
X80429415Y-101247168D01*
X80518742Y-101263887D01*
X80626531Y-101274115D01*
X80757648Y-101278682D01*
X80803974Y-101279079D01*
X81024570Y-101279870D01*
X81055720Y-101240269D01*
X81064960Y-101227247D01*
X81072168Y-101212040D01*
X81077596Y-101191002D01*
X81081495Y-101160486D01*
X81084117Y-101116847D01*
X81084972Y-101084485D01*
X80876455Y-101084485D01*
X80751464Y-101084485D01*
X80678323Y-101082346D01*
X80603239Y-101076717D01*
X80541616Y-101068779D01*
X80537897Y-101068111D01*
X80428447Y-101038748D01*
X80343552Y-100994633D01*
X80280528Y-100933719D01*
X80236686Y-100853960D01*
X80229063Y-100832820D01*
X80221590Y-100799898D01*
X80224825Y-100767372D01*
X80240567Y-100724100D01*
X80250056Y-100702843D01*
X80281129Y-100646356D01*
X80318567Y-100606727D01*
X80359759Y-100579130D01*
X80442270Y-100543218D01*
X80547867Y-100517204D01*
X80670882Y-100502224D01*
X80759976Y-100498928D01*
X80876455Y-100498331D01*
X80876455Y-101084485D01*
X81084972Y-101084485D01*
X81085714Y-101056436D01*
X81086536Y-100975608D01*
X81086836Y-100870717D01*
X81086870Y-100788698D01*
X81086870Y-100376728D01*
X81049979Y-100339837D01*
X81033606Y-100324884D01*
X81015903Y-100314644D01*
X80991181Y-100308237D01*
X80953752Y-100304783D01*
X80897927Y-100303403D01*
X80818018Y-100303217D01*
X80813263Y-100303223D01*
X80813263Y-100303223D01*
G37*
X80813263Y-100303223D02*
X80641545Y-100309029D01*
X80495491Y-100326637D01*
X80372693Y-100357099D01*
X80270743Y-100401471D01*
X80187232Y-100460807D01*
X80119753Y-100536160D01*
X80065897Y-100628586D01*
X80064838Y-100630840D01*
X80032697Y-100713560D01*
X80021245Y-100786820D01*
X80030526Y-100860548D01*
X80060585Y-100944671D01*
X80066285Y-100957473D01*
X80105161Y-101032398D01*
X80148851Y-101090293D01*
X80205240Y-101139508D01*
X80282208Y-101188393D01*
X80286680Y-101190945D01*
X80353683Y-101223131D01*
X80429415Y-101247168D01*
X80518742Y-101263887D01*
X80626531Y-101274115D01*
X80757648Y-101278682D01*
X80803974Y-101279079D01*
X81024570Y-101279870D01*
X81055720Y-101240269D01*
X81064960Y-101227247D01*
X81072168Y-101212040D01*
X81077596Y-101191002D01*
X81081495Y-101160486D01*
X81084117Y-101116847D01*
X81084972Y-101084485D01*
X80876455Y-101084485D01*
X80751464Y-101084485D01*
X80678323Y-101082346D01*
X80603239Y-101076717D01*
X80541616Y-101068779D01*
X80537897Y-101068111D01*
X80428447Y-101038748D01*
X80343552Y-100994633D01*
X80280528Y-100933719D01*
X80236686Y-100853960D01*
X80229063Y-100832820D01*
X80221590Y-100799898D01*
X80224825Y-100767372D01*
X80240567Y-100724100D01*
X80250056Y-100702843D01*
X80281129Y-100646356D01*
X80318567Y-100606727D01*
X80359759Y-100579130D01*
X80442270Y-100543218D01*
X80547867Y-100517204D01*
X80670882Y-100502224D01*
X80759976Y-100498928D01*
X80876455Y-100498331D01*
X80876455Y-101084485D01*
X81084972Y-101084485D01*
X81085714Y-101056436D01*
X81086536Y-100975608D01*
X81086836Y-100870717D01*
X81086870Y-100788698D01*
X81086870Y-100376728D01*
X81049979Y-100339837D01*
X81033606Y-100324884D01*
X81015903Y-100314644D01*
X80991181Y-100308237D01*
X80953752Y-100304783D01*
X80897927Y-100303403D01*
X80818018Y-100303217D01*
X80813263Y-100303223D01*
G36*
X77183499Y-100305566D02*
X77157418Y-100314886D01*
X77156412Y-100315342D01*
X77120994Y-100342370D01*
X77101480Y-100370172D01*
X77097662Y-100383208D01*
X77097851Y-100400528D01*
X77103224Y-100425203D01*
X77114958Y-100460300D01*
X77134233Y-100508889D01*
X77162224Y-100574038D01*
X77200110Y-100658817D01*
X77249068Y-100766295D01*
X77276015Y-100825039D01*
X77324676Y-100929909D01*
X77370356Y-101026350D01*
X77411312Y-101110834D01*
X77445800Y-101179836D01*
X77472077Y-101229830D01*
X77488400Y-101257290D01*
X77491630Y-101261083D01*
X77532957Y-101277816D01*
X77579637Y-101275575D01*
X77617076Y-101255223D01*
X77618602Y-101253568D01*
X77633495Y-101231022D01*
X77658477Y-101187107D01*
X77690467Y-101127476D01*
X77726386Y-101057782D01*
X77739294Y-101032099D01*
X77836732Y-100836933D01*
X77942940Y-101048943D01*
X77980849Y-101122197D01*
X78016019Y-101185726D01*
X78045578Y-101234667D01*
X78066652Y-101264158D01*
X78073794Y-101270412D01*
X78129308Y-101278881D01*
X78175117Y-101261083D01*
X78188592Y-101242061D01*
X78211910Y-101199785D01*
X78243169Y-101138416D01*
X78280466Y-101062112D01*
X78321900Y-100975035D01*
X78365568Y-100881343D01*
X78409568Y-100785197D01*
X78451998Y-100690757D01*
X78490956Y-100602181D01*
X78524539Y-100523632D01*
X78550845Y-100459267D01*
X78567972Y-100413247D01*
X78574017Y-100389733D01*
X78573955Y-100388881D01*
X78559246Y-100359292D01*
X78529844Y-100329156D01*
X78528113Y-100327844D01*
X78491976Y-100307418D01*
X78458552Y-100307616D01*
X78446024Y-100311467D01*
X78430759Y-100319789D01*
X78414548Y-100336161D01*
X78395447Y-100363978D01*
X78371511Y-100406636D01*
X78340795Y-100467531D01*
X78301355Y-100550061D01*
X78265788Y-100626243D01*
X78224869Y-100714550D01*
X78188202Y-100793962D01*
X78157692Y-100860332D01*
X78135244Y-100909511D01*
X78122763Y-100937349D01*
X78120943Y-100941704D01*
X78112756Y-100934585D01*
X78093941Y-100904777D01*
X78067000Y-100856632D01*
X78034438Y-100794499D01*
X78021480Y-100768864D01*
X77977586Y-100682301D01*
X77943735Y-100619261D01*
X77917149Y-100576078D01*
X77895051Y-100549088D01*
X77874662Y-100534624D01*
X77853206Y-100529023D01*
X77839223Y-100528390D01*
X77814558Y-100530576D01*
X77792944Y-100539615D01*
X77771468Y-100559233D01*
X77747216Y-100593153D01*
X77717276Y-100645098D01*
X77678733Y-100718794D01*
X77657468Y-100760716D01*
X77622974Y-100827530D01*
X77592890Y-100882937D01*
X77569869Y-100922263D01*
X77556566Y-100940832D01*
X77554757Y-100941605D01*
X77546166Y-100926991D01*
X77526932Y-100889043D01*
X77498981Y-100831732D01*
X77464239Y-100759032D01*
X77424633Y-100674912D01*
X77405150Y-100633130D01*
X77354466Y-100525299D01*
X77313653Y-100442326D01*
X77280592Y-100381502D01*
X77253165Y-100340121D01*
X77229254Y-100315476D01*
X77206738Y-100304860D01*
X77183499Y-100305566D01*
X77183499Y-100305566D01*
G37*
X77183499Y-100305566D02*
X77157418Y-100314886D01*
X77156412Y-100315342D01*
X77120994Y-100342370D01*
X77101480Y-100370172D01*
X77097662Y-100383208D01*
X77097851Y-100400528D01*
X77103224Y-100425203D01*
X77114958Y-100460300D01*
X77134233Y-100508889D01*
X77162224Y-100574038D01*
X77200110Y-100658817D01*
X77249068Y-100766295D01*
X77276015Y-100825039D01*
X77324676Y-100929909D01*
X77370356Y-101026350D01*
X77411312Y-101110834D01*
X77445800Y-101179836D01*
X77472077Y-101229830D01*
X77488400Y-101257290D01*
X77491630Y-101261083D01*
X77532957Y-101277816D01*
X77579637Y-101275575D01*
X77617076Y-101255223D01*
X77618602Y-101253568D01*
X77633495Y-101231022D01*
X77658477Y-101187107D01*
X77690467Y-101127476D01*
X77726386Y-101057782D01*
X77739294Y-101032099D01*
X77836732Y-100836933D01*
X77942940Y-101048943D01*
X77980849Y-101122197D01*
X78016019Y-101185726D01*
X78045578Y-101234667D01*
X78066652Y-101264158D01*
X78073794Y-101270412D01*
X78129308Y-101278881D01*
X78175117Y-101261083D01*
X78188592Y-101242061D01*
X78211910Y-101199785D01*
X78243169Y-101138416D01*
X78280466Y-101062112D01*
X78321900Y-100975035D01*
X78365568Y-100881343D01*
X78409568Y-100785197D01*
X78451998Y-100690757D01*
X78490956Y-100602181D01*
X78524539Y-100523632D01*
X78550845Y-100459267D01*
X78567972Y-100413247D01*
X78574017Y-100389733D01*
X78573955Y-100388881D01*
X78559246Y-100359292D01*
X78529844Y-100329156D01*
X78528113Y-100327844D01*
X78491976Y-100307418D01*
X78458552Y-100307616D01*
X78446024Y-100311467D01*
X78430759Y-100319789D01*
X78414548Y-100336161D01*
X78395447Y-100363978D01*
X78371511Y-100406636D01*
X78340795Y-100467531D01*
X78301355Y-100550061D01*
X78265788Y-100626243D01*
X78224869Y-100714550D01*
X78188202Y-100793962D01*
X78157692Y-100860332D01*
X78135244Y-100909511D01*
X78122763Y-100937349D01*
X78120943Y-100941704D01*
X78112756Y-100934585D01*
X78093941Y-100904777D01*
X78067000Y-100856632D01*
X78034438Y-100794499D01*
X78021480Y-100768864D01*
X77977586Y-100682301D01*
X77943735Y-100619261D01*
X77917149Y-100576078D01*
X77895051Y-100549088D01*
X77874662Y-100534624D01*
X77853206Y-100529023D01*
X77839223Y-100528390D01*
X77814558Y-100530576D01*
X77792944Y-100539615D01*
X77771468Y-100559233D01*
X77747216Y-100593153D01*
X77717276Y-100645098D01*
X77678733Y-100718794D01*
X77657468Y-100760716D01*
X77622974Y-100827530D01*
X77592890Y-100882937D01*
X77569869Y-100922263D01*
X77556566Y-100940832D01*
X77554757Y-100941605D01*
X77546166Y-100926991D01*
X77526932Y-100889043D01*
X77498981Y-100831732D01*
X77464239Y-100759032D01*
X77424633Y-100674912D01*
X77405150Y-100633130D01*
X77354466Y-100525299D01*
X77313653Y-100442326D01*
X77280592Y-100381502D01*
X77253165Y-100340121D01*
X77229254Y-100315476D01*
X77206738Y-100304860D01*
X77183499Y-100305566D01*
G36*
X76592442Y-100312013D02*
X76560872Y-100331678D01*
X76525390Y-100360409D01*
X76525390Y-100788502D01*
X76525503Y-100913726D01*
X76525987Y-101012383D01*
X76527060Y-101087966D01*
X76528938Y-101143969D01*
X76531840Y-101183883D01*
X76535983Y-101211202D01*
X76541584Y-101229417D01*
X76548861Y-101242022D01*
X76554022Y-101248232D01*
X76595878Y-101275516D01*
X76643541Y-101274403D01*
X76685293Y-101251138D01*
X76720775Y-101222407D01*
X76720775Y-100360409D01*
X76685293Y-100331678D01*
X76651048Y-100310778D01*
X76623083Y-100302946D01*
X76592442Y-100312013D01*
X76592442Y-100312013D01*
G37*
X76592442Y-100312013D02*
X76560872Y-100331678D01*
X76525390Y-100360409D01*
X76525390Y-100788502D01*
X76525503Y-100913726D01*
X76525987Y-101012383D01*
X76527060Y-101087966D01*
X76528938Y-101143969D01*
X76531840Y-101183883D01*
X76535983Y-101211202D01*
X76541584Y-101229417D01*
X76548861Y-101242022D01*
X76554022Y-101248232D01*
X76595878Y-101275516D01*
X76643541Y-101274403D01*
X76685293Y-101251138D01*
X76720775Y-101222407D01*
X76720775Y-100360409D01*
X76685293Y-100331678D01*
X76651048Y-100310778D01*
X76623083Y-100302946D01*
X76592442Y-100312013D01*
G36*
X75561369Y-100303075D02*
X75456581Y-100303579D01*
X75375247Y-100304632D01*
X75314066Y-100306412D01*
X75269735Y-100309093D01*
X75238952Y-100312850D01*
X75218415Y-100317861D01*
X75204821Y-100324299D01*
X75198243Y-100329248D01*
X75164102Y-100372565D01*
X75159972Y-100417539D01*
X75181070Y-100458396D01*
X75194867Y-100474722D01*
X75209714Y-100485854D01*
X75231231Y-100492786D01*
X75265038Y-100496513D01*
X75316754Y-100498030D01*
X75391999Y-100498330D01*
X75406777Y-100498331D01*
X75601071Y-100498331D01*
X75601071Y-100859041D01*
X75601199Y-100972737D01*
X75601780Y-101060221D01*
X75603110Y-101125338D01*
X75605486Y-101171934D01*
X75609202Y-101203855D01*
X75614554Y-101224948D01*
X75621839Y-101239059D01*
X75631130Y-101249810D01*
X75674975Y-101276232D01*
X75720746Y-101274150D01*
X75762256Y-101244005D01*
X75765305Y-101240269D01*
X75775234Y-101226146D01*
X75782798Y-101209622D01*
X75788317Y-101186682D01*
X75792113Y-101153309D01*
X75794504Y-101105491D01*
X75795812Y-101039210D01*
X75796355Y-100950454D01*
X75796455Y-100849499D01*
X75796455Y-100498331D01*
X75981996Y-100498331D01*
X76061619Y-100497792D01*
X76116742Y-100495693D01*
X76152914Y-100491307D01*
X76175684Y-100483912D01*
X76190599Y-100472781D01*
X76192410Y-100470846D01*
X76214188Y-100426593D01*
X76212262Y-100376565D01*
X76187225Y-100333006D01*
X76177542Y-100324556D01*
X76165058Y-100317857D01*
X76146443Y-100312705D01*
X76118369Y-100308897D01*
X76077505Y-100306233D01*
X76020524Y-100304508D01*
X75944094Y-100303520D01*
X75844889Y-100303068D01*
X75719577Y-100302948D01*
X75692913Y-100302946D01*
X75561369Y-100303075D01*
X75561369Y-100303075D01*
G37*
X75561369Y-100303075D02*
X75456581Y-100303579D01*
X75375247Y-100304632D01*
X75314066Y-100306412D01*
X75269735Y-100309093D01*
X75238952Y-100312850D01*
X75218415Y-100317861D01*
X75204821Y-100324299D01*
X75198243Y-100329248D01*
X75164102Y-100372565D01*
X75159972Y-100417539D01*
X75181070Y-100458396D01*
X75194867Y-100474722D01*
X75209714Y-100485854D01*
X75231231Y-100492786D01*
X75265038Y-100496513D01*
X75316754Y-100498030D01*
X75391999Y-100498330D01*
X75406777Y-100498331D01*
X75601071Y-100498331D01*
X75601071Y-100859041D01*
X75601199Y-100972737D01*
X75601780Y-101060221D01*
X75603110Y-101125338D01*
X75605486Y-101171934D01*
X75609202Y-101203855D01*
X75614554Y-101224948D01*
X75621839Y-101239059D01*
X75631130Y-101249810D01*
X75674975Y-101276232D01*
X75720746Y-101274150D01*
X75762256Y-101244005D01*
X75765305Y-101240269D01*
X75775234Y-101226146D01*
X75782798Y-101209622D01*
X75788317Y-101186682D01*
X75792113Y-101153309D01*
X75794504Y-101105491D01*
X75795812Y-101039210D01*
X75796355Y-100950454D01*
X75796455Y-100849499D01*
X75796455Y-100498331D01*
X75981996Y-100498331D01*
X76061619Y-100497792D01*
X76116742Y-100495693D01*
X76152914Y-100491307D01*
X76175684Y-100483912D01*
X76190599Y-100472781D01*
X76192410Y-100470846D01*
X76214188Y-100426593D01*
X76212262Y-100376565D01*
X76187225Y-100333006D01*
X76177542Y-100324556D01*
X76165058Y-100317857D01*
X76146443Y-100312705D01*
X76118369Y-100308897D01*
X76077505Y-100306233D01*
X76020524Y-100304508D01*
X75944094Y-100303520D01*
X75844889Y-100303068D01*
X75719577Y-100302948D01*
X75692913Y-100302946D01*
X75561369Y-100303075D01*
G36*
X73876187Y-100310224D02*
X73834411Y-100339837D01*
X73797521Y-100376728D01*
X73797521Y-100788698D01*
X73797617Y-100911022D01*
X73798074Y-101006934D01*
X73799143Y-101080080D01*
X73801075Y-101134106D01*
X73804123Y-101172659D01*
X73808537Y-101199384D01*
X73814570Y-101217930D01*
X73822472Y-101231941D01*
X73828671Y-101240269D01*
X73869585Y-101272985D01*
X73916564Y-101276536D01*
X73959502Y-101256473D01*
X73973690Y-101244628D01*
X73983174Y-101228894D01*
X73988895Y-101203558D01*
X73991793Y-101162906D01*
X73992808Y-101101224D01*
X73992905Y-101053574D01*
X73992905Y-100874071D01*
X74654207Y-100874071D01*
X74654207Y-101037369D01*
X74654891Y-101112041D01*
X74657627Y-101163360D01*
X74663442Y-101198013D01*
X74673362Y-101222691D01*
X74685357Y-101240269D01*
X74726500Y-101272893D01*
X74773029Y-101276756D01*
X74817573Y-101253568D01*
X74829734Y-101241412D01*
X74838323Y-101225297D01*
X74843988Y-101200196D01*
X74847377Y-101161080D01*
X74849138Y-101102922D01*
X74849918Y-101020694D01*
X74850010Y-101001822D01*
X74850654Y-100846893D01*
X74850986Y-100719210D01*
X74850878Y-100615963D01*
X74850201Y-100534339D01*
X74848828Y-100471528D01*
X74846630Y-100424717D01*
X74843480Y-100391095D01*
X74839248Y-100367851D01*
X74833808Y-100352172D01*
X74827031Y-100341247D01*
X74819532Y-100333006D01*
X74777113Y-100306643D01*
X74732874Y-100310224D01*
X74691098Y-100339837D01*
X74674193Y-100358943D01*
X74663417Y-100380047D01*
X74657405Y-100410104D01*
X74654790Y-100456069D01*
X74654207Y-100524896D01*
X74654207Y-100678686D01*
X73992905Y-100678686D01*
X73992905Y-100520875D01*
X73992230Y-100448172D01*
X73989520Y-100399081D01*
X73983745Y-100367172D01*
X73973877Y-100346014D01*
X73962846Y-100333006D01*
X73920427Y-100306643D01*
X73876187Y-100310224D01*
X73876187Y-100310224D01*
G37*
X73876187Y-100310224D02*
X73834411Y-100339837D01*
X73797521Y-100376728D01*
X73797521Y-100788698D01*
X73797617Y-100911022D01*
X73798074Y-101006934D01*
X73799143Y-101080080D01*
X73801075Y-101134106D01*
X73804123Y-101172659D01*
X73808537Y-101199384D01*
X73814570Y-101217930D01*
X73822472Y-101231941D01*
X73828671Y-101240269D01*
X73869585Y-101272985D01*
X73916564Y-101276536D01*
X73959502Y-101256473D01*
X73973690Y-101244628D01*
X73983174Y-101228894D01*
X73988895Y-101203558D01*
X73991793Y-101162906D01*
X73992808Y-101101224D01*
X73992905Y-101053574D01*
X73992905Y-100874071D01*
X74654207Y-100874071D01*
X74654207Y-101037369D01*
X74654891Y-101112041D01*
X74657627Y-101163360D01*
X74663442Y-101198013D01*
X74673362Y-101222691D01*
X74685357Y-101240269D01*
X74726500Y-101272893D01*
X74773029Y-101276756D01*
X74817573Y-101253568D01*
X74829734Y-101241412D01*
X74838323Y-101225297D01*
X74843988Y-101200196D01*
X74847377Y-101161080D01*
X74849138Y-101102922D01*
X74849918Y-101020694D01*
X74850010Y-101001822D01*
X74850654Y-100846893D01*
X74850986Y-100719210D01*
X74850878Y-100615963D01*
X74850201Y-100534339D01*
X74848828Y-100471528D01*
X74846630Y-100424717D01*
X74843480Y-100391095D01*
X74839248Y-100367851D01*
X74833808Y-100352172D01*
X74827031Y-100341247D01*
X74819532Y-100333006D01*
X74777113Y-100306643D01*
X74732874Y-100310224D01*
X74691098Y-100339837D01*
X74674193Y-100358943D01*
X74663417Y-100380047D01*
X74657405Y-100410104D01*
X74654790Y-100456069D01*
X74654207Y-100524896D01*
X74654207Y-100678686D01*
X73992905Y-100678686D01*
X73992905Y-100520875D01*
X73992230Y-100448172D01*
X73989520Y-100399081D01*
X73983745Y-100367172D01*
X73973877Y-100346014D01*
X73962846Y-100333006D01*
X73920427Y-100306643D01*
X73876187Y-100310224D01*
G36*
X86091722Y-93939024D02*
X86077256Y-94090719D01*
X86035163Y-94234003D01*
X85967393Y-94365807D01*
X85875899Y-94483058D01*
X85762635Y-94582687D01*
X85633510Y-94659729D01*
X85492028Y-94712479D01*
X85349554Y-94737201D01*
X85208896Y-94735684D01*
X85072864Y-94709717D01*
X84944267Y-94661090D01*
X84825914Y-94591593D01*
X84720614Y-94503014D01*
X84631177Y-94397143D01*
X84560412Y-94275770D01*
X84511129Y-94140683D01*
X84486135Y-93993674D01*
X84483556Y-93927244D01*
X84483556Y-93810165D01*
X84414420Y-93810165D01*
X84366081Y-93813953D01*
X84330271Y-93829662D01*
X84294183Y-93861266D01*
X84243083Y-93912367D01*
X84243083Y-96830138D01*
X84243095Y-97179138D01*
X84243138Y-97499332D01*
X84243223Y-97791974D01*
X84243361Y-98058318D01*
X84243562Y-98299617D01*
X84243838Y-98517125D01*
X84244200Y-98712095D01*
X84244658Y-98885780D01*
X84245223Y-99039435D01*
X84245906Y-99174313D01*
X84246717Y-99291668D01*
X84247669Y-99392753D01*
X84248771Y-99478821D01*
X84250035Y-99551127D01*
X84251470Y-99610923D01*
X84253089Y-99659464D01*
X84254902Y-99698003D01*
X84256920Y-99727793D01*
X84259154Y-99750089D01*
X84261614Y-99766143D01*
X84264312Y-99777210D01*
X84267258Y-99784542D01*
X84268699Y-99787005D01*
X84274241Y-99796340D01*
X84278947Y-99804923D01*
X84284045Y-99812784D01*
X84290765Y-99819955D01*
X84300336Y-99826467D01*
X84313986Y-99832353D01*
X84332945Y-99837642D01*
X84358442Y-99842368D01*
X84391705Y-99846560D01*
X84433964Y-99850251D01*
X84486448Y-99853472D01*
X84550386Y-99856254D01*
X84627007Y-99858630D01*
X84717540Y-99860629D01*
X84823214Y-99862284D01*
X84945258Y-99863627D01*
X85084901Y-99864687D01*
X85243372Y-99865498D01*
X85421900Y-99866090D01*
X85621715Y-99866495D01*
X85844045Y-99866744D01*
X86090119Y-99866869D01*
X86361166Y-99866901D01*
X86658416Y-99866871D01*
X86983097Y-99866811D01*
X87336438Y-99866752D01*
X87387541Y-99866746D01*
X87742985Y-99866689D01*
X88069594Y-99866595D01*
X88368592Y-99866455D01*
X88641204Y-99866259D01*
X88888653Y-99865997D01*
X89112164Y-99865660D01*
X89312960Y-99865239D01*
X89492266Y-99864723D01*
X89651307Y-99864104D01*
X89791306Y-99863371D01*
X89913487Y-99862515D01*
X90019075Y-99861526D01*
X90109293Y-99860394D01*
X90185366Y-99859111D01*
X90248519Y-99857666D01*
X90299975Y-99856049D01*
X90340958Y-99854252D01*
X90372692Y-99852265D01*
X90396402Y-99850077D01*
X90413312Y-99847679D01*
X90424646Y-99845063D01*
X90430448Y-99842841D01*
X90441714Y-99838088D01*
X90452058Y-99834578D01*
X90461517Y-99831068D01*
X90470132Y-99826313D01*
X90477942Y-99819069D01*
X90484985Y-99808091D01*
X90491302Y-99792135D01*
X90496931Y-99769955D01*
X90501912Y-99740309D01*
X90506284Y-99701951D01*
X90510086Y-99653637D01*
X90513358Y-99594122D01*
X90516139Y-99522163D01*
X90518467Y-99436513D01*
X90520383Y-99335931D01*
X90521925Y-99219169D01*
X90523134Y-99084985D01*
X90524047Y-98932134D01*
X90524705Y-98759371D01*
X90525146Y-98565452D01*
X90525411Y-98349133D01*
X90525536Y-98109168D01*
X90525564Y-97844314D01*
X90525533Y-97553326D01*
X90525481Y-97234960D01*
X90525449Y-96887970D01*
X90525449Y-96831852D01*
X90525467Y-96481841D01*
X90525501Y-96160636D01*
X90525515Y-95866983D01*
X90525476Y-95599628D01*
X90525351Y-95357317D01*
X90525103Y-95138797D01*
X90524700Y-94942813D01*
X90524107Y-94768113D01*
X90523335Y-94621763D01*
X90120149Y-94621763D01*
X90067174Y-94698775D01*
X90052302Y-94719768D01*
X90038895Y-94738356D01*
X90026876Y-94756120D01*
X90016170Y-94774638D01*
X90006703Y-94795491D01*
X89998397Y-94820257D01*
X89991178Y-94850517D01*
X89984969Y-94887850D01*
X89979696Y-94933835D01*
X89975282Y-94990052D01*
X89971652Y-95058080D01*
X89968730Y-95139500D01*
X89966441Y-95235890D01*
X89964709Y-95348830D01*
X89963458Y-95479899D01*
X89962614Y-95630678D01*
X89962099Y-95802746D01*
X89961839Y-95997681D01*
X89961757Y-96217065D01*
X89961779Y-96462476D01*
X89961828Y-96735494D01*
X89961840Y-96898745D01*
X89961808Y-97187583D01*
X89961763Y-97447943D01*
X89961779Y-97681406D01*
X89961931Y-97889554D01*
X89962294Y-98073969D01*
X89962943Y-98236231D01*
X89963953Y-98377922D01*
X89965399Y-98500624D01*
X89967355Y-98605917D01*
X89969896Y-98695383D01*
X89973097Y-98770603D01*
X89977033Y-98833159D01*
X89981780Y-98884632D01*
X89987410Y-98926603D01*
X89994001Y-98960653D01*
X90001626Y-98988365D01*
X90010360Y-99011318D01*
X90020279Y-99031096D01*
X90031456Y-99049278D01*
X90043967Y-99067446D01*
X90057888Y-99087182D01*
X90065997Y-99099019D01*
X90117618Y-99175728D01*
X89409914Y-99175728D01*
X89245826Y-99175681D01*
X89109367Y-99175481D01*
X88998109Y-99175033D01*
X88909621Y-99174244D01*
X88841476Y-99173020D01*
X88791243Y-99171269D01*
X88756493Y-99168897D01*
X88734798Y-99165810D01*
X88723727Y-99161916D01*
X88720851Y-99157120D01*
X88723741Y-99151330D01*
X88725333Y-99149426D01*
X88758817Y-99100070D01*
X88793296Y-99029773D01*
X88824729Y-98947227D01*
X88835738Y-98912061D01*
X88841884Y-98888175D01*
X88847078Y-98860135D01*
X88851430Y-98825165D01*
X88855048Y-98780489D01*
X88858043Y-98723329D01*
X88860523Y-98650910D01*
X88862598Y-98560455D01*
X88864377Y-98449188D01*
X88865970Y-98314331D01*
X88867486Y-98153109D01*
X88867988Y-98093597D01*
X88869342Y-97926976D01*
X88870352Y-97788026D01*
X88870941Y-97674361D01*
X88871031Y-97583596D01*
X88870544Y-97513344D01*
X88869403Y-97461219D01*
X88867530Y-97424834D01*
X88864847Y-97401804D01*
X88861276Y-97389742D01*
X88856739Y-97386261D01*
X88851159Y-97388976D01*
X88845203Y-97394722D01*
X88831417Y-97411943D01*
X88802050Y-97450651D01*
X88759179Y-97508010D01*
X88704882Y-97581181D01*
X88641237Y-97667326D01*
X88570323Y-97763609D01*
X88494216Y-97867192D01*
X88414995Y-97975237D01*
X88334738Y-98084907D01*
X88255522Y-98193364D01*
X88179426Y-98297770D01*
X88108527Y-98395289D01*
X88044903Y-98483083D01*
X87990633Y-98558314D01*
X87947793Y-98618144D01*
X87918462Y-98659737D01*
X87912380Y-98668567D01*
X87881864Y-98717698D01*
X87846172Y-98781590D01*
X87812357Y-98847542D01*
X87808069Y-98856437D01*
X87779208Y-98920602D01*
X87762452Y-98970610D01*
X87754823Y-99018307D01*
X87753334Y-99074278D01*
X87754178Y-99175728D01*
X86217204Y-99175728D01*
X86338575Y-99050938D01*
X86400879Y-98984510D01*
X86467830Y-98909316D01*
X86529132Y-98837063D01*
X86556325Y-98803310D01*
X86596849Y-98750661D01*
X86650176Y-98679817D01*
X86714747Y-98592947D01*
X86789001Y-98492222D01*
X86871381Y-98379809D01*
X86960326Y-98257879D01*
X87054278Y-98128602D01*
X87151678Y-97994146D01*
X87250965Y-97856681D01*
X87350581Y-97718377D01*
X87448967Y-97581403D01*
X87544564Y-97447929D01*
X87635812Y-97320124D01*
X87721152Y-97200157D01*
X87799025Y-97090199D01*
X87867871Y-96992418D01*
X87926132Y-96908984D01*
X87972249Y-96842066D01*
X88004661Y-96793834D01*
X88021810Y-96766458D01*
X88024150Y-96760996D01*
X88013554Y-96745917D01*
X87985868Y-96709730D01*
X87942909Y-96654701D01*
X87886490Y-96583093D01*
X87818426Y-96497171D01*
X87740533Y-96399198D01*
X87654625Y-96291438D01*
X87562517Y-96176155D01*
X87466023Y-96055614D01*
X87366959Y-95932079D01*
X87287438Y-95833082D01*
X85941426Y-95833082D01*
X85933558Y-95850333D01*
X85914480Y-95879955D01*
X85913086Y-95881928D01*
X85888073Y-95922073D01*
X85861916Y-95971109D01*
X85856725Y-95981941D01*
X85852017Y-95993163D01*
X85847857Y-96006634D01*
X85844203Y-96024210D01*
X85841015Y-96047745D01*
X85838255Y-96079094D01*
X85835881Y-96120112D01*
X85833853Y-96172652D01*
X85832132Y-96238571D01*
X85830676Y-96319723D01*
X85829447Y-96417962D01*
X85828404Y-96535143D01*
X85827506Y-96673121D01*
X85826714Y-96833751D01*
X85825988Y-97018888D01*
X85825287Y-97230386D01*
X85824577Y-97468509D01*
X85823860Y-97714967D01*
X85823282Y-97933229D01*
X85822931Y-98125155D01*
X85822898Y-98292607D01*
X85823272Y-98437449D01*
X85824143Y-98561540D01*
X85825601Y-98666744D01*
X85827736Y-98754922D01*
X85830637Y-98827936D01*
X85834394Y-98887648D01*
X85839097Y-98935920D01*
X85844835Y-98974614D01*
X85851699Y-99005591D01*
X85859778Y-99030714D01*
X85869162Y-99051845D01*
X85879940Y-99070845D01*
X85892203Y-99089576D01*
X85903520Y-99106175D01*
X85926334Y-99141182D01*
X85939843Y-99164593D01*
X85941426Y-99168880D01*
X85926905Y-99170314D01*
X85885375Y-99171646D01*
X85819889Y-99172845D01*
X85733495Y-99173877D01*
X85629246Y-99174712D01*
X85510192Y-99175317D01*
X85379384Y-99175660D01*
X85287639Y-99175728D01*
X85147855Y-99175434D01*
X85018924Y-99174593D01*
X84903758Y-99173263D01*
X84805270Y-99171503D01*
X84726376Y-99169372D01*
X84669988Y-99166928D01*
X84639020Y-99164231D01*
X84633852Y-99162538D01*
X84644100Y-99142697D01*
X84654749Y-99132006D01*
X84672286Y-99109204D01*
X84695237Y-99068929D01*
X84711110Y-99036231D01*
X84746574Y-98957799D01*
X84750668Y-97390964D01*
X84754762Y-95824130D01*
X85348094Y-95824130D01*
X85478323Y-95824349D01*
X85598670Y-95824973D01*
X85705932Y-95825953D01*
X85796907Y-95827243D01*
X85868393Y-95828792D01*
X85917186Y-95830554D01*
X85940085Y-95832479D01*
X85941426Y-95833082D01*
X87287438Y-95833082D01*
X87267140Y-95807813D01*
X87168380Y-95685081D01*
X87072493Y-95566147D01*
X86981296Y-95453274D01*
X86896602Y-95348728D01*
X86820227Y-95254771D01*
X86753984Y-95173668D01*
X86699690Y-95107684D01*
X86676838Y-95080165D01*
X86561952Y-94946149D01*
X86459971Y-94835303D01*
X86368355Y-94745009D01*
X86284566Y-94672651D01*
X86272077Y-94662842D01*
X86219473Y-94622096D01*
X86972864Y-94621930D01*
X87726254Y-94621763D01*
X87719213Y-94685639D01*
X87723610Y-94761984D01*
X87752276Y-94852882D01*
X87805496Y-94959057D01*
X87865817Y-95055292D01*
X87887409Y-95085441D01*
X87924758Y-95135441D01*
X87975637Y-95202442D01*
X88037820Y-95283591D01*
X88109081Y-95376038D01*
X88187192Y-95476933D01*
X88269928Y-95583423D01*
X88355063Y-95692658D01*
X88440369Y-95801787D01*
X88523621Y-95907959D01*
X88602592Y-96008323D01*
X88675055Y-96100027D01*
X88738785Y-96180221D01*
X88791555Y-96246054D01*
X88831138Y-96294674D01*
X88855309Y-96323230D01*
X88859381Y-96327621D01*
X88863188Y-96316962D01*
X88866135Y-96276630D01*
X88868217Y-96207000D01*
X88869429Y-96108447D01*
X88869766Y-95981344D01*
X88869223Y-95826068D01*
X88868013Y-95666319D01*
X88866253Y-95490431D01*
X88864223Y-95341667D01*
X88861593Y-95217092D01*
X88858031Y-95113771D01*
X88853206Y-95028769D01*
X88846787Y-94959152D01*
X88838444Y-94901984D01*
X88827844Y-94854331D01*
X88814657Y-94813257D01*
X88798552Y-94775827D01*
X88779197Y-94739107D01*
X88759650Y-94705771D01*
X88709063Y-94621763D01*
X90120149Y-94621763D01*
X90523335Y-94621763D01*
X90523291Y-94613442D01*
X90522218Y-94477547D01*
X90520853Y-94359174D01*
X90519162Y-94257069D01*
X90517112Y-94169979D01*
X90514668Y-94096650D01*
X90511796Y-94035829D01*
X90508462Y-93986260D01*
X90504633Y-93946692D01*
X90500274Y-93915870D01*
X90495351Y-93892540D01*
X90489830Y-93875448D01*
X90483678Y-93863342D01*
X90476859Y-93854967D01*
X90469340Y-93849070D01*
X90461087Y-93844396D01*
X90452067Y-93839693D01*
X90444084Y-93834942D01*
X90437117Y-93831512D01*
X90426232Y-93828412D01*
X90409972Y-93825625D01*
X90386879Y-93823134D01*
X90355497Y-93820923D01*
X90314368Y-93818976D01*
X90262034Y-93817276D01*
X90197039Y-93815807D01*
X90117925Y-93814552D01*
X90023236Y-93813494D01*
X89911512Y-93812618D01*
X89781299Y-93811907D01*
X89631137Y-93811345D01*
X89459570Y-93810914D01*
X89265141Y-93810599D01*
X89046392Y-93810383D01*
X88801866Y-93810250D01*
X88530105Y-93810183D01*
X88248996Y-93810165D01*
X86091722Y-93810165D01*
X86091722Y-93939024D01*
X86091722Y-93939024D01*
G37*
X86091722Y-93939024D02*
X86077256Y-94090719D01*
X86035163Y-94234003D01*
X85967393Y-94365807D01*
X85875899Y-94483058D01*
X85762635Y-94582687D01*
X85633510Y-94659729D01*
X85492028Y-94712479D01*
X85349554Y-94737201D01*
X85208896Y-94735684D01*
X85072864Y-94709717D01*
X84944267Y-94661090D01*
X84825914Y-94591593D01*
X84720614Y-94503014D01*
X84631177Y-94397143D01*
X84560412Y-94275770D01*
X84511129Y-94140683D01*
X84486135Y-93993674D01*
X84483556Y-93927244D01*
X84483556Y-93810165D01*
X84414420Y-93810165D01*
X84366081Y-93813953D01*
X84330271Y-93829662D01*
X84294183Y-93861266D01*
X84243083Y-93912367D01*
X84243083Y-96830138D01*
X84243095Y-97179138D01*
X84243138Y-97499332D01*
X84243223Y-97791974D01*
X84243361Y-98058318D01*
X84243562Y-98299617D01*
X84243838Y-98517125D01*
X84244200Y-98712095D01*
X84244658Y-98885780D01*
X84245223Y-99039435D01*
X84245906Y-99174313D01*
X84246717Y-99291668D01*
X84247669Y-99392753D01*
X84248771Y-99478821D01*
X84250035Y-99551127D01*
X84251470Y-99610923D01*
X84253089Y-99659464D01*
X84254902Y-99698003D01*
X84256920Y-99727793D01*
X84259154Y-99750089D01*
X84261614Y-99766143D01*
X84264312Y-99777210D01*
X84267258Y-99784542D01*
X84268699Y-99787005D01*
X84274241Y-99796340D01*
X84278947Y-99804923D01*
X84284045Y-99812784D01*
X84290765Y-99819955D01*
X84300336Y-99826467D01*
X84313986Y-99832353D01*
X84332945Y-99837642D01*
X84358442Y-99842368D01*
X84391705Y-99846560D01*
X84433964Y-99850251D01*
X84486448Y-99853472D01*
X84550386Y-99856254D01*
X84627007Y-99858630D01*
X84717540Y-99860629D01*
X84823214Y-99862284D01*
X84945258Y-99863627D01*
X85084901Y-99864687D01*
X85243372Y-99865498D01*
X85421900Y-99866090D01*
X85621715Y-99866495D01*
X85844045Y-99866744D01*
X86090119Y-99866869D01*
X86361166Y-99866901D01*
X86658416Y-99866871D01*
X86983097Y-99866811D01*
X87336438Y-99866752D01*
X87387541Y-99866746D01*
X87742985Y-99866689D01*
X88069594Y-99866595D01*
X88368592Y-99866455D01*
X88641204Y-99866259D01*
X88888653Y-99865997D01*
X89112164Y-99865660D01*
X89312960Y-99865239D01*
X89492266Y-99864723D01*
X89651307Y-99864104D01*
X89791306Y-99863371D01*
X89913487Y-99862515D01*
X90019075Y-99861526D01*
X90109293Y-99860394D01*
X90185366Y-99859111D01*
X90248519Y-99857666D01*
X90299975Y-99856049D01*
X90340958Y-99854252D01*
X90372692Y-99852265D01*
X90396402Y-99850077D01*
X90413312Y-99847679D01*
X90424646Y-99845063D01*
X90430448Y-99842841D01*
X90441714Y-99838088D01*
X90452058Y-99834578D01*
X90461517Y-99831068D01*
X90470132Y-99826313D01*
X90477942Y-99819069D01*
X90484985Y-99808091D01*
X90491302Y-99792135D01*
X90496931Y-99769955D01*
X90501912Y-99740309D01*
X90506284Y-99701951D01*
X90510086Y-99653637D01*
X90513358Y-99594122D01*
X90516139Y-99522163D01*
X90518467Y-99436513D01*
X90520383Y-99335931D01*
X90521925Y-99219169D01*
X90523134Y-99084985D01*
X90524047Y-98932134D01*
X90524705Y-98759371D01*
X90525146Y-98565452D01*
X90525411Y-98349133D01*
X90525536Y-98109168D01*
X90525564Y-97844314D01*
X90525533Y-97553326D01*
X90525481Y-97234960D01*
X90525449Y-96887970D01*
X90525449Y-96831852D01*
X90525467Y-96481841D01*
X90525501Y-96160636D01*
X90525515Y-95866983D01*
X90525476Y-95599628D01*
X90525351Y-95357317D01*
X90525103Y-95138797D01*
X90524700Y-94942813D01*
X90524107Y-94768113D01*
X90523335Y-94621763D01*
X90120149Y-94621763D01*
X90067174Y-94698775D01*
X90052302Y-94719768D01*
X90038895Y-94738356D01*
X90026876Y-94756120D01*
X90016170Y-94774638D01*
X90006703Y-94795491D01*
X89998397Y-94820257D01*
X89991178Y-94850517D01*
X89984969Y-94887850D01*
X89979696Y-94933835D01*
X89975282Y-94990052D01*
X89971652Y-95058080D01*
X89968730Y-95139500D01*
X89966441Y-95235890D01*
X89964709Y-95348830D01*
X89963458Y-95479899D01*
X89962614Y-95630678D01*
X89962099Y-95802746D01*
X89961839Y-95997681D01*
X89961757Y-96217065D01*
X89961779Y-96462476D01*
X89961828Y-96735494D01*
X89961840Y-96898745D01*
X89961808Y-97187583D01*
X89961763Y-97447943D01*
X89961779Y-97681406D01*
X89961931Y-97889554D01*
X89962294Y-98073969D01*
X89962943Y-98236231D01*
X89963953Y-98377922D01*
X89965399Y-98500624D01*
X89967355Y-98605917D01*
X89969896Y-98695383D01*
X89973097Y-98770603D01*
X89977033Y-98833159D01*
X89981780Y-98884632D01*
X89987410Y-98926603D01*
X89994001Y-98960653D01*
X90001626Y-98988365D01*
X90010360Y-99011318D01*
X90020279Y-99031096D01*
X90031456Y-99049278D01*
X90043967Y-99067446D01*
X90057888Y-99087182D01*
X90065997Y-99099019D01*
X90117618Y-99175728D01*
X89409914Y-99175728D01*
X89245826Y-99175681D01*
X89109367Y-99175481D01*
X88998109Y-99175033D01*
X88909621Y-99174244D01*
X88841476Y-99173020D01*
X88791243Y-99171269D01*
X88756493Y-99168897D01*
X88734798Y-99165810D01*
X88723727Y-99161916D01*
X88720851Y-99157120D01*
X88723741Y-99151330D01*
X88725333Y-99149426D01*
X88758817Y-99100070D01*
X88793296Y-99029773D01*
X88824729Y-98947227D01*
X88835738Y-98912061D01*
X88841884Y-98888175D01*
X88847078Y-98860135D01*
X88851430Y-98825165D01*
X88855048Y-98780489D01*
X88858043Y-98723329D01*
X88860523Y-98650910D01*
X88862598Y-98560455D01*
X88864377Y-98449188D01*
X88865970Y-98314331D01*
X88867486Y-98153109D01*
X88867988Y-98093597D01*
X88869342Y-97926976D01*
X88870352Y-97788026D01*
X88870941Y-97674361D01*
X88871031Y-97583596D01*
X88870544Y-97513344D01*
X88869403Y-97461219D01*
X88867530Y-97424834D01*
X88864847Y-97401804D01*
X88861276Y-97389742D01*
X88856739Y-97386261D01*
X88851159Y-97388976D01*
X88845203Y-97394722D01*
X88831417Y-97411943D01*
X88802050Y-97450651D01*
X88759179Y-97508010D01*
X88704882Y-97581181D01*
X88641237Y-97667326D01*
X88570323Y-97763609D01*
X88494216Y-97867192D01*
X88414995Y-97975237D01*
X88334738Y-98084907D01*
X88255522Y-98193364D01*
X88179426Y-98297770D01*
X88108527Y-98395289D01*
X88044903Y-98483083D01*
X87990633Y-98558314D01*
X87947793Y-98618144D01*
X87918462Y-98659737D01*
X87912380Y-98668567D01*
X87881864Y-98717698D01*
X87846172Y-98781590D01*
X87812357Y-98847542D01*
X87808069Y-98856437D01*
X87779208Y-98920602D01*
X87762452Y-98970610D01*
X87754823Y-99018307D01*
X87753334Y-99074278D01*
X87754178Y-99175728D01*
X86217204Y-99175728D01*
X86338575Y-99050938D01*
X86400879Y-98984510D01*
X86467830Y-98909316D01*
X86529132Y-98837063D01*
X86556325Y-98803310D01*
X86596849Y-98750661D01*
X86650176Y-98679817D01*
X86714747Y-98592947D01*
X86789001Y-98492222D01*
X86871381Y-98379809D01*
X86960326Y-98257879D01*
X87054278Y-98128602D01*
X87151678Y-97994146D01*
X87250965Y-97856681D01*
X87350581Y-97718377D01*
X87448967Y-97581403D01*
X87544564Y-97447929D01*
X87635812Y-97320124D01*
X87721152Y-97200157D01*
X87799025Y-97090199D01*
X87867871Y-96992418D01*
X87926132Y-96908984D01*
X87972249Y-96842066D01*
X88004661Y-96793834D01*
X88021810Y-96766458D01*
X88024150Y-96760996D01*
X88013554Y-96745917D01*
X87985868Y-96709730D01*
X87942909Y-96654701D01*
X87886490Y-96583093D01*
X87818426Y-96497171D01*
X87740533Y-96399198D01*
X87654625Y-96291438D01*
X87562517Y-96176155D01*
X87466023Y-96055614D01*
X87366959Y-95932079D01*
X87287438Y-95833082D01*
X85941426Y-95833082D01*
X85933558Y-95850333D01*
X85914480Y-95879955D01*
X85913086Y-95881928D01*
X85888073Y-95922073D01*
X85861916Y-95971109D01*
X85856725Y-95981941D01*
X85852017Y-95993163D01*
X85847857Y-96006634D01*
X85844203Y-96024210D01*
X85841015Y-96047745D01*
X85838255Y-96079094D01*
X85835881Y-96120112D01*
X85833853Y-96172652D01*
X85832132Y-96238571D01*
X85830676Y-96319723D01*
X85829447Y-96417962D01*
X85828404Y-96535143D01*
X85827506Y-96673121D01*
X85826714Y-96833751D01*
X85825988Y-97018888D01*
X85825287Y-97230386D01*
X85824577Y-97468509D01*
X85823860Y-97714967D01*
X85823282Y-97933229D01*
X85822931Y-98125155D01*
X85822898Y-98292607D01*
X85823272Y-98437449D01*
X85824143Y-98561540D01*
X85825601Y-98666744D01*
X85827736Y-98754922D01*
X85830637Y-98827936D01*
X85834394Y-98887648D01*
X85839097Y-98935920D01*
X85844835Y-98974614D01*
X85851699Y-99005591D01*
X85859778Y-99030714D01*
X85869162Y-99051845D01*
X85879940Y-99070845D01*
X85892203Y-99089576D01*
X85903520Y-99106175D01*
X85926334Y-99141182D01*
X85939843Y-99164593D01*
X85941426Y-99168880D01*
X85926905Y-99170314D01*
X85885375Y-99171646D01*
X85819889Y-99172845D01*
X85733495Y-99173877D01*
X85629246Y-99174712D01*
X85510192Y-99175317D01*
X85379384Y-99175660D01*
X85287639Y-99175728D01*
X85147855Y-99175434D01*
X85018924Y-99174593D01*
X84903758Y-99173263D01*
X84805270Y-99171503D01*
X84726376Y-99169372D01*
X84669988Y-99166928D01*
X84639020Y-99164231D01*
X84633852Y-99162538D01*
X84644100Y-99142697D01*
X84654749Y-99132006D01*
X84672286Y-99109204D01*
X84695237Y-99068929D01*
X84711110Y-99036231D01*
X84746574Y-98957799D01*
X84750668Y-97390964D01*
X84754762Y-95824130D01*
X85348094Y-95824130D01*
X85478323Y-95824349D01*
X85598670Y-95824973D01*
X85705932Y-95825953D01*
X85796907Y-95827243D01*
X85868393Y-95828792D01*
X85917186Y-95830554D01*
X85940085Y-95832479D01*
X85941426Y-95833082D01*
X87287438Y-95833082D01*
X87267140Y-95807813D01*
X87168380Y-95685081D01*
X87072493Y-95566147D01*
X86981296Y-95453274D01*
X86896602Y-95348728D01*
X86820227Y-95254771D01*
X86753984Y-95173668D01*
X86699690Y-95107684D01*
X86676838Y-95080165D01*
X86561952Y-94946149D01*
X86459971Y-94835303D01*
X86368355Y-94745009D01*
X86284566Y-94672651D01*
X86272077Y-94662842D01*
X86219473Y-94622096D01*
X86972864Y-94621930D01*
X87726254Y-94621763D01*
X87719213Y-94685639D01*
X87723610Y-94761984D01*
X87752276Y-94852882D01*
X87805496Y-94959057D01*
X87865817Y-95055292D01*
X87887409Y-95085441D01*
X87924758Y-95135441D01*
X87975637Y-95202442D01*
X88037820Y-95283591D01*
X88109081Y-95376038D01*
X88187192Y-95476933D01*
X88269928Y-95583423D01*
X88355063Y-95692658D01*
X88440369Y-95801787D01*
X88523621Y-95907959D01*
X88602592Y-96008323D01*
X88675055Y-96100027D01*
X88738785Y-96180221D01*
X88791555Y-96246054D01*
X88831138Y-96294674D01*
X88855309Y-96323230D01*
X88859381Y-96327621D01*
X88863188Y-96316962D01*
X88866135Y-96276630D01*
X88868217Y-96207000D01*
X88869429Y-96108447D01*
X88869766Y-95981344D01*
X88869223Y-95826068D01*
X88868013Y-95666319D01*
X88866253Y-95490431D01*
X88864223Y-95341667D01*
X88861593Y-95217092D01*
X88858031Y-95113771D01*
X88853206Y-95028769D01*
X88846787Y-94959152D01*
X88838444Y-94901984D01*
X88827844Y-94854331D01*
X88814657Y-94813257D01*
X88798552Y-94775827D01*
X88779197Y-94739107D01*
X88759650Y-94705771D01*
X88709063Y-94621763D01*
X90120149Y-94621763D01*
X90523335Y-94621763D01*
X90523291Y-94613442D01*
X90522218Y-94477547D01*
X90520853Y-94359174D01*
X90519162Y-94257069D01*
X90517112Y-94169979D01*
X90514668Y-94096650D01*
X90511796Y-94035829D01*
X90508462Y-93986260D01*
X90504633Y-93946692D01*
X90500274Y-93915870D01*
X90495351Y-93892540D01*
X90489830Y-93875448D01*
X90483678Y-93863342D01*
X90476859Y-93854967D01*
X90469340Y-93849070D01*
X90461087Y-93844396D01*
X90452067Y-93839693D01*
X90444084Y-93834942D01*
X90437117Y-93831512D01*
X90426232Y-93828412D01*
X90409972Y-93825625D01*
X90386879Y-93823134D01*
X90355497Y-93820923D01*
X90314368Y-93818976D01*
X90262034Y-93817276D01*
X90197039Y-93815807D01*
X90117925Y-93814552D01*
X90023236Y-93813494D01*
X89911512Y-93812618D01*
X89781299Y-93811907D01*
X89631137Y-93811345D01*
X89459570Y-93810914D01*
X89265141Y-93810599D01*
X89046392Y-93810383D01*
X88801866Y-93810250D01*
X88530105Y-93810183D01*
X88248996Y-93810165D01*
X86091722Y-93810165D01*
X86091722Y-93939024D01*
G36*
X81731742Y-94551473D02*
X81518536Y-94579663D01*
X81300273Y-94633103D01*
X81074204Y-94712325D01*
X80837582Y-94817856D01*
X80822580Y-94825238D01*
X80745768Y-94862550D01*
X80677140Y-94894605D01*
X80621703Y-94919166D01*
X80584464Y-94933992D01*
X80571722Y-94937384D01*
X80546137Y-94944051D01*
X80539997Y-94949651D01*
X80546792Y-94963541D01*
X80568147Y-94998540D01*
X80601604Y-95050980D01*
X80644706Y-95117194D01*
X80694992Y-95193514D01*
X80750005Y-95276273D01*
X80807286Y-95361801D01*
X80864377Y-95446433D01*
X80918817Y-95526500D01*
X80968150Y-95598334D01*
X81009917Y-95658268D01*
X81041658Y-95702635D01*
X81060915Y-95727765D01*
X81063558Y-95730680D01*
X81077029Y-95724491D01*
X81106773Y-95701623D01*
X81147473Y-95666314D01*
X81168434Y-95647040D01*
X81296896Y-95546814D01*
X81438966Y-95473002D01*
X81592744Y-95426270D01*
X81756328Y-95407284D01*
X81848725Y-95408843D01*
X82010005Y-95431690D01*
X82155413Y-95479462D01*
X82285384Y-95552508D01*
X82400353Y-95651176D01*
X82500754Y-95775815D01*
X82587022Y-95926776D01*
X82636839Y-96042059D01*
X82695222Y-96222724D01*
X82738252Y-96419078D01*
X82766040Y-96626057D01*
X82778695Y-96838598D01*
X82776330Y-97051638D01*
X82759055Y-97260113D01*
X82726981Y-97458961D01*
X82680218Y-97643118D01*
X82618877Y-97807520D01*
X82597200Y-97853124D01*
X82506340Y-98005014D01*
X82399219Y-98133481D01*
X82277412Y-98237478D01*
X82142490Y-98315958D01*
X81996029Y-98367874D01*
X81839600Y-98392179D01*
X81784392Y-98393967D01*
X81622554Y-98379428D01*
X81462209Y-98335737D01*
X81305390Y-98263798D01*
X81154133Y-98164512D01*
X81032436Y-98060232D01*
X80970488Y-98000945D01*
X80729155Y-98396709D01*
X80669114Y-98495446D01*
X80614211Y-98586262D01*
X80566394Y-98665895D01*
X80527609Y-98731080D01*
X80499806Y-98778554D01*
X80484930Y-98805055D01*
X80482997Y-98809175D01*
X80493953Y-98822009D01*
X80528007Y-98845016D01*
X80580855Y-98876015D01*
X80648189Y-98912829D01*
X80725706Y-98953278D01*
X80809098Y-98995182D01*
X80894060Y-99036363D01*
X80976286Y-99074642D01*
X81051471Y-99107838D01*
X81115309Y-99133775D01*
X81146533Y-99144997D01*
X81324623Y-99195342D01*
X81508209Y-99228630D01*
X81704858Y-99245943D01*
X81873659Y-99249043D01*
X81964133Y-99247585D01*
X82051471Y-99244792D01*
X82127932Y-99241009D01*
X82185770Y-99236578D01*
X82204549Y-99234337D01*
X82389628Y-99195947D01*
X82578051Y-99135877D01*
X82761090Y-99057702D01*
X82930013Y-98965000D01*
X83033201Y-98894864D01*
X83202826Y-98750809D01*
X83360330Y-98582302D01*
X83502795Y-98393508D01*
X83627303Y-98188591D01*
X83730938Y-97971715D01*
X83789324Y-97815550D01*
X83856222Y-97571076D01*
X83900821Y-97312064D01*
X83923135Y-97044119D01*
X83923179Y-96772845D01*
X83900966Y-96503847D01*
X83856509Y-96242729D01*
X83789824Y-95995095D01*
X83784743Y-95979666D01*
X83701022Y-95763915D01*
X83598844Y-95566983D01*
X83474742Y-95383299D01*
X83325250Y-95207288D01*
X83266850Y-95147027D01*
X83085596Y-94982016D01*
X82899263Y-94845495D01*
X82704991Y-94735979D01*
X82499921Y-94651981D01*
X82281190Y-94592015D01*
X82153970Y-94568730D01*
X81942637Y-94548005D01*
X81731742Y-94551473D01*
X81731742Y-94551473D01*
G37*
X81731742Y-94551473D02*
X81518536Y-94579663D01*
X81300273Y-94633103D01*
X81074204Y-94712325D01*
X80837582Y-94817856D01*
X80822580Y-94825238D01*
X80745768Y-94862550D01*
X80677140Y-94894605D01*
X80621703Y-94919166D01*
X80584464Y-94933992D01*
X80571722Y-94937384D01*
X80546137Y-94944051D01*
X80539997Y-94949651D01*
X80546792Y-94963541D01*
X80568147Y-94998540D01*
X80601604Y-95050980D01*
X80644706Y-95117194D01*
X80694992Y-95193514D01*
X80750005Y-95276273D01*
X80807286Y-95361801D01*
X80864377Y-95446433D01*
X80918817Y-95526500D01*
X80968150Y-95598334D01*
X81009917Y-95658268D01*
X81041658Y-95702635D01*
X81060915Y-95727765D01*
X81063558Y-95730680D01*
X81077029Y-95724491D01*
X81106773Y-95701623D01*
X81147473Y-95666314D01*
X81168434Y-95647040D01*
X81296896Y-95546814D01*
X81438966Y-95473002D01*
X81592744Y-95426270D01*
X81756328Y-95407284D01*
X81848725Y-95408843D01*
X82010005Y-95431690D01*
X82155413Y-95479462D01*
X82285384Y-95552508D01*
X82400353Y-95651176D01*
X82500754Y-95775815D01*
X82587022Y-95926776D01*
X82636839Y-96042059D01*
X82695222Y-96222724D01*
X82738252Y-96419078D01*
X82766040Y-96626057D01*
X82778695Y-96838598D01*
X82776330Y-97051638D01*
X82759055Y-97260113D01*
X82726981Y-97458961D01*
X82680218Y-97643118D01*
X82618877Y-97807520D01*
X82597200Y-97853124D01*
X82506340Y-98005014D01*
X82399219Y-98133481D01*
X82277412Y-98237478D01*
X82142490Y-98315958D01*
X81996029Y-98367874D01*
X81839600Y-98392179D01*
X81784392Y-98393967D01*
X81622554Y-98379428D01*
X81462209Y-98335737D01*
X81305390Y-98263798D01*
X81154133Y-98164512D01*
X81032436Y-98060232D01*
X80970488Y-98000945D01*
X80729155Y-98396709D01*
X80669114Y-98495446D01*
X80614211Y-98586262D01*
X80566394Y-98665895D01*
X80527609Y-98731080D01*
X80499806Y-98778554D01*
X80484930Y-98805055D01*
X80482997Y-98809175D01*
X80493953Y-98822009D01*
X80528007Y-98845016D01*
X80580855Y-98876015D01*
X80648189Y-98912829D01*
X80725706Y-98953278D01*
X80809098Y-98995182D01*
X80894060Y-99036363D01*
X80976286Y-99074642D01*
X81051471Y-99107838D01*
X81115309Y-99133775D01*
X81146533Y-99144997D01*
X81324623Y-99195342D01*
X81508209Y-99228630D01*
X81704858Y-99245943D01*
X81873659Y-99249043D01*
X81964133Y-99247585D01*
X82051471Y-99244792D01*
X82127932Y-99241009D01*
X82185770Y-99236578D01*
X82204549Y-99234337D01*
X82389628Y-99195947D01*
X82578051Y-99135877D01*
X82761090Y-99057702D01*
X82930013Y-98965000D01*
X83033201Y-98894864D01*
X83202826Y-98750809D01*
X83360330Y-98582302D01*
X83502795Y-98393508D01*
X83627303Y-98188591D01*
X83730938Y-97971715D01*
X83789324Y-97815550D01*
X83856222Y-97571076D01*
X83900821Y-97312064D01*
X83923135Y-97044119D01*
X83923179Y-96772845D01*
X83900966Y-96503847D01*
X83856509Y-96242729D01*
X83789824Y-95995095D01*
X83784743Y-95979666D01*
X83701022Y-95763915D01*
X83598844Y-95566983D01*
X83474742Y-95383299D01*
X83325250Y-95207288D01*
X83266850Y-95147027D01*
X83085596Y-94982016D01*
X82899263Y-94845495D01*
X82704991Y-94735979D01*
X82499921Y-94651981D01*
X82281190Y-94592015D01*
X82153970Y-94568730D01*
X81942637Y-94548005D01*
X81731742Y-94551473D01*
G36*
X78609508Y-95772971D02*
X78407250Y-95799618D01*
X78227164Y-95844398D01*
X78068089Y-95907669D01*
X77928862Y-95989787D01*
X77825535Y-96074409D01*
X77733884Y-96173108D01*
X77662334Y-96279313D01*
X77605214Y-96402092D01*
X77584612Y-96459433D01*
X77567492Y-96511331D01*
X77552578Y-96559455D01*
X77539698Y-96606246D01*
X77528680Y-96654144D01*
X77519350Y-96705587D01*
X77511537Y-96763016D01*
X77505068Y-96828870D01*
X77499770Y-96905589D01*
X77495470Y-96995612D01*
X77491997Y-97101380D01*
X77489177Y-97225331D01*
X77486838Y-97369906D01*
X77484807Y-97537544D01*
X77482912Y-97730685D01*
X77481245Y-97920757D01*
X77479479Y-98128703D01*
X77477874Y-98308797D01*
X77476263Y-98463244D01*
X77474480Y-98594249D01*
X77472357Y-98704017D01*
X77469728Y-98794753D01*
X77466424Y-98868662D01*
X77462281Y-98927950D01*
X77457130Y-98974822D01*
X77450804Y-99011483D01*
X77443137Y-99040137D01*
X77433962Y-99062990D01*
X77423112Y-99082248D01*
X77410419Y-99100115D01*
X77395717Y-99118796D01*
X77389991Y-99126029D01*
X77368930Y-99156436D01*
X77359562Y-99177142D01*
X77359532Y-99177754D01*
X77374014Y-99180682D01*
X77415267Y-99183378D01*
X77480003Y-99185769D01*
X77564936Y-99187778D01*
X77666777Y-99189329D01*
X77782240Y-99190346D01*
X77908036Y-99190753D01*
X77922557Y-99190757D01*
X78485581Y-99190757D01*
X78489924Y-99062858D01*
X78494266Y-98934958D01*
X78576929Y-99002841D01*
X78706510Y-99092726D01*
X78852828Y-99165541D01*
X78967944Y-99205787D01*
X79059902Y-99225342D01*
X79170874Y-99238647D01*
X79290385Y-99245285D01*
X79407963Y-99244843D01*
X79513133Y-99236905D01*
X79561367Y-99229298D01*
X79747782Y-99178890D01*
X79916100Y-99105874D01*
X80065104Y-99011337D01*
X80193576Y-98896365D01*
X80300301Y-98762046D01*
X80384060Y-98609467D01*
X80443140Y-98441594D01*
X80459562Y-98366261D01*
X80469693Y-98283451D01*
X80474524Y-98183815D01*
X80475183Y-98138686D01*
X80475096Y-98134446D01*
X79463344Y-98134446D01*
X79450971Y-98234367D01*
X79413444Y-98319343D01*
X79348915Y-98393417D01*
X79342182Y-98399292D01*
X79277885Y-98445659D01*
X79209042Y-98475724D01*
X79128186Y-98491595D01*
X79027851Y-98495380D01*
X79003743Y-98494840D01*
X78932091Y-98491309D01*
X78878797Y-98484098D01*
X78832177Y-98470566D01*
X78780548Y-98448072D01*
X78766380Y-98441178D01*
X78685632Y-98393478D01*
X78623299Y-98336719D01*
X78606341Y-98316431D01*
X78546870Y-98241194D01*
X78546870Y-97980413D01*
X78547583Y-97875706D01*
X78549833Y-97798552D01*
X78553785Y-97746478D01*
X78559604Y-97717009D01*
X78565042Y-97708400D01*
X78586245Y-97704188D01*
X78631222Y-97700697D01*
X78693695Y-97698256D01*
X78767381Y-97697194D01*
X78779214Y-97697174D01*
X78940010Y-97704169D01*
X79076701Y-97725693D01*
X79191935Y-97762569D01*
X79288359Y-97815620D01*
X79361491Y-97878127D01*
X79420799Y-97955195D01*
X79453715Y-98039135D01*
X79463344Y-98134446D01*
X80475096Y-98134446D01*
X80472609Y-98013864D01*
X80461499Y-97908821D01*
X80439871Y-97813998D01*
X80405739Y-97719837D01*
X80373791Y-97650111D01*
X80295748Y-97523236D01*
X80191773Y-97406042D01*
X80065030Y-97300662D01*
X79918682Y-97209228D01*
X79755894Y-97133874D01*
X79579829Y-97076732D01*
X79493734Y-97056842D01*
X79312426Y-97027413D01*
X79114792Y-97007997D01*
X78913150Y-96999502D01*
X78744654Y-97001675D01*
X78529125Y-97010700D01*
X78539003Y-96932178D01*
X78564689Y-96800170D01*
X78606139Y-96692702D01*
X78664499Y-96608952D01*
X78740917Y-96548095D01*
X78836539Y-96509308D01*
X78952510Y-96491766D01*
X79089979Y-96494647D01*
X79140538Y-96499974D01*
X79328514Y-96533482D01*
X79510662Y-96588113D01*
X79636515Y-96638706D01*
X79696639Y-96664501D01*
X79747806Y-96685231D01*
X79782889Y-96698071D01*
X79793125Y-96700797D01*
X79806098Y-96688710D01*
X79828357Y-96650142D01*
X79860110Y-96584655D01*
X79901568Y-96491816D01*
X79952939Y-96371187D01*
X79961723Y-96350165D01*
X80001739Y-96253885D01*
X80037659Y-96166885D01*
X80067931Y-96092969D01*
X80091004Y-96035941D01*
X80105326Y-95999607D01*
X80109462Y-95987839D01*
X80096150Y-95981509D01*
X80061167Y-95974483D01*
X80023526Y-95969585D01*
X79983377Y-95963252D01*
X79919754Y-95950677D01*
X79838303Y-95933092D01*
X79744664Y-95911730D01*
X79644480Y-95887825D01*
X79606455Y-95878475D01*
X79466581Y-95844408D01*
X79349869Y-95817698D01*
X79250565Y-95797491D01*
X79162915Y-95782934D01*
X79081164Y-95773173D01*
X78999559Y-95767356D01*
X78912344Y-95764630D01*
X78835102Y-95764100D01*
X78609508Y-95772971D01*
X78609508Y-95772971D01*
G37*
X78609508Y-95772971D02*
X78407250Y-95799618D01*
X78227164Y-95844398D01*
X78068089Y-95907669D01*
X77928862Y-95989787D01*
X77825535Y-96074409D01*
X77733884Y-96173108D01*
X77662334Y-96279313D01*
X77605214Y-96402092D01*
X77584612Y-96459433D01*
X77567492Y-96511331D01*
X77552578Y-96559455D01*
X77539698Y-96606246D01*
X77528680Y-96654144D01*
X77519350Y-96705587D01*
X77511537Y-96763016D01*
X77505068Y-96828870D01*
X77499770Y-96905589D01*
X77495470Y-96995612D01*
X77491997Y-97101380D01*
X77489177Y-97225331D01*
X77486838Y-97369906D01*
X77484807Y-97537544D01*
X77482912Y-97730685D01*
X77481245Y-97920757D01*
X77479479Y-98128703D01*
X77477874Y-98308797D01*
X77476263Y-98463244D01*
X77474480Y-98594249D01*
X77472357Y-98704017D01*
X77469728Y-98794753D01*
X77466424Y-98868662D01*
X77462281Y-98927950D01*
X77457130Y-98974822D01*
X77450804Y-99011483D01*
X77443137Y-99040137D01*
X77433962Y-99062990D01*
X77423112Y-99082248D01*
X77410419Y-99100115D01*
X77395717Y-99118796D01*
X77389991Y-99126029D01*
X77368930Y-99156436D01*
X77359562Y-99177142D01*
X77359532Y-99177754D01*
X77374014Y-99180682D01*
X77415267Y-99183378D01*
X77480003Y-99185769D01*
X77564936Y-99187778D01*
X77666777Y-99189329D01*
X77782240Y-99190346D01*
X77908036Y-99190753D01*
X77922557Y-99190757D01*
X78485581Y-99190757D01*
X78489924Y-99062858D01*
X78494266Y-98934958D01*
X78576929Y-99002841D01*
X78706510Y-99092726D01*
X78852828Y-99165541D01*
X78967944Y-99205787D01*
X79059902Y-99225342D01*
X79170874Y-99238647D01*
X79290385Y-99245285D01*
X79407963Y-99244843D01*
X79513133Y-99236905D01*
X79561367Y-99229298D01*
X79747782Y-99178890D01*
X79916100Y-99105874D01*
X80065104Y-99011337D01*
X80193576Y-98896365D01*
X80300301Y-98762046D01*
X80384060Y-98609467D01*
X80443140Y-98441594D01*
X80459562Y-98366261D01*
X80469693Y-98283451D01*
X80474524Y-98183815D01*
X80475183Y-98138686D01*
X80475096Y-98134446D01*
X79463344Y-98134446D01*
X79450971Y-98234367D01*
X79413444Y-98319343D01*
X79348915Y-98393417D01*
X79342182Y-98399292D01*
X79277885Y-98445659D01*
X79209042Y-98475724D01*
X79128186Y-98491595D01*
X79027851Y-98495380D01*
X79003743Y-98494840D01*
X78932091Y-98491309D01*
X78878797Y-98484098D01*
X78832177Y-98470566D01*
X78780548Y-98448072D01*
X78766380Y-98441178D01*
X78685632Y-98393478D01*
X78623299Y-98336719D01*
X78606341Y-98316431D01*
X78546870Y-98241194D01*
X78546870Y-97980413D01*
X78547583Y-97875706D01*
X78549833Y-97798552D01*
X78553785Y-97746478D01*
X78559604Y-97717009D01*
X78565042Y-97708400D01*
X78586245Y-97704188D01*
X78631222Y-97700697D01*
X78693695Y-97698256D01*
X78767381Y-97697194D01*
X78779214Y-97697174D01*
X78940010Y-97704169D01*
X79076701Y-97725693D01*
X79191935Y-97762569D01*
X79288359Y-97815620D01*
X79361491Y-97878127D01*
X79420799Y-97955195D01*
X79453715Y-98039135D01*
X79463344Y-98134446D01*
X80475096Y-98134446D01*
X80472609Y-98013864D01*
X80461499Y-97908821D01*
X80439871Y-97813998D01*
X80405739Y-97719837D01*
X80373791Y-97650111D01*
X80295748Y-97523236D01*
X80191773Y-97406042D01*
X80065030Y-97300662D01*
X79918682Y-97209228D01*
X79755894Y-97133874D01*
X79579829Y-97076732D01*
X79493734Y-97056842D01*
X79312426Y-97027413D01*
X79114792Y-97007997D01*
X78913150Y-96999502D01*
X78744654Y-97001675D01*
X78529125Y-97010700D01*
X78539003Y-96932178D01*
X78564689Y-96800170D01*
X78606139Y-96692702D01*
X78664499Y-96608952D01*
X78740917Y-96548095D01*
X78836539Y-96509308D01*
X78952510Y-96491766D01*
X79089979Y-96494647D01*
X79140538Y-96499974D01*
X79328514Y-96533482D01*
X79510662Y-96588113D01*
X79636515Y-96638706D01*
X79696639Y-96664501D01*
X79747806Y-96685231D01*
X79782889Y-96698071D01*
X79793125Y-96700797D01*
X79806098Y-96688710D01*
X79828357Y-96650142D01*
X79860110Y-96584655D01*
X79901568Y-96491816D01*
X79952939Y-96371187D01*
X79961723Y-96350165D01*
X80001739Y-96253885D01*
X80037659Y-96166885D01*
X80067931Y-96092969D01*
X80091004Y-96035941D01*
X80105326Y-95999607D01*
X80109462Y-95987839D01*
X80096150Y-95981509D01*
X80061167Y-95974483D01*
X80023526Y-95969585D01*
X79983377Y-95963252D01*
X79919754Y-95950677D01*
X79838303Y-95933092D01*
X79744664Y-95911730D01*
X79644480Y-95887825D01*
X79606455Y-95878475D01*
X79466581Y-95844408D01*
X79349869Y-95817698D01*
X79250565Y-95797491D01*
X79162915Y-95782934D01*
X79081164Y-95773173D01*
X78999559Y-95767356D01*
X78912344Y-95764630D01*
X78835102Y-95764100D01*
X78609508Y-95772971D01*
G36*
X73932526Y-96579367D02*
X73932500Y-96891461D01*
X73932465Y-97174962D01*
X73932369Y-97431336D01*
X73932159Y-97662048D01*
X73931784Y-97868565D01*
X73931191Y-98052351D01*
X73930330Y-98214874D01*
X73929147Y-98357598D01*
X73927592Y-98481990D01*
X73925611Y-98589515D01*
X73923154Y-98681640D01*
X73920167Y-98759830D01*
X73916600Y-98825551D01*
X73912401Y-98880269D01*
X73907516Y-98925449D01*
X73901896Y-98962558D01*
X73895487Y-98993062D01*
X73888237Y-99018426D01*
X73880095Y-99040115D01*
X73871010Y-99059597D01*
X73860927Y-99078337D01*
X73849797Y-99097800D01*
X73842883Y-99109924D01*
X73797264Y-99190757D01*
X74939769Y-99190757D01*
X74939769Y-99063006D01*
X74940743Y-99005273D01*
X74943342Y-98961119D01*
X74947082Y-98937446D01*
X74948735Y-98935254D01*
X74963942Y-98944419D01*
X74994183Y-98968175D01*
X75024405Y-98993969D01*
X75097076Y-99048201D01*
X75189577Y-99102792D01*
X75292161Y-99152725D01*
X75395081Y-99192987D01*
X75436157Y-99205833D01*
X75527351Y-99225225D01*
X75637657Y-99238487D01*
X75756671Y-99245202D01*
X75873995Y-99244953D01*
X75979227Y-99237324D01*
X76029414Y-99229592D01*
X76213270Y-99178918D01*
X76382755Y-99102067D01*
X76536954Y-98999737D01*
X76674956Y-98872628D01*
X76795849Y-98721440D01*
X76884786Y-98573927D01*
X76957835Y-98418483D01*
X77013752Y-98259586D01*
X77053689Y-98091843D01*
X77078793Y-97909861D01*
X77090214Y-97708245D01*
X77091181Y-97605136D01*
X77088393Y-97529545D01*
X75984540Y-97529545D01*
X75984263Y-97653452D01*
X75980385Y-97770199D01*
X75972846Y-97872820D01*
X75961589Y-97954349D01*
X75958149Y-97970779D01*
X75915811Y-98113612D01*
X75860348Y-98229473D01*
X75791297Y-98318654D01*
X75708196Y-98381444D01*
X75610582Y-98418137D01*
X75497990Y-98429021D01*
X75369959Y-98414390D01*
X75285449Y-98393458D01*
X75220022Y-98369241D01*
X75147957Y-98334828D01*
X75093822Y-98303272D01*
X74999887Y-98241540D01*
X74999887Y-96710220D01*
X75089631Y-96652216D01*
X75194177Y-96597733D01*
X75306258Y-96562251D01*
X75419589Y-96546376D01*
X75527883Y-96550712D01*
X75624855Y-96575865D01*
X75667397Y-96596593D01*
X75744515Y-96653838D01*
X75809695Y-96729422D01*
X75864487Y-96826108D01*
X75910439Y-96946658D01*
X75949103Y-97093833D01*
X75950809Y-97101645D01*
X75964350Y-97184527D01*
X75974524Y-97288116D01*
X75981274Y-97405444D01*
X75984540Y-97529545D01*
X77088393Y-97529545D01*
X77080728Y-97321801D01*
X77051512Y-97061073D01*
X77003604Y-96823123D01*
X76937072Y-96608124D01*
X76851985Y-96416250D01*
X76748413Y-96247674D01*
X76626425Y-96102568D01*
X76486089Y-95981105D01*
X76425959Y-95939898D01*
X76291559Y-95865145D01*
X76154043Y-95812409D01*
X76007476Y-95780243D01*
X75845927Y-95767203D01*
X75722769Y-95768595D01*
X75550152Y-95783195D01*
X75400249Y-95812239D01*
X75268722Y-95857063D01*
X75151235Y-95919000D01*
X75086177Y-95964549D01*
X75047080Y-95993725D01*
X75018202Y-96013656D01*
X75007272Y-96019515D01*
X75005122Y-96005097D01*
X75003404Y-95964287D01*
X75002100Y-95900747D01*
X75001195Y-95818140D01*
X75000672Y-95720130D01*
X75000513Y-95610379D01*
X75000702Y-95492551D01*
X75001222Y-95370307D01*
X75002056Y-95247313D01*
X75003188Y-95127230D01*
X75004601Y-95013721D01*
X75006277Y-94910450D01*
X75008200Y-94821080D01*
X75010354Y-94749273D01*
X75012720Y-94698693D01*
X75013375Y-94689396D01*
X75023463Y-94595647D01*
X75038855Y-94522224D01*
X75062472Y-94459489D01*
X75097233Y-94397802D01*
X75105577Y-94385047D01*
X75138105Y-94336201D01*
X73932787Y-94336201D01*
X73932526Y-96579367D01*
X73932526Y-96579367D01*
G37*
X73932526Y-96579367D02*
X73932500Y-96891461D01*
X73932465Y-97174962D01*
X73932369Y-97431336D01*
X73932159Y-97662048D01*
X73931784Y-97868565D01*
X73931191Y-98052351D01*
X73930330Y-98214874D01*
X73929147Y-98357598D01*
X73927592Y-98481990D01*
X73925611Y-98589515D01*
X73923154Y-98681640D01*
X73920167Y-98759830D01*
X73916600Y-98825551D01*
X73912401Y-98880269D01*
X73907516Y-98925449D01*
X73901896Y-98962558D01*
X73895487Y-98993062D01*
X73888237Y-99018426D01*
X73880095Y-99040115D01*
X73871010Y-99059597D01*
X73860927Y-99078337D01*
X73849797Y-99097800D01*
X73842883Y-99109924D01*
X73797264Y-99190757D01*
X74939769Y-99190757D01*
X74939769Y-99063006D01*
X74940743Y-99005273D01*
X74943342Y-98961119D01*
X74947082Y-98937446D01*
X74948735Y-98935254D01*
X74963942Y-98944419D01*
X74994183Y-98968175D01*
X75024405Y-98993969D01*
X75097076Y-99048201D01*
X75189577Y-99102792D01*
X75292161Y-99152725D01*
X75395081Y-99192987D01*
X75436157Y-99205833D01*
X75527351Y-99225225D01*
X75637657Y-99238487D01*
X75756671Y-99245202D01*
X75873995Y-99244953D01*
X75979227Y-99237324D01*
X76029414Y-99229592D01*
X76213270Y-99178918D01*
X76382755Y-99102067D01*
X76536954Y-98999737D01*
X76674956Y-98872628D01*
X76795849Y-98721440D01*
X76884786Y-98573927D01*
X76957835Y-98418483D01*
X77013752Y-98259586D01*
X77053689Y-98091843D01*
X77078793Y-97909861D01*
X77090214Y-97708245D01*
X77091181Y-97605136D01*
X77088393Y-97529545D01*
X75984540Y-97529545D01*
X75984263Y-97653452D01*
X75980385Y-97770199D01*
X75972846Y-97872820D01*
X75961589Y-97954349D01*
X75958149Y-97970779D01*
X75915811Y-98113612D01*
X75860348Y-98229473D01*
X75791297Y-98318654D01*
X75708196Y-98381444D01*
X75610582Y-98418137D01*
X75497990Y-98429021D01*
X75369959Y-98414390D01*
X75285449Y-98393458D01*
X75220022Y-98369241D01*
X75147957Y-98334828D01*
X75093822Y-98303272D01*
X74999887Y-98241540D01*
X74999887Y-96710220D01*
X75089631Y-96652216D01*
X75194177Y-96597733D01*
X75306258Y-96562251D01*
X75419589Y-96546376D01*
X75527883Y-96550712D01*
X75624855Y-96575865D01*
X75667397Y-96596593D01*
X75744515Y-96653838D01*
X75809695Y-96729422D01*
X75864487Y-96826108D01*
X75910439Y-96946658D01*
X75949103Y-97093833D01*
X75950809Y-97101645D01*
X75964350Y-97184527D01*
X75974524Y-97288116D01*
X75981274Y-97405444D01*
X75984540Y-97529545D01*
X77088393Y-97529545D01*
X77080728Y-97321801D01*
X77051512Y-97061073D01*
X77003604Y-96823123D01*
X76937072Y-96608124D01*
X76851985Y-96416250D01*
X76748413Y-96247674D01*
X76626425Y-96102568D01*
X76486089Y-95981105D01*
X76425959Y-95939898D01*
X76291559Y-95865145D01*
X76154043Y-95812409D01*
X76007476Y-95780243D01*
X75845927Y-95767203D01*
X75722769Y-95768595D01*
X75550152Y-95783195D01*
X75400249Y-95812239D01*
X75268722Y-95857063D01*
X75151235Y-95919000D01*
X75086177Y-95964549D01*
X75047080Y-95993725D01*
X75018202Y-96013656D01*
X75007272Y-96019515D01*
X75005122Y-96005097D01*
X75003404Y-95964287D01*
X75002100Y-95900747D01*
X75001195Y-95818140D01*
X75000672Y-95720130D01*
X75000513Y-95610379D01*
X75000702Y-95492551D01*
X75001222Y-95370307D01*
X75002056Y-95247313D01*
X75003188Y-95127230D01*
X75004601Y-95013721D01*
X75006277Y-94910450D01*
X75008200Y-94821080D01*
X75010354Y-94749273D01*
X75012720Y-94698693D01*
X75013375Y-94689396D01*
X75023463Y-94595647D01*
X75038855Y-94522224D01*
X75062472Y-94459489D01*
X75097233Y-94397802D01*
X75105577Y-94385047D01*
X75138105Y-94336201D01*
X73932787Y-94336201D01*
X73932526Y-96579367D01*
G36*
X85195240Y-93323293D02*
X85067063Y-93355562D01*
X84951789Y-93412587D01*
X84852189Y-93492172D01*
X84771035Y-93592125D01*
X84711098Y-93710251D01*
X84676134Y-93838475D01*
X84668344Y-93967969D01*
X84688120Y-94092929D01*
X84732988Y-94209899D01*
X84800472Y-94315422D01*
X84888098Y-94406042D01*
X84993393Y-94478303D01*
X85113882Y-94528748D01*
X85182135Y-94545288D01*
X85241378Y-94555302D01*
X85287046Y-94559259D01*
X85330928Y-94556830D01*
X85384814Y-94547684D01*
X85428877Y-94538398D01*
X85553248Y-94496447D01*
X85664647Y-94428383D01*
X85760565Y-94336269D01*
X85838496Y-94222170D01*
X85857067Y-94185905D01*
X85878951Y-94137487D01*
X85892675Y-94096828D01*
X85900085Y-94054049D01*
X85903027Y-93999272D01*
X85903397Y-93937917D01*
X85897957Y-93825606D01*
X85880096Y-93733371D01*
X85846559Y-93652658D01*
X85794090Y-93574914D01*
X85742769Y-93515982D01*
X85647054Y-93428355D01*
X85547078Y-93367868D01*
X85436907Y-93331653D01*
X85333549Y-93317973D01*
X85195240Y-93323293D01*
X85195240Y-93323293D01*
G37*
X85195240Y-93323293D02*
X85067063Y-93355562D01*
X84951789Y-93412587D01*
X84852189Y-93492172D01*
X84771035Y-93592125D01*
X84711098Y-93710251D01*
X84676134Y-93838475D01*
X84668344Y-93967969D01*
X84688120Y-94092929D01*
X84732988Y-94209899D01*
X84800472Y-94315422D01*
X84888098Y-94406042D01*
X84993393Y-94478303D01*
X85113882Y-94528748D01*
X85182135Y-94545288D01*
X85241378Y-94555302D01*
X85287046Y-94559259D01*
X85330928Y-94556830D01*
X85384814Y-94547684D01*
X85428877Y-94538398D01*
X85553248Y-94496447D01*
X85664647Y-94428383D01*
X85760565Y-94336269D01*
X85838496Y-94222170D01*
X85857067Y-94185905D01*
X85878951Y-94137487D01*
X85892675Y-94096828D01*
X85900085Y-94054049D01*
X85903027Y-93999272D01*
X85903397Y-93937917D01*
X85897957Y-93825606D01*
X85880096Y-93733371D01*
X85846559Y-93652658D01*
X85794090Y-93574914D01*
X85742769Y-93515982D01*
X85647054Y-93428355D01*
X85547078Y-93367868D01*
X85436907Y-93331653D01*
X85333549Y-93317973D01*
X85195240Y-93323293D01*
D14*
X52808047Y-73102743D02*
X52855666Y-73150362D01*
X52998523Y-73197981D01*
X53093761Y-73197981D01*
X53236619Y-73150362D01*
X53331857Y-73055124D01*
X53379476Y-72959886D01*
X53427095Y-72769410D01*
X53427095Y-72626552D01*
X53379476Y-72436076D01*
X53331857Y-72340838D01*
X53236619Y-72245600D01*
X53093761Y-72197981D01*
X52998523Y-72197981D01*
X52855666Y-72245600D01*
X52808047Y-72293219D01*
X51950904Y-72531314D02*
X51950904Y-73197981D01*
X52189000Y-72150362D02*
X52427095Y-72864648D01*
X51808047Y-72864648D01*
X51236619Y-72197981D02*
X51141380Y-72197981D01*
X51046142Y-72245600D01*
X50998523Y-72293219D01*
X50950904Y-72388457D01*
X50903285Y-72578933D01*
X50903285Y-72817029D01*
X50950904Y-73007505D01*
X50998523Y-73102743D01*
X51046142Y-73150362D01*
X51141380Y-73197981D01*
X51236619Y-73197981D01*
X51331857Y-73150362D01*
X51379476Y-73102743D01*
X51427095Y-73007505D01*
X51474714Y-72817029D01*
X51474714Y-72578933D01*
X51427095Y-72388457D01*
X51379476Y-72293219D01*
X51331857Y-72245600D01*
X51236619Y-72197981D01*
X50046142Y-72531314D02*
X50046142Y-73197981D01*
X50284238Y-72150362D02*
X50522333Y-72864648D01*
X49903285Y-72864648D01*
X50331476Y-69032381D02*
X50331476Y-68032381D01*
X50093381Y-68032381D01*
X49950523Y-68080000D01*
X49855285Y-68175238D01*
X49807666Y-68270476D01*
X49760047Y-68460952D01*
X49760047Y-68603810D01*
X49807666Y-68794286D01*
X49855285Y-68889524D01*
X49950523Y-68984762D01*
X50093381Y-69032381D01*
X50331476Y-69032381D01*
X49426714Y-68032381D02*
X48807666Y-68032381D01*
X49141000Y-68413333D01*
X48998142Y-68413333D01*
X48902904Y-68460952D01*
X48855285Y-68508571D01*
X48807666Y-68603810D01*
X48807666Y-68841905D01*
X48855285Y-68937143D01*
X48902904Y-68984762D01*
X48998142Y-69032381D01*
X49283857Y-69032381D01*
X49379095Y-68984762D01*
X49426714Y-68937143D01*
X48188619Y-68032381D02*
X48093380Y-68032381D01*
X47998142Y-68080000D01*
X47950523Y-68127619D01*
X47902904Y-68222857D01*
X47855285Y-68413333D01*
X47855285Y-68651429D01*
X47902904Y-68841905D01*
X47950523Y-68937143D01*
X47998142Y-68984762D01*
X48093380Y-69032381D01*
X48188619Y-69032381D01*
X48283857Y-68984762D01*
X48331476Y-68937143D01*
X48379095Y-68841905D01*
X48426714Y-68651429D01*
X48426714Y-68413333D01*
X48379095Y-68222857D01*
X48331476Y-68127619D01*
X48283857Y-68080000D01*
X48188619Y-68032381D01*
X47474333Y-68127619D02*
X47426714Y-68080000D01*
X47331476Y-68032381D01*
X47093380Y-68032381D01*
X46998142Y-68080000D01*
X46950523Y-68127619D01*
X46902904Y-68222857D01*
X46902904Y-68318095D01*
X46950523Y-68460952D01*
X47521952Y-69032381D01*
X46902904Y-69032381D01*
X62510943Y-81811953D02*
X62558562Y-81764334D01*
X62606181Y-81621477D01*
X62606181Y-81526239D01*
X62558562Y-81383381D01*
X62463324Y-81288143D01*
X62368086Y-81240524D01*
X62177610Y-81192905D01*
X62034752Y-81192905D01*
X61844276Y-81240524D01*
X61749038Y-81288143D01*
X61653800Y-81383381D01*
X61606181Y-81526239D01*
X61606181Y-81621477D01*
X61653800Y-81764334D01*
X61701419Y-81811953D01*
X61701419Y-82192905D02*
X61653800Y-82240524D01*
X61606181Y-82335762D01*
X61606181Y-82573858D01*
X61653800Y-82669096D01*
X61701419Y-82716715D01*
X61796657Y-82764334D01*
X61891895Y-82764334D01*
X62034752Y-82716715D01*
X62606181Y-82145286D01*
X62606181Y-82764334D01*
X61606181Y-83383381D02*
X61606181Y-83478620D01*
X61653800Y-83573858D01*
X61701419Y-83621477D01*
X61796657Y-83669096D01*
X61987133Y-83716715D01*
X62225229Y-83716715D01*
X62415705Y-83669096D01*
X62510943Y-83621477D01*
X62558562Y-83573858D01*
X62606181Y-83478620D01*
X62606181Y-83383381D01*
X62558562Y-83288143D01*
X62510943Y-83240524D01*
X62415705Y-83192905D01*
X62225229Y-83145286D01*
X61987133Y-83145286D01*
X61796657Y-83192905D01*
X61701419Y-83240524D01*
X61653800Y-83288143D01*
X61606181Y-83383381D01*
X61701419Y-84097667D02*
X61653800Y-84145286D01*
X61606181Y-84240524D01*
X61606181Y-84478620D01*
X61653800Y-84573858D01*
X61701419Y-84621477D01*
X61796657Y-84669096D01*
X61891895Y-84669096D01*
X62034752Y-84621477D01*
X62606181Y-84050048D01*
X62606181Y-84669096D01*
X61190047Y-78843143D02*
X61237666Y-78890762D01*
X61380523Y-78938381D01*
X61475761Y-78938381D01*
X61618619Y-78890762D01*
X61713857Y-78795524D01*
X61761476Y-78700286D01*
X61809095Y-78509810D01*
X61809095Y-78366952D01*
X61761476Y-78176476D01*
X61713857Y-78081238D01*
X61618619Y-77986000D01*
X61475761Y-77938381D01*
X61380523Y-77938381D01*
X61237666Y-77986000D01*
X61190047Y-78033619D01*
X60809095Y-78033619D02*
X60761476Y-77986000D01*
X60666238Y-77938381D01*
X60428142Y-77938381D01*
X60332904Y-77986000D01*
X60285285Y-78033619D01*
X60237666Y-78128857D01*
X60237666Y-78224095D01*
X60285285Y-78366952D01*
X60856714Y-78938381D01*
X60237666Y-78938381D01*
X59618619Y-77938381D02*
X59523380Y-77938381D01*
X59428142Y-77986000D01*
X59380523Y-78033619D01*
X59332904Y-78128857D01*
X59285285Y-78319333D01*
X59285285Y-78557429D01*
X59332904Y-78747905D01*
X59380523Y-78843143D01*
X59428142Y-78890762D01*
X59523380Y-78938381D01*
X59618619Y-78938381D01*
X59713857Y-78890762D01*
X59761476Y-78843143D01*
X59809095Y-78747905D01*
X59856714Y-78557429D01*
X59856714Y-78319333D01*
X59809095Y-78128857D01*
X59761476Y-78033619D01*
X59713857Y-77986000D01*
X59618619Y-77938381D01*
X58428142Y-78271714D02*
X58428142Y-78938381D01*
X58666238Y-77890762D02*
X58904333Y-78605048D01*
X58285285Y-78605048D01*
X78563743Y-79144953D02*
X78611362Y-79097334D01*
X78658981Y-78954477D01*
X78658981Y-78859239D01*
X78611362Y-78716381D01*
X78516124Y-78621143D01*
X78420886Y-78573524D01*
X78230410Y-78525905D01*
X78087552Y-78525905D01*
X77897076Y-78573524D01*
X77801838Y-78621143D01*
X77706600Y-78716381D01*
X77658981Y-78859239D01*
X77658981Y-78954477D01*
X77706600Y-79097334D01*
X77754219Y-79144953D01*
X77754219Y-79525905D02*
X77706600Y-79573524D01*
X77658981Y-79668762D01*
X77658981Y-79906858D01*
X77706600Y-80002096D01*
X77754219Y-80049715D01*
X77849457Y-80097334D01*
X77944695Y-80097334D01*
X78087552Y-80049715D01*
X78658981Y-79478286D01*
X78658981Y-80097334D01*
X77658981Y-80716381D02*
X77658981Y-80811620D01*
X77706600Y-80906858D01*
X77754219Y-80954477D01*
X77849457Y-81002096D01*
X78039933Y-81049715D01*
X78278029Y-81049715D01*
X78468505Y-81002096D01*
X78563743Y-80954477D01*
X78611362Y-80906858D01*
X78658981Y-80811620D01*
X78658981Y-80716381D01*
X78611362Y-80621143D01*
X78563743Y-80573524D01*
X78468505Y-80525905D01*
X78278029Y-80478286D01*
X78039933Y-80478286D01*
X77849457Y-80525905D01*
X77754219Y-80573524D01*
X77706600Y-80621143D01*
X77658981Y-80716381D01*
X77658981Y-81383048D02*
X77658981Y-82002096D01*
X78039933Y-81668762D01*
X78039933Y-81811620D01*
X78087552Y-81906858D01*
X78135171Y-81954477D01*
X78230410Y-82002096D01*
X78468505Y-82002096D01*
X78563743Y-81954477D01*
X78611362Y-81906858D01*
X78658981Y-81811620D01*
X78658981Y-81525905D01*
X78611362Y-81430667D01*
X78563743Y-81383048D01*
X61190047Y-77065143D02*
X61237666Y-77112762D01*
X61380523Y-77160381D01*
X61475761Y-77160381D01*
X61618619Y-77112762D01*
X61713857Y-77017524D01*
X61761476Y-76922286D01*
X61809095Y-76731810D01*
X61809095Y-76588952D01*
X61761476Y-76398476D01*
X61713857Y-76303238D01*
X61618619Y-76208000D01*
X61475761Y-76160381D01*
X61380523Y-76160381D01*
X61237666Y-76208000D01*
X61190047Y-76255619D01*
X60809095Y-76255619D02*
X60761476Y-76208000D01*
X60666238Y-76160381D01*
X60428142Y-76160381D01*
X60332904Y-76208000D01*
X60285285Y-76255619D01*
X60237666Y-76350857D01*
X60237666Y-76446095D01*
X60285285Y-76588952D01*
X60856714Y-77160381D01*
X60237666Y-77160381D01*
X59618619Y-76160381D02*
X59523380Y-76160381D01*
X59428142Y-76208000D01*
X59380523Y-76255619D01*
X59332904Y-76350857D01*
X59285285Y-76541333D01*
X59285285Y-76779429D01*
X59332904Y-76969905D01*
X59380523Y-77065143D01*
X59428142Y-77112762D01*
X59523380Y-77160381D01*
X59618619Y-77160381D01*
X59713857Y-77112762D01*
X59761476Y-77065143D01*
X59809095Y-76969905D01*
X59856714Y-76779429D01*
X59856714Y-76541333D01*
X59809095Y-76350857D01*
X59761476Y-76255619D01*
X59713857Y-76208000D01*
X59618619Y-76160381D01*
X58380523Y-76160381D02*
X58856714Y-76160381D01*
X58904333Y-76636571D01*
X58856714Y-76588952D01*
X58761476Y-76541333D01*
X58523380Y-76541333D01*
X58428142Y-76588952D01*
X58380523Y-76636571D01*
X58332904Y-76731810D01*
X58332904Y-76969905D01*
X58380523Y-77065143D01*
X58428142Y-77112762D01*
X58523380Y-77160381D01*
X58761476Y-77160381D01*
X58856714Y-77112762D01*
X58904333Y-77065143D01*
X52808047Y-51685143D02*
X52855666Y-51732762D01*
X52998523Y-51780381D01*
X53093761Y-51780381D01*
X53236619Y-51732762D01*
X53331857Y-51637524D01*
X53379476Y-51542286D01*
X53427095Y-51351810D01*
X53427095Y-51208952D01*
X53379476Y-51018476D01*
X53331857Y-50923238D01*
X53236619Y-50828000D01*
X53093761Y-50780381D01*
X52998523Y-50780381D01*
X52855666Y-50828000D01*
X52808047Y-50875619D01*
X52474714Y-50780381D02*
X51855666Y-50780381D01*
X52189000Y-51161333D01*
X52046142Y-51161333D01*
X51950904Y-51208952D01*
X51903285Y-51256571D01*
X51855666Y-51351810D01*
X51855666Y-51589905D01*
X51903285Y-51685143D01*
X51950904Y-51732762D01*
X52046142Y-51780381D01*
X52331857Y-51780381D01*
X52427095Y-51732762D01*
X52474714Y-51685143D01*
X51236619Y-50780381D02*
X51141380Y-50780381D01*
X51046142Y-50828000D01*
X50998523Y-50875619D01*
X50950904Y-50970857D01*
X50903285Y-51161333D01*
X50903285Y-51399429D01*
X50950904Y-51589905D01*
X50998523Y-51685143D01*
X51046142Y-51732762D01*
X51141380Y-51780381D01*
X51236619Y-51780381D01*
X51331857Y-51732762D01*
X51379476Y-51685143D01*
X51427095Y-51589905D01*
X51474714Y-51399429D01*
X51474714Y-51161333D01*
X51427095Y-50970857D01*
X51379476Y-50875619D01*
X51331857Y-50828000D01*
X51236619Y-50780381D01*
X49950904Y-51780381D02*
X50522333Y-51780381D01*
X50236619Y-51780381D02*
X50236619Y-50780381D01*
X50331857Y-50923238D01*
X50427095Y-51018476D01*
X50522333Y-51066095D01*
X52808047Y-56491143D02*
X52855666Y-56538762D01*
X52998523Y-56586381D01*
X53093761Y-56586381D01*
X53236619Y-56538762D01*
X53331857Y-56443524D01*
X53379476Y-56348286D01*
X53427095Y-56157810D01*
X53427095Y-56014952D01*
X53379476Y-55824476D01*
X53331857Y-55729238D01*
X53236619Y-55634000D01*
X53093761Y-55586381D01*
X52998523Y-55586381D01*
X52855666Y-55634000D01*
X52808047Y-55681619D01*
X52474714Y-55586381D02*
X51855666Y-55586381D01*
X52189000Y-55967333D01*
X52046142Y-55967333D01*
X51950904Y-56014952D01*
X51903285Y-56062571D01*
X51855666Y-56157810D01*
X51855666Y-56395905D01*
X51903285Y-56491143D01*
X51950904Y-56538762D01*
X52046142Y-56586381D01*
X52331857Y-56586381D01*
X52427095Y-56538762D01*
X52474714Y-56491143D01*
X51236619Y-55586381D02*
X51141380Y-55586381D01*
X51046142Y-55634000D01*
X50998523Y-55681619D01*
X50950904Y-55776857D01*
X50903285Y-55967333D01*
X50903285Y-56205429D01*
X50950904Y-56395905D01*
X50998523Y-56491143D01*
X51046142Y-56538762D01*
X51141380Y-56586381D01*
X51236619Y-56586381D01*
X51331857Y-56538762D01*
X51379476Y-56491143D01*
X51427095Y-56395905D01*
X51474714Y-56205429D01*
X51474714Y-55967333D01*
X51427095Y-55776857D01*
X51379476Y-55681619D01*
X51331857Y-55634000D01*
X51236619Y-55586381D01*
X50522333Y-55681619D02*
X50474714Y-55634000D01*
X50379476Y-55586381D01*
X50141380Y-55586381D01*
X50046142Y-55634000D01*
X49998523Y-55681619D01*
X49950904Y-55776857D01*
X49950904Y-55872095D01*
X49998523Y-56014952D01*
X50569952Y-56586381D01*
X49950904Y-56586381D01*
X66295543Y-64641553D02*
X66343162Y-64593934D01*
X66390781Y-64451077D01*
X66390781Y-64355839D01*
X66343162Y-64212981D01*
X66247924Y-64117743D01*
X66152686Y-64070124D01*
X65962210Y-64022505D01*
X65819352Y-64022505D01*
X65628876Y-64070124D01*
X65533638Y-64117743D01*
X65438400Y-64212981D01*
X65390781Y-64355839D01*
X65390781Y-64451077D01*
X65438400Y-64593934D01*
X65486019Y-64641553D01*
X65390781Y-64974886D02*
X65390781Y-65593934D01*
X65771733Y-65260600D01*
X65771733Y-65403458D01*
X65819352Y-65498696D01*
X65866971Y-65546315D01*
X65962210Y-65593934D01*
X66200305Y-65593934D01*
X66295543Y-65546315D01*
X66343162Y-65498696D01*
X66390781Y-65403458D01*
X66390781Y-65117743D01*
X66343162Y-65022505D01*
X66295543Y-64974886D01*
X65390781Y-66212981D02*
X65390781Y-66308220D01*
X65438400Y-66403458D01*
X65486019Y-66451077D01*
X65581257Y-66498696D01*
X65771733Y-66546315D01*
X66009829Y-66546315D01*
X66200305Y-66498696D01*
X66295543Y-66451077D01*
X66343162Y-66403458D01*
X66390781Y-66308220D01*
X66390781Y-66212981D01*
X66343162Y-66117743D01*
X66295543Y-66070124D01*
X66200305Y-66022505D01*
X66009829Y-65974886D01*
X65771733Y-65974886D01*
X65581257Y-66022505D01*
X65486019Y-66070124D01*
X65438400Y-66117743D01*
X65390781Y-66212981D01*
X65724114Y-67403458D02*
X66390781Y-67403458D01*
X65343162Y-67165362D02*
X66057448Y-66927267D01*
X66057448Y-67546315D01*
X39790547Y-89638143D02*
X39838166Y-89685762D01*
X39981023Y-89733381D01*
X40076261Y-89733381D01*
X40219119Y-89685762D01*
X40314357Y-89590524D01*
X40361976Y-89495286D01*
X40409595Y-89304810D01*
X40409595Y-89161952D01*
X40361976Y-88971476D01*
X40314357Y-88876238D01*
X40219119Y-88781000D01*
X40076261Y-88733381D01*
X39981023Y-88733381D01*
X39838166Y-88781000D01*
X39790547Y-88828619D01*
X38933404Y-89066714D02*
X38933404Y-89733381D01*
X39171500Y-88685762D02*
X39409595Y-89400048D01*
X38790547Y-89400048D01*
X38219119Y-88733381D02*
X38123880Y-88733381D01*
X38028642Y-88781000D01*
X37981023Y-88828619D01*
X37933404Y-88923857D01*
X37885785Y-89114333D01*
X37885785Y-89352429D01*
X37933404Y-89542905D01*
X37981023Y-89638143D01*
X38028642Y-89685762D01*
X38123880Y-89733381D01*
X38219119Y-89733381D01*
X38314357Y-89685762D01*
X38361976Y-89638143D01*
X38409595Y-89542905D01*
X38457214Y-89352429D01*
X38457214Y-89114333D01*
X38409595Y-88923857D01*
X38361976Y-88828619D01*
X38314357Y-88781000D01*
X38219119Y-88733381D01*
X37504833Y-88828619D02*
X37457214Y-88781000D01*
X37361976Y-88733381D01*
X37123880Y-88733381D01*
X37028642Y-88781000D01*
X36981023Y-88828619D01*
X36933404Y-88923857D01*
X36933404Y-89019095D01*
X36981023Y-89161952D01*
X37552452Y-89733381D01*
X36933404Y-89733381D01*
X37822143Y-78382953D02*
X37869762Y-78335334D01*
X37917381Y-78192477D01*
X37917381Y-78097239D01*
X37869762Y-77954381D01*
X37774524Y-77859143D01*
X37679286Y-77811524D01*
X37488810Y-77763905D01*
X37345952Y-77763905D01*
X37155476Y-77811524D01*
X37060238Y-77859143D01*
X36965000Y-77954381D01*
X36917381Y-78097239D01*
X36917381Y-78192477D01*
X36965000Y-78335334D01*
X37012619Y-78382953D01*
X37250714Y-79240096D02*
X37917381Y-79240096D01*
X36869762Y-79002000D02*
X37584048Y-78763905D01*
X37584048Y-79382953D01*
X36917381Y-79954381D02*
X36917381Y-80049620D01*
X36965000Y-80144858D01*
X37012619Y-80192477D01*
X37107857Y-80240096D01*
X37298333Y-80287715D01*
X37536429Y-80287715D01*
X37726905Y-80240096D01*
X37822143Y-80192477D01*
X37869762Y-80144858D01*
X37917381Y-80049620D01*
X37917381Y-79954381D01*
X37869762Y-79859143D01*
X37822143Y-79811524D01*
X37726905Y-79763905D01*
X37536429Y-79716286D01*
X37298333Y-79716286D01*
X37107857Y-79763905D01*
X37012619Y-79811524D01*
X36965000Y-79859143D01*
X36917381Y-79954381D01*
X37917381Y-81240096D02*
X37917381Y-80668667D01*
X37917381Y-80954381D02*
X36917381Y-80954381D01*
X37060238Y-80859143D01*
X37155476Y-80763905D01*
X37203095Y-80668667D01*
X50331476Y-62682381D02*
X50331476Y-61682381D01*
X50093381Y-61682381D01*
X49950523Y-61730000D01*
X49855285Y-61825238D01*
X49807666Y-61920476D01*
X49760047Y-62110952D01*
X49760047Y-62253810D01*
X49807666Y-62444286D01*
X49855285Y-62539524D01*
X49950523Y-62634762D01*
X50093381Y-62682381D01*
X50331476Y-62682381D01*
X49426714Y-61682381D02*
X48807666Y-61682381D01*
X49141000Y-62063333D01*
X48998142Y-62063333D01*
X48902904Y-62110952D01*
X48855285Y-62158571D01*
X48807666Y-62253810D01*
X48807666Y-62491905D01*
X48855285Y-62587143D01*
X48902904Y-62634762D01*
X48998142Y-62682381D01*
X49283857Y-62682381D01*
X49379095Y-62634762D01*
X49426714Y-62587143D01*
X48188619Y-61682381D02*
X48093380Y-61682381D01*
X47998142Y-61730000D01*
X47950523Y-61777619D01*
X47902904Y-61872857D01*
X47855285Y-62063333D01*
X47855285Y-62301429D01*
X47902904Y-62491905D01*
X47950523Y-62587143D01*
X47998142Y-62634762D01*
X48093380Y-62682381D01*
X48188619Y-62682381D01*
X48283857Y-62634762D01*
X48331476Y-62587143D01*
X48379095Y-62491905D01*
X48426714Y-62301429D01*
X48426714Y-62063333D01*
X48379095Y-61872857D01*
X48331476Y-61777619D01*
X48283857Y-61730000D01*
X48188619Y-61682381D01*
X46902904Y-62682381D02*
X47474333Y-62682381D01*
X47188619Y-62682381D02*
X47188619Y-61682381D01*
X47283857Y-61825238D01*
X47379095Y-61920476D01*
X47474333Y-61968095D01*
X55246447Y-76652381D02*
X55579781Y-76176190D01*
X55817876Y-76652381D02*
X55817876Y-75652381D01*
X55436923Y-75652381D01*
X55341685Y-75700000D01*
X55294066Y-75747619D01*
X55246447Y-75842857D01*
X55246447Y-75985714D01*
X55294066Y-76080952D01*
X55341685Y-76128571D01*
X55436923Y-76176190D01*
X55817876Y-76176190D01*
X54865495Y-75747619D02*
X54817876Y-75700000D01*
X54722638Y-75652381D01*
X54484542Y-75652381D01*
X54389304Y-75700000D01*
X54341685Y-75747619D01*
X54294066Y-75842857D01*
X54294066Y-75938095D01*
X54341685Y-76080952D01*
X54913114Y-76652381D01*
X54294066Y-76652381D01*
X53675019Y-75652381D02*
X53579780Y-75652381D01*
X53484542Y-75700000D01*
X53436923Y-75747619D01*
X53389304Y-75842857D01*
X53341685Y-76033333D01*
X53341685Y-76271429D01*
X53389304Y-76461905D01*
X53436923Y-76557143D01*
X53484542Y-76604762D01*
X53579780Y-76652381D01*
X53675019Y-76652381D01*
X53770257Y-76604762D01*
X53817876Y-76557143D01*
X53865495Y-76461905D01*
X53913114Y-76271429D01*
X53913114Y-76033333D01*
X53865495Y-75842857D01*
X53817876Y-75747619D01*
X53770257Y-75700000D01*
X53675019Y-75652381D01*
X52389304Y-76652381D02*
X52960733Y-76652381D01*
X52675019Y-76652381D02*
X52675019Y-75652381D01*
X52770257Y-75795238D01*
X52865495Y-75890476D01*
X52960733Y-75938095D01*
X55246447Y-80767181D02*
X55579781Y-80290990D01*
X55817876Y-80767181D02*
X55817876Y-79767181D01*
X55436923Y-79767181D01*
X55341685Y-79814800D01*
X55294066Y-79862419D01*
X55246447Y-79957657D01*
X55246447Y-80100514D01*
X55294066Y-80195752D01*
X55341685Y-80243371D01*
X55436923Y-80290990D01*
X55817876Y-80290990D01*
X54865495Y-79862419D02*
X54817876Y-79814800D01*
X54722638Y-79767181D01*
X54484542Y-79767181D01*
X54389304Y-79814800D01*
X54341685Y-79862419D01*
X54294066Y-79957657D01*
X54294066Y-80052895D01*
X54341685Y-80195752D01*
X54913114Y-80767181D01*
X54294066Y-80767181D01*
X53675019Y-79767181D02*
X53579780Y-79767181D01*
X53484542Y-79814800D01*
X53436923Y-79862419D01*
X53389304Y-79957657D01*
X53341685Y-80148133D01*
X53341685Y-80386229D01*
X53389304Y-80576705D01*
X53436923Y-80671943D01*
X53484542Y-80719562D01*
X53579780Y-80767181D01*
X53675019Y-80767181D01*
X53770257Y-80719562D01*
X53817876Y-80671943D01*
X53865495Y-80576705D01*
X53913114Y-80386229D01*
X53913114Y-80148133D01*
X53865495Y-79957657D01*
X53817876Y-79862419D01*
X53770257Y-79814800D01*
X53675019Y-79767181D01*
X52960733Y-79862419D02*
X52913114Y-79814800D01*
X52817876Y-79767181D01*
X52579780Y-79767181D01*
X52484542Y-79814800D01*
X52436923Y-79862419D01*
X52389304Y-79957657D01*
X52389304Y-80052895D01*
X52436923Y-80195752D01*
X53008352Y-80767181D01*
X52389304Y-80767181D01*
X42648047Y-70759581D02*
X42981381Y-70283390D01*
X43219476Y-70759581D02*
X43219476Y-69759581D01*
X42838523Y-69759581D01*
X42743285Y-69807200D01*
X42695666Y-69854819D01*
X42648047Y-69950057D01*
X42648047Y-70092914D01*
X42695666Y-70188152D01*
X42743285Y-70235771D01*
X42838523Y-70283390D01*
X43219476Y-70283390D01*
X41790904Y-70092914D02*
X41790904Y-70759581D01*
X42029000Y-69711962D02*
X42267095Y-70426248D01*
X41648047Y-70426248D01*
X41076619Y-69759581D02*
X40981380Y-69759581D01*
X40886142Y-69807200D01*
X40838523Y-69854819D01*
X40790904Y-69950057D01*
X40743285Y-70140533D01*
X40743285Y-70378629D01*
X40790904Y-70569105D01*
X40838523Y-70664343D01*
X40886142Y-70711962D01*
X40981380Y-70759581D01*
X41076619Y-70759581D01*
X41171857Y-70711962D01*
X41219476Y-70664343D01*
X41267095Y-70569105D01*
X41314714Y-70378629D01*
X41314714Y-70140533D01*
X41267095Y-69950057D01*
X41219476Y-69854819D01*
X41171857Y-69807200D01*
X41076619Y-69759581D01*
X39790904Y-70759581D02*
X40362333Y-70759581D01*
X40076619Y-70759581D02*
X40076619Y-69759581D01*
X40171857Y-69902438D01*
X40267095Y-69997676D01*
X40362333Y-70045295D01*
X47728047Y-70759581D02*
X48061381Y-70283390D01*
X48299476Y-70759581D02*
X48299476Y-69759581D01*
X47918523Y-69759581D01*
X47823285Y-69807200D01*
X47775666Y-69854819D01*
X47728047Y-69950057D01*
X47728047Y-70092914D01*
X47775666Y-70188152D01*
X47823285Y-70235771D01*
X47918523Y-70283390D01*
X48299476Y-70283390D01*
X46870904Y-70092914D02*
X46870904Y-70759581D01*
X47109000Y-69711962D02*
X47347095Y-70426248D01*
X46728047Y-70426248D01*
X46156619Y-69759581D02*
X46061380Y-69759581D01*
X45966142Y-69807200D01*
X45918523Y-69854819D01*
X45870904Y-69950057D01*
X45823285Y-70140533D01*
X45823285Y-70378629D01*
X45870904Y-70569105D01*
X45918523Y-70664343D01*
X45966142Y-70711962D01*
X46061380Y-70759581D01*
X46156619Y-70759581D01*
X46251857Y-70711962D01*
X46299476Y-70664343D01*
X46347095Y-70569105D01*
X46394714Y-70378629D01*
X46394714Y-70140533D01*
X46347095Y-69950057D01*
X46299476Y-69854819D01*
X46251857Y-69807200D01*
X46156619Y-69759581D01*
X45442333Y-69854819D02*
X45394714Y-69807200D01*
X45299476Y-69759581D01*
X45061380Y-69759581D01*
X44966142Y-69807200D01*
X44918523Y-69854819D01*
X44870904Y-69950057D01*
X44870904Y-70045295D01*
X44918523Y-70188152D01*
X45489952Y-70759581D01*
X44870904Y-70759581D01*
X86780476Y-66289181D02*
X86780476Y-65289181D01*
X86542381Y-65289181D01*
X86399523Y-65336800D01*
X86304285Y-65432038D01*
X86256666Y-65527276D01*
X86209047Y-65717752D01*
X86209047Y-65860610D01*
X86256666Y-66051086D01*
X86304285Y-66146324D01*
X86399523Y-66241562D01*
X86542381Y-66289181D01*
X86780476Y-66289181D01*
X85304285Y-65289181D02*
X85780476Y-65289181D01*
X85828095Y-65765371D01*
X85780476Y-65717752D01*
X85685238Y-65670133D01*
X85447142Y-65670133D01*
X85351904Y-65717752D01*
X85304285Y-65765371D01*
X85256666Y-65860610D01*
X85256666Y-66098705D01*
X85304285Y-66193943D01*
X85351904Y-66241562D01*
X85447142Y-66289181D01*
X85685238Y-66289181D01*
X85780476Y-66241562D01*
X85828095Y-66193943D01*
X84637619Y-65289181D02*
X84542380Y-65289181D01*
X84447142Y-65336800D01*
X84399523Y-65384419D01*
X84351904Y-65479657D01*
X84304285Y-65670133D01*
X84304285Y-65908229D01*
X84351904Y-66098705D01*
X84399523Y-66193943D01*
X84447142Y-66241562D01*
X84542380Y-66289181D01*
X84637619Y-66289181D01*
X84732857Y-66241562D01*
X84780476Y-66193943D01*
X84828095Y-66098705D01*
X84875714Y-65908229D01*
X84875714Y-65670133D01*
X84828095Y-65479657D01*
X84780476Y-65384419D01*
X84732857Y-65336800D01*
X84637619Y-65289181D01*
X83970952Y-65289181D02*
X83351904Y-65289181D01*
X83685238Y-65670133D01*
X83542380Y-65670133D01*
X83447142Y-65717752D01*
X83399523Y-65765371D01*
X83351904Y-65860610D01*
X83351904Y-66098705D01*
X83399523Y-66193943D01*
X83447142Y-66241562D01*
X83542380Y-66289181D01*
X83828095Y-66289181D01*
X83923333Y-66241562D01*
X83970952Y-66193943D01*
X91860476Y-66289181D02*
X91860476Y-65289181D01*
X91622381Y-65289181D01*
X91479523Y-65336800D01*
X91384285Y-65432038D01*
X91336666Y-65527276D01*
X91289047Y-65717752D01*
X91289047Y-65860610D01*
X91336666Y-66051086D01*
X91384285Y-66146324D01*
X91479523Y-66241562D01*
X91622381Y-66289181D01*
X91860476Y-66289181D01*
X90384285Y-65289181D02*
X90860476Y-65289181D01*
X90908095Y-65765371D01*
X90860476Y-65717752D01*
X90765238Y-65670133D01*
X90527142Y-65670133D01*
X90431904Y-65717752D01*
X90384285Y-65765371D01*
X90336666Y-65860610D01*
X90336666Y-66098705D01*
X90384285Y-66193943D01*
X90431904Y-66241562D01*
X90527142Y-66289181D01*
X90765238Y-66289181D01*
X90860476Y-66241562D01*
X90908095Y-66193943D01*
X89717619Y-65289181D02*
X89622380Y-65289181D01*
X89527142Y-65336800D01*
X89479523Y-65384419D01*
X89431904Y-65479657D01*
X89384285Y-65670133D01*
X89384285Y-65908229D01*
X89431904Y-66098705D01*
X89479523Y-66193943D01*
X89527142Y-66241562D01*
X89622380Y-66289181D01*
X89717619Y-66289181D01*
X89812857Y-66241562D01*
X89860476Y-66193943D01*
X89908095Y-66098705D01*
X89955714Y-65908229D01*
X89955714Y-65670133D01*
X89908095Y-65479657D01*
X89860476Y-65384419D01*
X89812857Y-65336800D01*
X89717619Y-65289181D01*
X89003333Y-65384419D02*
X88955714Y-65336800D01*
X88860476Y-65289181D01*
X88622380Y-65289181D01*
X88527142Y-65336800D01*
X88479523Y-65384419D01*
X88431904Y-65479657D01*
X88431904Y-65574895D01*
X88479523Y-65717752D01*
X89050952Y-66289181D01*
X88431904Y-66289181D01*
X96940476Y-66162181D02*
X96940476Y-65162181D01*
X96702381Y-65162181D01*
X96559523Y-65209800D01*
X96464285Y-65305038D01*
X96416666Y-65400276D01*
X96369047Y-65590752D01*
X96369047Y-65733610D01*
X96416666Y-65924086D01*
X96464285Y-66019324D01*
X96559523Y-66114562D01*
X96702381Y-66162181D01*
X96940476Y-66162181D01*
X95464285Y-65162181D02*
X95940476Y-65162181D01*
X95988095Y-65638371D01*
X95940476Y-65590752D01*
X95845238Y-65543133D01*
X95607142Y-65543133D01*
X95511904Y-65590752D01*
X95464285Y-65638371D01*
X95416666Y-65733610D01*
X95416666Y-65971705D01*
X95464285Y-66066943D01*
X95511904Y-66114562D01*
X95607142Y-66162181D01*
X95845238Y-66162181D01*
X95940476Y-66114562D01*
X95988095Y-66066943D01*
X94797619Y-65162181D02*
X94702380Y-65162181D01*
X94607142Y-65209800D01*
X94559523Y-65257419D01*
X94511904Y-65352657D01*
X94464285Y-65543133D01*
X94464285Y-65781229D01*
X94511904Y-65971705D01*
X94559523Y-66066943D01*
X94607142Y-66114562D01*
X94702380Y-66162181D01*
X94797619Y-66162181D01*
X94892857Y-66114562D01*
X94940476Y-66066943D01*
X94988095Y-65971705D01*
X95035714Y-65781229D01*
X95035714Y-65543133D01*
X94988095Y-65352657D01*
X94940476Y-65257419D01*
X94892857Y-65209800D01*
X94797619Y-65162181D01*
X93511904Y-66162181D02*
X94083333Y-66162181D01*
X93797619Y-66162181D02*
X93797619Y-65162181D01*
X93892857Y-65305038D01*
X93988095Y-65400276D01*
X94083333Y-65447895D01*
X89225381Y-77620953D02*
X88749190Y-77287619D01*
X89225381Y-77049524D02*
X88225381Y-77049524D01*
X88225381Y-77430477D01*
X88273000Y-77525715D01*
X88320619Y-77573334D01*
X88415857Y-77620953D01*
X88558714Y-77620953D01*
X88653952Y-77573334D01*
X88701571Y-77525715D01*
X88749190Y-77430477D01*
X88749190Y-77049524D01*
X88225381Y-78525715D02*
X88225381Y-78049524D01*
X88701571Y-78001905D01*
X88653952Y-78049524D01*
X88606333Y-78144762D01*
X88606333Y-78382858D01*
X88653952Y-78478096D01*
X88701571Y-78525715D01*
X88796810Y-78573334D01*
X89034905Y-78573334D01*
X89130143Y-78525715D01*
X89177762Y-78478096D01*
X89225381Y-78382858D01*
X89225381Y-78144762D01*
X89177762Y-78049524D01*
X89130143Y-78001905D01*
X88225381Y-79192381D02*
X88225381Y-79287620D01*
X88273000Y-79382858D01*
X88320619Y-79430477D01*
X88415857Y-79478096D01*
X88606333Y-79525715D01*
X88844429Y-79525715D01*
X89034905Y-79478096D01*
X89130143Y-79430477D01*
X89177762Y-79382858D01*
X89225381Y-79287620D01*
X89225381Y-79192381D01*
X89177762Y-79097143D01*
X89130143Y-79049524D01*
X89034905Y-79001905D01*
X88844429Y-78954286D01*
X88606333Y-78954286D01*
X88415857Y-79001905D01*
X88320619Y-79049524D01*
X88273000Y-79097143D01*
X88225381Y-79192381D01*
X88558714Y-80382858D02*
X89225381Y-80382858D01*
X88177762Y-80144762D02*
X88892048Y-79906667D01*
X88892048Y-80525715D01*
X94305381Y-77620953D02*
X93829190Y-77287619D01*
X94305381Y-77049524D02*
X93305381Y-77049524D01*
X93305381Y-77430477D01*
X93353000Y-77525715D01*
X93400619Y-77573334D01*
X93495857Y-77620953D01*
X93638714Y-77620953D01*
X93733952Y-77573334D01*
X93781571Y-77525715D01*
X93829190Y-77430477D01*
X93829190Y-77049524D01*
X93305381Y-78525715D02*
X93305381Y-78049524D01*
X93781571Y-78001905D01*
X93733952Y-78049524D01*
X93686333Y-78144762D01*
X93686333Y-78382858D01*
X93733952Y-78478096D01*
X93781571Y-78525715D01*
X93876810Y-78573334D01*
X94114905Y-78573334D01*
X94210143Y-78525715D01*
X94257762Y-78478096D01*
X94305381Y-78382858D01*
X94305381Y-78144762D01*
X94257762Y-78049524D01*
X94210143Y-78001905D01*
X93305381Y-79192381D02*
X93305381Y-79287620D01*
X93353000Y-79382858D01*
X93400619Y-79430477D01*
X93495857Y-79478096D01*
X93686333Y-79525715D01*
X93924429Y-79525715D01*
X94114905Y-79478096D01*
X94210143Y-79430477D01*
X94257762Y-79382858D01*
X94305381Y-79287620D01*
X94305381Y-79192381D01*
X94257762Y-79097143D01*
X94210143Y-79049524D01*
X94114905Y-79001905D01*
X93924429Y-78954286D01*
X93686333Y-78954286D01*
X93495857Y-79001905D01*
X93400619Y-79049524D01*
X93353000Y-79097143D01*
X93305381Y-79192381D01*
X93400619Y-79906667D02*
X93353000Y-79954286D01*
X93305381Y-80049524D01*
X93305381Y-80287620D01*
X93353000Y-80382858D01*
X93400619Y-80430477D01*
X93495857Y-80478096D01*
X93591095Y-80478096D01*
X93733952Y-80430477D01*
X94305381Y-79859048D01*
X94305381Y-80478096D01*
X84145381Y-77620953D02*
X83669190Y-77287619D01*
X84145381Y-77049524D02*
X83145381Y-77049524D01*
X83145381Y-77430477D01*
X83193000Y-77525715D01*
X83240619Y-77573334D01*
X83335857Y-77620953D01*
X83478714Y-77620953D01*
X83573952Y-77573334D01*
X83621571Y-77525715D01*
X83669190Y-77430477D01*
X83669190Y-77049524D01*
X83145381Y-78525715D02*
X83145381Y-78049524D01*
X83621571Y-78001905D01*
X83573952Y-78049524D01*
X83526333Y-78144762D01*
X83526333Y-78382858D01*
X83573952Y-78478096D01*
X83621571Y-78525715D01*
X83716810Y-78573334D01*
X83954905Y-78573334D01*
X84050143Y-78525715D01*
X84097762Y-78478096D01*
X84145381Y-78382858D01*
X84145381Y-78144762D01*
X84097762Y-78049524D01*
X84050143Y-78001905D01*
X83145381Y-79192381D02*
X83145381Y-79287620D01*
X83193000Y-79382858D01*
X83240619Y-79430477D01*
X83335857Y-79478096D01*
X83526333Y-79525715D01*
X83764429Y-79525715D01*
X83954905Y-79478096D01*
X84050143Y-79430477D01*
X84097762Y-79382858D01*
X84145381Y-79287620D01*
X84145381Y-79192381D01*
X84097762Y-79097143D01*
X84050143Y-79049524D01*
X83954905Y-79001905D01*
X83764429Y-78954286D01*
X83526333Y-78954286D01*
X83335857Y-79001905D01*
X83240619Y-79049524D01*
X83193000Y-79097143D01*
X83145381Y-79192381D01*
X83145381Y-80382858D02*
X83145381Y-80192381D01*
X83193000Y-80097143D01*
X83240619Y-80049524D01*
X83383476Y-79954286D01*
X83573952Y-79906667D01*
X83954905Y-79906667D01*
X84050143Y-79954286D01*
X84097762Y-80001905D01*
X84145381Y-80097143D01*
X84145381Y-80287620D01*
X84097762Y-80382858D01*
X84050143Y-80430477D01*
X83954905Y-80478096D01*
X83716810Y-80478096D01*
X83621571Y-80430477D01*
X83573952Y-80382858D01*
X83526333Y-80287620D01*
X83526333Y-80097143D01*
X83573952Y-80001905D01*
X83621571Y-79954286D01*
X83716810Y-79906667D01*
X94305381Y-72947353D02*
X93829190Y-72614019D01*
X94305381Y-72375924D02*
X93305381Y-72375924D01*
X93305381Y-72756877D01*
X93353000Y-72852115D01*
X93400619Y-72899734D01*
X93495857Y-72947353D01*
X93638714Y-72947353D01*
X93733952Y-72899734D01*
X93781571Y-72852115D01*
X93829190Y-72756877D01*
X93829190Y-72375924D01*
X93305381Y-73852115D02*
X93305381Y-73375924D01*
X93781571Y-73328305D01*
X93733952Y-73375924D01*
X93686333Y-73471162D01*
X93686333Y-73709258D01*
X93733952Y-73804496D01*
X93781571Y-73852115D01*
X93876810Y-73899734D01*
X94114905Y-73899734D01*
X94210143Y-73852115D01*
X94257762Y-73804496D01*
X94305381Y-73709258D01*
X94305381Y-73471162D01*
X94257762Y-73375924D01*
X94210143Y-73328305D01*
X93305381Y-74518781D02*
X93305381Y-74614020D01*
X93353000Y-74709258D01*
X93400619Y-74756877D01*
X93495857Y-74804496D01*
X93686333Y-74852115D01*
X93924429Y-74852115D01*
X94114905Y-74804496D01*
X94210143Y-74756877D01*
X94257762Y-74709258D01*
X94305381Y-74614020D01*
X94305381Y-74518781D01*
X94257762Y-74423543D01*
X94210143Y-74375924D01*
X94114905Y-74328305D01*
X93924429Y-74280686D01*
X93686333Y-74280686D01*
X93495857Y-74328305D01*
X93400619Y-74375924D01*
X93353000Y-74423543D01*
X93305381Y-74518781D01*
X94305381Y-75804496D02*
X94305381Y-75233067D01*
X94305381Y-75518781D02*
X93305381Y-75518781D01*
X93448238Y-75423543D01*
X93543476Y-75328305D01*
X93591095Y-75233067D01*
X89225381Y-72947353D02*
X88749190Y-72614019D01*
X89225381Y-72375924D02*
X88225381Y-72375924D01*
X88225381Y-72756877D01*
X88273000Y-72852115D01*
X88320619Y-72899734D01*
X88415857Y-72947353D01*
X88558714Y-72947353D01*
X88653952Y-72899734D01*
X88701571Y-72852115D01*
X88749190Y-72756877D01*
X88749190Y-72375924D01*
X88225381Y-73852115D02*
X88225381Y-73375924D01*
X88701571Y-73328305D01*
X88653952Y-73375924D01*
X88606333Y-73471162D01*
X88606333Y-73709258D01*
X88653952Y-73804496D01*
X88701571Y-73852115D01*
X88796810Y-73899734D01*
X89034905Y-73899734D01*
X89130143Y-73852115D01*
X89177762Y-73804496D01*
X89225381Y-73709258D01*
X89225381Y-73471162D01*
X89177762Y-73375924D01*
X89130143Y-73328305D01*
X88225381Y-74518781D02*
X88225381Y-74614020D01*
X88273000Y-74709258D01*
X88320619Y-74756877D01*
X88415857Y-74804496D01*
X88606333Y-74852115D01*
X88844429Y-74852115D01*
X89034905Y-74804496D01*
X89130143Y-74756877D01*
X89177762Y-74709258D01*
X89225381Y-74614020D01*
X89225381Y-74518781D01*
X89177762Y-74423543D01*
X89130143Y-74375924D01*
X89034905Y-74328305D01*
X88844429Y-74280686D01*
X88606333Y-74280686D01*
X88415857Y-74328305D01*
X88320619Y-74375924D01*
X88273000Y-74423543D01*
X88225381Y-74518781D01*
X88225381Y-75185448D02*
X88225381Y-75804496D01*
X88606333Y-75471162D01*
X88606333Y-75614020D01*
X88653952Y-75709258D01*
X88701571Y-75756877D01*
X88796810Y-75804496D01*
X89034905Y-75804496D01*
X89130143Y-75756877D01*
X89177762Y-75709258D01*
X89225381Y-75614020D01*
X89225381Y-75328305D01*
X89177762Y-75233067D01*
X89130143Y-75185448D01*
X84094581Y-72947353D02*
X83618390Y-72614019D01*
X84094581Y-72375924D02*
X83094581Y-72375924D01*
X83094581Y-72756877D01*
X83142200Y-72852115D01*
X83189819Y-72899734D01*
X83285057Y-72947353D01*
X83427914Y-72947353D01*
X83523152Y-72899734D01*
X83570771Y-72852115D01*
X83618390Y-72756877D01*
X83618390Y-72375924D01*
X83094581Y-73852115D02*
X83094581Y-73375924D01*
X83570771Y-73328305D01*
X83523152Y-73375924D01*
X83475533Y-73471162D01*
X83475533Y-73709258D01*
X83523152Y-73804496D01*
X83570771Y-73852115D01*
X83666010Y-73899734D01*
X83904105Y-73899734D01*
X83999343Y-73852115D01*
X84046962Y-73804496D01*
X84094581Y-73709258D01*
X84094581Y-73471162D01*
X84046962Y-73375924D01*
X83999343Y-73328305D01*
X83094581Y-74518781D02*
X83094581Y-74614020D01*
X83142200Y-74709258D01*
X83189819Y-74756877D01*
X83285057Y-74804496D01*
X83475533Y-74852115D01*
X83713629Y-74852115D01*
X83904105Y-74804496D01*
X83999343Y-74756877D01*
X84046962Y-74709258D01*
X84094581Y-74614020D01*
X84094581Y-74518781D01*
X84046962Y-74423543D01*
X83999343Y-74375924D01*
X83904105Y-74328305D01*
X83713629Y-74280686D01*
X83475533Y-74280686D01*
X83285057Y-74328305D01*
X83189819Y-74375924D01*
X83142200Y-74423543D01*
X83094581Y-74518781D01*
X83094581Y-75756877D02*
X83094581Y-75280686D01*
X83570771Y-75233067D01*
X83523152Y-75280686D01*
X83475533Y-75375924D01*
X83475533Y-75614020D01*
X83523152Y-75709258D01*
X83570771Y-75756877D01*
X83666010Y-75804496D01*
X83904105Y-75804496D01*
X83999343Y-75756877D01*
X84046962Y-75709258D01*
X84094581Y-75614020D01*
X84094581Y-75375924D01*
X84046962Y-75280686D01*
X83999343Y-75233067D01*
X98189381Y-68730953D02*
X97713190Y-68397619D01*
X98189381Y-68159524D02*
X97189381Y-68159524D01*
X97189381Y-68540477D01*
X97237000Y-68635715D01*
X97284619Y-68683334D01*
X97379857Y-68730953D01*
X97522714Y-68730953D01*
X97617952Y-68683334D01*
X97665571Y-68635715D01*
X97713190Y-68540477D01*
X97713190Y-68159524D01*
X98189381Y-69683334D02*
X98189381Y-69111905D01*
X98189381Y-69397619D02*
X97189381Y-69397619D01*
X97332238Y-69302381D01*
X97427476Y-69207143D01*
X97475095Y-69111905D01*
X97189381Y-70302381D02*
X97189381Y-70397620D01*
X97237000Y-70492858D01*
X97284619Y-70540477D01*
X97379857Y-70588096D01*
X97570333Y-70635715D01*
X97808429Y-70635715D01*
X97998905Y-70588096D01*
X98094143Y-70540477D01*
X98141762Y-70492858D01*
X98189381Y-70397620D01*
X98189381Y-70302381D01*
X98141762Y-70207143D01*
X98094143Y-70159524D01*
X97998905Y-70111905D01*
X97808429Y-70064286D01*
X97570333Y-70064286D01*
X97379857Y-70111905D01*
X97284619Y-70159524D01*
X97237000Y-70207143D01*
X97189381Y-70302381D01*
X97522714Y-71492858D02*
X98189381Y-71492858D01*
X97141762Y-71254762D02*
X97856048Y-71016667D01*
X97856048Y-71635715D01*
X43714943Y-99972953D02*
X43762562Y-99925334D01*
X43810181Y-99782477D01*
X43810181Y-99687239D01*
X43762562Y-99544381D01*
X43667324Y-99449143D01*
X43572086Y-99401524D01*
X43381610Y-99353905D01*
X43238752Y-99353905D01*
X43048276Y-99401524D01*
X42953038Y-99449143D01*
X42857800Y-99544381D01*
X42810181Y-99687239D01*
X42810181Y-99782477D01*
X42857800Y-99925334D01*
X42905419Y-99972953D01*
X43810181Y-100925334D02*
X43810181Y-100353905D01*
X43810181Y-100639619D02*
X42810181Y-100639619D01*
X42953038Y-100544381D01*
X43048276Y-100449143D01*
X43095895Y-100353905D01*
X42810181Y-101544381D02*
X42810181Y-101639620D01*
X42857800Y-101734858D01*
X42905419Y-101782477D01*
X43000657Y-101830096D01*
X43191133Y-101877715D01*
X43429229Y-101877715D01*
X43619705Y-101830096D01*
X43714943Y-101782477D01*
X43762562Y-101734858D01*
X43810181Y-101639620D01*
X43810181Y-101544381D01*
X43762562Y-101449143D01*
X43714943Y-101401524D01*
X43619705Y-101353905D01*
X43429229Y-101306286D01*
X43191133Y-101306286D01*
X43000657Y-101353905D01*
X42905419Y-101401524D01*
X42857800Y-101449143D01*
X42810181Y-101544381D01*
X43810181Y-102830096D02*
X43810181Y-102258667D01*
X43810181Y-102544381D02*
X42810181Y-102544381D01*
X42953038Y-102449143D01*
X43048276Y-102353905D01*
X43095895Y-102258667D01*
X55348047Y-108561143D02*
X55395666Y-108608762D01*
X55538523Y-108656381D01*
X55633761Y-108656381D01*
X55776619Y-108608762D01*
X55871857Y-108513524D01*
X55919476Y-108418286D01*
X55967095Y-108227810D01*
X55967095Y-108084952D01*
X55919476Y-107894476D01*
X55871857Y-107799238D01*
X55776619Y-107704000D01*
X55633761Y-107656381D01*
X55538523Y-107656381D01*
X55395666Y-107704000D01*
X55348047Y-107751619D01*
X54395666Y-108656381D02*
X54967095Y-108656381D01*
X54681381Y-108656381D02*
X54681381Y-107656381D01*
X54776619Y-107799238D01*
X54871857Y-107894476D01*
X54967095Y-107942095D01*
X53776619Y-107656381D02*
X53681380Y-107656381D01*
X53586142Y-107704000D01*
X53538523Y-107751619D01*
X53490904Y-107846857D01*
X53443285Y-108037333D01*
X53443285Y-108275429D01*
X53490904Y-108465905D01*
X53538523Y-108561143D01*
X53586142Y-108608762D01*
X53681380Y-108656381D01*
X53776619Y-108656381D01*
X53871857Y-108608762D01*
X53919476Y-108561143D01*
X53967095Y-108465905D01*
X54014714Y-108275429D01*
X54014714Y-108037333D01*
X53967095Y-107846857D01*
X53919476Y-107751619D01*
X53871857Y-107704000D01*
X53776619Y-107656381D01*
X53062333Y-107751619D02*
X53014714Y-107704000D01*
X52919476Y-107656381D01*
X52681380Y-107656381D01*
X52586142Y-107704000D01*
X52538523Y-107751619D01*
X52490904Y-107846857D01*
X52490904Y-107942095D01*
X52538523Y-108084952D01*
X53109952Y-108656381D01*
X52490904Y-108656381D01*
X57189476Y-93289381D02*
X57189476Y-92289381D01*
X56951381Y-92289381D01*
X56808523Y-92337000D01*
X56713285Y-92432238D01*
X56665666Y-92527476D01*
X56618047Y-92717952D01*
X56618047Y-92860810D01*
X56665666Y-93051286D01*
X56713285Y-93146524D01*
X56808523Y-93241762D01*
X56951381Y-93289381D01*
X57189476Y-93289381D01*
X55665666Y-93289381D02*
X56237095Y-93289381D01*
X55951381Y-93289381D02*
X55951381Y-92289381D01*
X56046619Y-92432238D01*
X56141857Y-92527476D01*
X56237095Y-92575095D01*
X55046619Y-92289381D02*
X54951380Y-92289381D01*
X54856142Y-92337000D01*
X54808523Y-92384619D01*
X54760904Y-92479857D01*
X54713285Y-92670333D01*
X54713285Y-92908429D01*
X54760904Y-93098905D01*
X54808523Y-93194143D01*
X54856142Y-93241762D01*
X54951380Y-93289381D01*
X55046619Y-93289381D01*
X55141857Y-93241762D01*
X55189476Y-93194143D01*
X55237095Y-93098905D01*
X55284714Y-92908429D01*
X55284714Y-92670333D01*
X55237095Y-92479857D01*
X55189476Y-92384619D01*
X55141857Y-92337000D01*
X55046619Y-92289381D01*
X53760904Y-93289381D02*
X54332333Y-93289381D01*
X54046619Y-93289381D02*
X54046619Y-92289381D01*
X54141857Y-92432238D01*
X54237095Y-92527476D01*
X54332333Y-92575095D01*
X55792476Y-90317581D02*
X55792476Y-89317581D01*
X55554381Y-89317581D01*
X55411523Y-89365200D01*
X55316285Y-89460438D01*
X55268666Y-89555676D01*
X55221047Y-89746152D01*
X55221047Y-89889010D01*
X55268666Y-90079486D01*
X55316285Y-90174724D01*
X55411523Y-90269962D01*
X55554381Y-90317581D01*
X55792476Y-90317581D01*
X54268666Y-90317581D02*
X54840095Y-90317581D01*
X54554381Y-90317581D02*
X54554381Y-89317581D01*
X54649619Y-89460438D01*
X54744857Y-89555676D01*
X54840095Y-89603295D01*
X53649619Y-89317581D02*
X53554380Y-89317581D01*
X53459142Y-89365200D01*
X53411523Y-89412819D01*
X53363904Y-89508057D01*
X53316285Y-89698533D01*
X53316285Y-89936629D01*
X53363904Y-90127105D01*
X53411523Y-90222343D01*
X53459142Y-90269962D01*
X53554380Y-90317581D01*
X53649619Y-90317581D01*
X53744857Y-90269962D01*
X53792476Y-90222343D01*
X53840095Y-90127105D01*
X53887714Y-89936629D01*
X53887714Y-89698533D01*
X53840095Y-89508057D01*
X53792476Y-89412819D01*
X53744857Y-89365200D01*
X53649619Y-89317581D01*
X52459142Y-89650914D02*
X52459142Y-90317581D01*
X52697238Y-89269962D02*
X52935333Y-89984248D01*
X52316285Y-89984248D01*
X39409476Y-92829381D02*
X39409476Y-91829381D01*
X39171381Y-91829381D01*
X39028523Y-91877000D01*
X38933285Y-91972238D01*
X38885666Y-92067476D01*
X38838047Y-92257952D01*
X38838047Y-92400810D01*
X38885666Y-92591286D01*
X38933285Y-92686524D01*
X39028523Y-92781762D01*
X39171381Y-92829381D01*
X39409476Y-92829381D01*
X37885666Y-92829381D02*
X38457095Y-92829381D01*
X38171381Y-92829381D02*
X38171381Y-91829381D01*
X38266619Y-91972238D01*
X38361857Y-92067476D01*
X38457095Y-92115095D01*
X37266619Y-91829381D02*
X37171380Y-91829381D01*
X37076142Y-91877000D01*
X37028523Y-91924619D01*
X36980904Y-92019857D01*
X36933285Y-92210333D01*
X36933285Y-92448429D01*
X36980904Y-92638905D01*
X37028523Y-92734143D01*
X37076142Y-92781762D01*
X37171380Y-92829381D01*
X37266619Y-92829381D01*
X37361857Y-92781762D01*
X37409476Y-92734143D01*
X37457095Y-92638905D01*
X37504714Y-92448429D01*
X37504714Y-92210333D01*
X37457095Y-92019857D01*
X37409476Y-91924619D01*
X37361857Y-91877000D01*
X37266619Y-91829381D01*
X36599952Y-91829381D02*
X35980904Y-91829381D01*
X36314238Y-92210333D01*
X36171380Y-92210333D01*
X36076142Y-92257952D01*
X36028523Y-92305571D01*
X35980904Y-92400810D01*
X35980904Y-92638905D01*
X36028523Y-92734143D01*
X36076142Y-92781762D01*
X36171380Y-92829381D01*
X36457095Y-92829381D01*
X36552333Y-92781762D01*
X36599952Y-92734143D01*
X48420114Y-92943371D02*
X48753448Y-92943371D01*
X48753448Y-93467181D02*
X48753448Y-92467181D01*
X48277257Y-92467181D01*
X47562971Y-92943371D02*
X47420114Y-92990990D01*
X47372495Y-93038610D01*
X47324876Y-93133848D01*
X47324876Y-93276705D01*
X47372495Y-93371943D01*
X47420114Y-93419562D01*
X47515352Y-93467181D01*
X47896305Y-93467181D01*
X47896305Y-92467181D01*
X47562971Y-92467181D01*
X47467733Y-92514800D01*
X47420114Y-92562419D01*
X47372495Y-92657657D01*
X47372495Y-92752895D01*
X47420114Y-92848133D01*
X47467733Y-92895752D01*
X47562971Y-92943371D01*
X47896305Y-92943371D01*
X46372495Y-93467181D02*
X46943924Y-93467181D01*
X46658210Y-93467181D02*
X46658210Y-92467181D01*
X46753448Y-92610038D01*
X46848686Y-92705276D01*
X46943924Y-92752895D01*
X45753448Y-92467181D02*
X45658209Y-92467181D01*
X45562971Y-92514800D01*
X45515352Y-92562419D01*
X45467733Y-92657657D01*
X45420114Y-92848133D01*
X45420114Y-93086229D01*
X45467733Y-93276705D01*
X45515352Y-93371943D01*
X45562971Y-93419562D01*
X45658209Y-93467181D01*
X45753448Y-93467181D01*
X45848686Y-93419562D01*
X45896305Y-93371943D01*
X45943924Y-93276705D01*
X45991543Y-93086229D01*
X45991543Y-92848133D01*
X45943924Y-92657657D01*
X45896305Y-92562419D01*
X45848686Y-92514800D01*
X45753448Y-92467181D01*
X44467733Y-93467181D02*
X45039162Y-93467181D01*
X44753448Y-93467181D02*
X44753448Y-92467181D01*
X44848686Y-92610038D01*
X44943924Y-92705276D01*
X45039162Y-92752895D01*
X54414514Y-86440971D02*
X54747848Y-86440971D01*
X54747848Y-86964781D02*
X54747848Y-85964781D01*
X54271657Y-85964781D01*
X53557371Y-86440971D02*
X53414514Y-86488590D01*
X53366895Y-86536210D01*
X53319276Y-86631448D01*
X53319276Y-86774305D01*
X53366895Y-86869543D01*
X53414514Y-86917162D01*
X53509752Y-86964781D01*
X53890705Y-86964781D01*
X53890705Y-85964781D01*
X53557371Y-85964781D01*
X53462133Y-86012400D01*
X53414514Y-86060019D01*
X53366895Y-86155257D01*
X53366895Y-86250495D01*
X53414514Y-86345733D01*
X53462133Y-86393352D01*
X53557371Y-86440971D01*
X53890705Y-86440971D01*
X52462133Y-86298114D02*
X52462133Y-86964781D01*
X52700229Y-85917162D02*
X52938324Y-86631448D01*
X52319276Y-86631448D01*
X51747848Y-85964781D02*
X51652609Y-85964781D01*
X51557371Y-86012400D01*
X51509752Y-86060019D01*
X51462133Y-86155257D01*
X51414514Y-86345733D01*
X51414514Y-86583829D01*
X51462133Y-86774305D01*
X51509752Y-86869543D01*
X51557371Y-86917162D01*
X51652609Y-86964781D01*
X51747848Y-86964781D01*
X51843086Y-86917162D01*
X51890705Y-86869543D01*
X51938324Y-86774305D01*
X51985943Y-86583829D01*
X51985943Y-86345733D01*
X51938324Y-86155257D01*
X51890705Y-86060019D01*
X51843086Y-86012400D01*
X51747848Y-85964781D01*
X50462133Y-86964781D02*
X51033562Y-86964781D01*
X50747848Y-86964781D02*
X50747848Y-85964781D01*
X50843086Y-86107638D01*
X50938324Y-86202876D01*
X51033562Y-86250495D01*
X73564771Y-86518381D02*
X73564771Y-85518381D01*
X72517152Y-86423143D02*
X72564771Y-86470762D01*
X72707628Y-86518381D01*
X72802866Y-86518381D01*
X72945724Y-86470762D01*
X73040962Y-86375524D01*
X73088581Y-86280286D01*
X73136200Y-86089810D01*
X73136200Y-85946952D01*
X73088581Y-85756476D01*
X73040962Y-85661238D01*
X72945724Y-85566000D01*
X72802866Y-85518381D01*
X72707628Y-85518381D01*
X72564771Y-85566000D01*
X72517152Y-85613619D01*
X72136200Y-85613619D02*
X72088581Y-85566000D01*
X71993343Y-85518381D01*
X71755247Y-85518381D01*
X71660009Y-85566000D01*
X71612390Y-85613619D01*
X71564771Y-85708857D01*
X71564771Y-85804095D01*
X71612390Y-85946952D01*
X72183819Y-86518381D01*
X71564771Y-86518381D01*
X70945724Y-85518381D02*
X70850485Y-85518381D01*
X70755247Y-85566000D01*
X70707628Y-85613619D01*
X70660009Y-85708857D01*
X70612390Y-85899333D01*
X70612390Y-86137429D01*
X70660009Y-86327905D01*
X70707628Y-86423143D01*
X70755247Y-86470762D01*
X70850485Y-86518381D01*
X70945724Y-86518381D01*
X71040962Y-86470762D01*
X71088581Y-86423143D01*
X71136200Y-86327905D01*
X71183819Y-86137429D01*
X71183819Y-85899333D01*
X71136200Y-85708857D01*
X71088581Y-85613619D01*
X71040962Y-85566000D01*
X70945724Y-85518381D01*
X69660009Y-86518381D02*
X70231438Y-86518381D01*
X69945724Y-86518381D02*
X69945724Y-85518381D01*
X70040962Y-85661238D01*
X70136200Y-85756476D01*
X70231438Y-85804095D01*
X59193181Y-99352314D02*
X60002705Y-99352314D01*
X60097943Y-99399933D01*
X60145562Y-99447552D01*
X60193181Y-99542790D01*
X60193181Y-99733267D01*
X60145562Y-99828505D01*
X60097943Y-99876124D01*
X60002705Y-99923743D01*
X59193181Y-99923743D01*
X60193181Y-100923743D02*
X60193181Y-100352314D01*
X60193181Y-100638028D02*
X59193181Y-100638028D01*
X59336038Y-100542790D01*
X59431276Y-100447552D01*
X59478895Y-100352314D01*
X59193181Y-101542790D02*
X59193181Y-101638029D01*
X59240800Y-101733267D01*
X59288419Y-101780886D01*
X59383657Y-101828505D01*
X59574133Y-101876124D01*
X59812229Y-101876124D01*
X60002705Y-101828505D01*
X60097943Y-101780886D01*
X60145562Y-101733267D01*
X60193181Y-101638029D01*
X60193181Y-101542790D01*
X60145562Y-101447552D01*
X60097943Y-101399933D01*
X60002705Y-101352314D01*
X59812229Y-101304695D01*
X59574133Y-101304695D01*
X59383657Y-101352314D01*
X59288419Y-101399933D01*
X59240800Y-101447552D01*
X59193181Y-101542790D01*
X60193181Y-102828505D02*
X60193181Y-102257076D01*
X60193181Y-102542790D02*
X59193181Y-102542790D01*
X59336038Y-102447552D01*
X59431276Y-102352314D01*
X59478895Y-102257076D01*
X62293286Y-64239381D02*
X62293286Y-65048905D01*
X62245667Y-65144143D01*
X62198048Y-65191762D01*
X62102810Y-65239381D01*
X61912333Y-65239381D01*
X61817095Y-65191762D01*
X61769476Y-65144143D01*
X61721857Y-65048905D01*
X61721857Y-64239381D01*
X61340905Y-64239381D02*
X60721857Y-64239381D01*
X61055191Y-64620333D01*
X60912333Y-64620333D01*
X60817095Y-64667952D01*
X60769476Y-64715571D01*
X60721857Y-64810810D01*
X60721857Y-65048905D01*
X60769476Y-65144143D01*
X60817095Y-65191762D01*
X60912333Y-65239381D01*
X61198048Y-65239381D01*
X61293286Y-65191762D01*
X61340905Y-65144143D01*
X60102810Y-64239381D02*
X60007571Y-64239381D01*
X59912333Y-64287000D01*
X59864714Y-64334619D01*
X59817095Y-64429857D01*
X59769476Y-64620333D01*
X59769476Y-64858429D01*
X59817095Y-65048905D01*
X59864714Y-65144143D01*
X59912333Y-65191762D01*
X60007571Y-65239381D01*
X60102810Y-65239381D01*
X60198048Y-65191762D01*
X60245667Y-65144143D01*
X60293286Y-65048905D01*
X60340905Y-64858429D01*
X60340905Y-64620333D01*
X60293286Y-64429857D01*
X60245667Y-64334619D01*
X60198048Y-64287000D01*
X60102810Y-64239381D01*
X58817095Y-65239381D02*
X59388524Y-65239381D01*
X59102810Y-65239381D02*
X59102810Y-64239381D01*
X59198048Y-64382238D01*
X59293286Y-64477476D01*
X59388524Y-64525095D01*
X47681486Y-72964781D02*
X47681486Y-73774305D01*
X47633867Y-73869543D01*
X47586248Y-73917162D01*
X47491010Y-73964781D01*
X47300533Y-73964781D01*
X47205295Y-73917162D01*
X47157676Y-73869543D01*
X47110057Y-73774305D01*
X47110057Y-72964781D01*
X46205295Y-73298114D02*
X46205295Y-73964781D01*
X46443391Y-72917162D02*
X46681486Y-73631448D01*
X46062438Y-73631448D01*
X45491010Y-72964781D02*
X45395771Y-72964781D01*
X45300533Y-73012400D01*
X45252914Y-73060019D01*
X45205295Y-73155257D01*
X45157676Y-73345733D01*
X45157676Y-73583829D01*
X45205295Y-73774305D01*
X45252914Y-73869543D01*
X45300533Y-73917162D01*
X45395771Y-73964781D01*
X45491010Y-73964781D01*
X45586248Y-73917162D01*
X45633867Y-73869543D01*
X45681486Y-73774305D01*
X45729105Y-73583829D01*
X45729105Y-73345733D01*
X45681486Y-73155257D01*
X45633867Y-73060019D01*
X45586248Y-73012400D01*
X45491010Y-72964781D01*
X44205295Y-73964781D02*
X44776724Y-73964781D01*
X44491010Y-73964781D02*
X44491010Y-72964781D01*
X44586248Y-73107638D01*
X44681486Y-73202876D01*
X44776724Y-73250495D01*
%LPC*%
D16*
X155067000Y-96520000D03*
X155067000Y-63500000D03*
X35687000Y-50292000D03*
D17*
X50739000Y-71247000D03*
X52639000Y-71247000D03*
D18*
X45814000Y-65532000D03*
X51214000Y-65532000D03*
D19*
X63500000Y-81981000D03*
X63500000Y-83881000D03*
D17*
X65085000Y-78359000D03*
X63185000Y-78359000D03*
D19*
X79502000Y-79314000D03*
X79502000Y-81214000D03*
D17*
X65085000Y-76835000D03*
X63185000Y-76835000D03*
X52639000Y-52578000D03*
X50739000Y-52578000D03*
X52639000Y-54610000D03*
X50739000Y-54610000D03*
D19*
X67564000Y-63947000D03*
X67564000Y-65847000D03*
D17*
X39621500Y-87757000D03*
X37721500Y-87757000D03*
D19*
X38989000Y-80452000D03*
X38989000Y-78552000D03*
D18*
X45814000Y-59182000D03*
X51214000Y-59182000D03*
D20*
X53002000Y-74676000D03*
X55202000Y-74676000D03*
X53002000Y-78740000D03*
X55202000Y-78740000D03*
X40429000Y-71882000D03*
X42629000Y-71882000D03*
X47709000Y-71818500D03*
X45509000Y-71818500D03*
D21*
X62230000Y-80010000D03*
X62230000Y-75130000D03*
X47625000Y-51152400D03*
X47625000Y-56032400D03*
D22*
X85090000Y-70281800D03*
D23*
X85090000Y-67741800D03*
D22*
X90170000Y-70281800D03*
D23*
X90170000Y-67741800D03*
D22*
X95250000Y-70281800D03*
D23*
X95250000Y-67741800D03*
D24*
X90170000Y-79840000D03*
X90170000Y-77640000D03*
X95250000Y-79840000D03*
X95250000Y-77640000D03*
X85090000Y-79840000D03*
X85090000Y-77640000D03*
X95250000Y-75166400D03*
X95250000Y-72966400D03*
X90170000Y-75166400D03*
X90170000Y-72966400D03*
X85090000Y-75166400D03*
X85090000Y-72966400D03*
X99187000Y-68750000D03*
X99187000Y-70950000D03*
D25*
X45339000Y-99092000D03*
X45339000Y-103092000D03*
D26*
X56229000Y-106172000D03*
X52229000Y-106172000D03*
D27*
X52099000Y-95377000D03*
X58899000Y-95377000D03*
X50009000Y-90297000D03*
X43209000Y-90297000D03*
D18*
X40419000Y-95377000D03*
X35019000Y-95377000D03*
D28*
X61595000Y-86995000D03*
D29*
X63595000Y-86995000D03*
D30*
X47959000Y-94742000D03*
X45259000Y-94742000D03*
X49229000Y-87122000D03*
X46529000Y-87122000D03*
D31*
X67386200Y-82816000D03*
X67386200Y-82016000D03*
X67386200Y-81216000D03*
X67386200Y-80416000D03*
X67386200Y-79616000D03*
X67386200Y-78816000D03*
X67386200Y-78016000D03*
X67386200Y-77216000D03*
D32*
X68836200Y-75766000D03*
X69636200Y-75766000D03*
X70436200Y-75766000D03*
X71236200Y-75766000D03*
X72036200Y-75766000D03*
X72836200Y-75766000D03*
X73636200Y-75766000D03*
X74436200Y-75766000D03*
D31*
X75886200Y-77216000D03*
X75886200Y-78016000D03*
X75886200Y-78816000D03*
X75886200Y-79616000D03*
X75886200Y-80416000D03*
X75886200Y-81216000D03*
X75886200Y-82016000D03*
X75886200Y-82816000D03*
D32*
X74436200Y-84266000D03*
X73636200Y-84266000D03*
X72836200Y-84266000D03*
X72036200Y-84266000D03*
X71236200Y-84266000D03*
X70436200Y-84266000D03*
X69636200Y-84266000D03*
X68836200Y-84266000D03*
D28*
X87630000Y-62915800D03*
D33*
X92710000Y-55295800D03*
X90170000Y-62915800D03*
X90170000Y-55295800D03*
X92710000Y-62915800D03*
X87630000Y-55295800D03*
D34*
X34544000Y-99822000D03*
D35*
X34544000Y-102362000D03*
D34*
X39268400Y-99822000D03*
D35*
X39268400Y-102362000D03*
D34*
X76123800Y-60655200D03*
D35*
X73583800Y-60655200D03*
X76123800Y-58115200D03*
X73583800Y-58115200D03*
X76123800Y-55575200D03*
X73583800Y-55575200D03*
D36*
X39624000Y-82677000D03*
X39624000Y-85217000D03*
X37624000Y-85217000D03*
X37624000Y-82677000D03*
D37*
X34924000Y-77947000D03*
X34924000Y-89947000D03*
D34*
X34671000Y-63754000D03*
D35*
X34671000Y-61214000D03*
D34*
X38227000Y-63754000D03*
D35*
X38227000Y-61214000D03*
D38*
X108448200Y-104394000D03*
X155438200Y-104394000D03*
D39*
X148458200Y-101854000D03*
D36*
X145668200Y-101854000D03*
X142998200Y-101854000D03*
X140198200Y-101854000D03*
X137408200Y-101854000D03*
X134618200Y-101854000D03*
X131948200Y-101854000D03*
X129158200Y-101854000D03*
X126358200Y-101854000D03*
X123568200Y-101854000D03*
X120898200Y-101854000D03*
X118108200Y-101854000D03*
X115308200Y-101854000D03*
X146888200Y-104394000D03*
X144348200Y-104394000D03*
X141548200Y-104394000D03*
X138808200Y-104394000D03*
X136058200Y-104394000D03*
X133268200Y-104394000D03*
X130528200Y-104394000D03*
X127778200Y-104394000D03*
X124938200Y-104394000D03*
X122248200Y-104394000D03*
X119498200Y-104394000D03*
X116708200Y-104394000D03*
D38*
X155453000Y-55626000D03*
X108463000Y-55626000D03*
D39*
X115443000Y-58166000D03*
D36*
X118233000Y-58166000D03*
X120903000Y-58166000D03*
X123703000Y-58166000D03*
X126493000Y-58166000D03*
X129283000Y-58166000D03*
X131953000Y-58166000D03*
X134743000Y-58166000D03*
X137543000Y-58166000D03*
X140333000Y-58166000D03*
X143003000Y-58166000D03*
X145793000Y-58166000D03*
X148593000Y-58166000D03*
X117013000Y-55626000D03*
X119553000Y-55626000D03*
X122353000Y-55626000D03*
X125093000Y-55626000D03*
X127843000Y-55626000D03*
X130633000Y-55626000D03*
X133373000Y-55626000D03*
X136123000Y-55626000D03*
X138963000Y-55626000D03*
X141653000Y-55626000D03*
X144403000Y-55626000D03*
X147193000Y-55626000D03*
D29*
X41783000Y-67564000D03*
D33*
X41783000Y-57404000D03*
D21*
X109093000Y-81280000D03*
X109093000Y-73660000D03*
X109093000Y-76200000D03*
X109093000Y-78740000D03*
D40*
X57379000Y-101092000D03*
D41*
X51079000Y-101092000D03*
X51079000Y-98792000D03*
X51079000Y-103392000D03*
D42*
X103047800Y-68580000D03*
X103047800Y-69850000D03*
D43*
X103047800Y-67310000D03*
D44*
X55879000Y-62992000D03*
X55879000Y-61722000D03*
X55879000Y-60452000D03*
X55879000Y-59182000D03*
X55879000Y-57912000D03*
X55879000Y-56642000D03*
X55879000Y-55372000D03*
X55879000Y-54102000D03*
X55879000Y-52832000D03*
X65279000Y-52832000D03*
X65279000Y-54102000D03*
X65279000Y-55372000D03*
X65279000Y-56642000D03*
X65279000Y-57912000D03*
X65279000Y-59182000D03*
X65279000Y-60452000D03*
X65279000Y-61722000D03*
X65279000Y-62992000D03*
D45*
X49567200Y-75537400D03*
X49567200Y-76187400D03*
X49567200Y-76837400D03*
X49567200Y-77487400D03*
X49567200Y-78137400D03*
X49567200Y-78787400D03*
X49567200Y-79437400D03*
X49567200Y-80087400D03*
X49567200Y-80737400D03*
X49567200Y-81387400D03*
X49567200Y-82037400D03*
X49567200Y-82687400D03*
X49567200Y-83337400D03*
X49567200Y-83987400D03*
X42367200Y-83987400D03*
X42367200Y-83337400D03*
X42367200Y-82687400D03*
X42367200Y-82037400D03*
X42367200Y-81387400D03*
X42367200Y-80737400D03*
X42367200Y-80087400D03*
X42367200Y-79437400D03*
X42367200Y-78787400D03*
X42367200Y-78137400D03*
X42367200Y-77487400D03*
X42367200Y-76837400D03*
X42367200Y-76187400D03*
X42367200Y-75537400D03*
D16*
X35687000Y-109728000D03*
D46*
X41529000Y-50292000D03*
X41529000Y-109728000D03*
X155829000Y-110490000D03*
X155829000Y-49530000D03*
M02*
