%TF.GenerationSoftware,KiCad,Pcbnew,4.0.7*%
%TF.CreationDate,2018-01-21T19:25:00+01:00*%
%TF.ProjectId,blinCAN,626C696E43414E2E6B696361645F7063,0.1*%
%TF.FileFunction,Soldermask,Top*%
%FSLAX46Y46*%
G04 Gerber Fmt 4.6, Leading zero omitted, Abs format (unit mm)*
G04 Created by KiCad (PCBNEW 4.0.7) date 01/21/18 19:25:00*
%MOMM*%
%LPD*%
G01*
G04 APERTURE LIST*
%ADD10C,0.050000*%
%ADD11C,3.600000*%
%ADD12R,1.600000X1.150000*%
%ADD13R,1.200000X1.200000*%
%ADD14R,1.300000X1.600000*%
%ADD15R,1.600000X1.300000*%
%ADD16R,1.950000X1.700000*%
%ADD17C,1.900000*%
%ADD18R,2.200000X2.200000*%
%ADD19C,2.200000*%
%ADD20R,4.400000X2.900000*%
%ADD21R,2.900000X4.400000*%
%ADD22R,1.150000X1.600000*%
%ADD23R,3.100000X3.900000*%
%ADD24R,3.900000X2.700000*%
%ADD25R,2.000000X3.000000*%
%ADD26R,3.600000X1.900000*%
%ADD27R,2.000000X2.000000*%
%ADD28C,2.000000*%
%ADD29O,2.000000X2.000000*%
%ADD30R,2.100000X2.100000*%
%ADD31O,2.100000X2.100000*%
%ADD32C,1.920000*%
%ADD33C,3.100000*%
%ADD34C,4.210000*%
%ADD35R,1.920000X1.920000*%
%ADD36O,1.900000X1.300000*%
%ADD37R,1.900000X1.300000*%
%ADD38R,1.950000X1.000000*%
%ADD39R,0.800000X1.600000*%
%ADD40R,4.760000X4.510000*%
%ADD41C,2.540000*%
G04 APERTURE END LIST*
D10*
D11*
X155067000Y-96520000D03*
X155067000Y-63500000D03*
X35687000Y-50292000D03*
D12*
X57719000Y-58547000D03*
X55819000Y-58547000D03*
X49469000Y-60452000D03*
X51369000Y-60452000D03*
X49469000Y-64262000D03*
X51369000Y-64262000D03*
D13*
X49149000Y-78270000D03*
X49149000Y-76670000D03*
X52197000Y-78270000D03*
X52197000Y-76670000D03*
X43053000Y-78270000D03*
X43053000Y-76670000D03*
X46101000Y-78270000D03*
X46101000Y-76670000D03*
D14*
X56642000Y-83650000D03*
X56642000Y-81450000D03*
X54673500Y-75925500D03*
X54673500Y-78125500D03*
D15*
X55034000Y-67437000D03*
X57234000Y-67437000D03*
X44874000Y-60452000D03*
X47074000Y-60452000D03*
X44874000Y-64262000D03*
X47074000Y-64262000D03*
D16*
X67399000Y-68997000D03*
X75349000Y-68997000D03*
X67399000Y-73497000D03*
X75349000Y-73497000D03*
D17*
X62230000Y-80010000D03*
X62230000Y-75130000D03*
X47625000Y-51152400D03*
X47625000Y-56032400D03*
D18*
X85090000Y-70281800D03*
D19*
X85090000Y-67741800D03*
D18*
X90170000Y-70281800D03*
D19*
X90170000Y-67741800D03*
D18*
X95250000Y-70281800D03*
D19*
X95250000Y-67741800D03*
D14*
X65659000Y-64432000D03*
X65659000Y-66632000D03*
D20*
X99951000Y-86360000D03*
X93851000Y-86360000D03*
D21*
X51841400Y-99667600D03*
X51841400Y-105767600D03*
D22*
X65024000Y-70932000D03*
X65024000Y-72832000D03*
D23*
X44018200Y-97692000D03*
X44018200Y-104492000D03*
D24*
X49944000Y-85217000D03*
X44544000Y-85217000D03*
D25*
X44704000Y-89132000D03*
X44704000Y-92732000D03*
D22*
X124206000Y-78166000D03*
X124206000Y-76266000D03*
D26*
X138589000Y-97282000D03*
X142589000Y-97282000D03*
X138589000Y-62992000D03*
X142589000Y-62992000D03*
X124809000Y-62992000D03*
X120809000Y-62992000D03*
X124809000Y-97282000D03*
X120809000Y-97282000D03*
D13*
X138938000Y-76162000D03*
X138938000Y-77762000D03*
D14*
X117602000Y-78402000D03*
X117602000Y-80602000D03*
X138938000Y-80180000D03*
X138938000Y-82380000D03*
X124206000Y-82761000D03*
X124206000Y-80561000D03*
D24*
X114587000Y-97536000D03*
X109187000Y-97536000D03*
X114587000Y-62484000D03*
X109187000Y-62484000D03*
D27*
X61595000Y-86995000D03*
D28*
X63595000Y-86995000D03*
D27*
X87630000Y-62915800D03*
D29*
X92710000Y-55295800D03*
X90170000Y-62915800D03*
X90170000Y-55295800D03*
X92710000Y-62915800D03*
X87630000Y-55295800D03*
D30*
X34544000Y-99822000D03*
D31*
X34544000Y-102362000D03*
D30*
X39268400Y-99822000D03*
D31*
X39268400Y-102362000D03*
D30*
X76123800Y-60655200D03*
D31*
X73583800Y-60655200D03*
X76123800Y-58115200D03*
X73583800Y-58115200D03*
X76123800Y-55575200D03*
X73583800Y-55575200D03*
D32*
X39624000Y-82677000D03*
X39624000Y-85217000D03*
X37624000Y-85217000D03*
X37624000Y-82677000D03*
D33*
X34924000Y-77947000D03*
X34924000Y-89947000D03*
D30*
X34671000Y-63754000D03*
D31*
X34671000Y-61214000D03*
D30*
X38227000Y-63754000D03*
D31*
X38227000Y-61214000D03*
D34*
X108448200Y-104394000D03*
X155438200Y-104394000D03*
D35*
X148458200Y-101854000D03*
D32*
X145668200Y-101854000D03*
X142998200Y-101854000D03*
X140198200Y-101854000D03*
X137408200Y-101854000D03*
X134618200Y-101854000D03*
X131948200Y-101854000D03*
X129158200Y-101854000D03*
X126358200Y-101854000D03*
X123568200Y-101854000D03*
X120898200Y-101854000D03*
X118108200Y-101854000D03*
X115308200Y-101854000D03*
X146888200Y-104394000D03*
X144348200Y-104394000D03*
X141548200Y-104394000D03*
X138808200Y-104394000D03*
X136058200Y-104394000D03*
X133268200Y-104394000D03*
X130528200Y-104394000D03*
X127778200Y-104394000D03*
X124938200Y-104394000D03*
X122248200Y-104394000D03*
X119498200Y-104394000D03*
X116708200Y-104394000D03*
D34*
X155453000Y-55626000D03*
X108463000Y-55626000D03*
D35*
X115443000Y-58166000D03*
D32*
X118233000Y-58166000D03*
X120903000Y-58166000D03*
X123703000Y-58166000D03*
X126493000Y-58166000D03*
X129283000Y-58166000D03*
X131953000Y-58166000D03*
X134743000Y-58166000D03*
X137543000Y-58166000D03*
X140333000Y-58166000D03*
X143003000Y-58166000D03*
X145793000Y-58166000D03*
X148593000Y-58166000D03*
X117013000Y-55626000D03*
X119553000Y-55626000D03*
X122353000Y-55626000D03*
X125093000Y-55626000D03*
X127843000Y-55626000D03*
X130633000Y-55626000D03*
X133373000Y-55626000D03*
X136123000Y-55626000D03*
X138963000Y-55626000D03*
X141653000Y-55626000D03*
X144403000Y-55626000D03*
X147193000Y-55626000D03*
D28*
X41783000Y-67564000D03*
D29*
X41783000Y-57404000D03*
D17*
X109093000Y-81280000D03*
X109093000Y-73660000D03*
X109093000Y-76200000D03*
X109093000Y-78740000D03*
D36*
X103047800Y-68580000D03*
X103047800Y-69850000D03*
D37*
X103047800Y-67310000D03*
D38*
X59476600Y-64262000D03*
X59476600Y-62992000D03*
X59476600Y-61722000D03*
X59476600Y-60452000D03*
X54076600Y-60452000D03*
X54076600Y-61722000D03*
X54076600Y-62992000D03*
X54076600Y-64262000D03*
D39*
X126824000Y-83152000D03*
X127474000Y-83152000D03*
X128124000Y-83152000D03*
X128774000Y-83152000D03*
X129424000Y-83152000D03*
X130074000Y-83152000D03*
X130724000Y-83152000D03*
X131374000Y-83152000D03*
X132024000Y-83152000D03*
X132674000Y-83152000D03*
X133324000Y-83152000D03*
X133974000Y-83152000D03*
X134624000Y-83152000D03*
X135274000Y-83152000D03*
X135924000Y-83152000D03*
X136574000Y-83152000D03*
X136574000Y-75852000D03*
X135924000Y-75852000D03*
X135274000Y-75852000D03*
X134624000Y-75852000D03*
X133974000Y-75852000D03*
X133324000Y-75852000D03*
X132674000Y-75852000D03*
X132024000Y-75852000D03*
X131374000Y-75852000D03*
X130724000Y-75852000D03*
X130074000Y-75852000D03*
X129424000Y-75852000D03*
X128774000Y-75852000D03*
X128124000Y-75852000D03*
X127474000Y-75852000D03*
X126824000Y-75852000D03*
D40*
X131699000Y-79502000D03*
D11*
X35687000Y-109728000D03*
D41*
X155829000Y-110490000D03*
X155829000Y-49530000D03*
X54229000Y-50292000D03*
X54229000Y-109728000D03*
M02*
